<svg width="36" height="36" viewBox="0 0 36 36" fill="none" xmlns="http://www.w3.org/2000/svg">
<rect width="36" height="36" rx="8" fill="white"/>
<rect x="0.5" y="0.5" width="35" height="35" rx="7.5" stroke="#070F21" stroke-opacity="0.1"/>
<path d="M15.1481 10.3779H17.9999L19.9011 12.2792H24.6542C25.1585 12.2792 25.6421 12.4795 25.9986 12.836C26.3552 13.1926 26.5555 13.6762 26.5555 14.1804V20.8347C26.5555 21.339 26.3552 21.8225 25.9986 22.1791C25.6421 22.5356 25.1585 22.736 24.6542 22.736H15.1481C14.6438 22.736 14.1602 22.5356 13.8037 22.1791C13.4471 21.8225 13.2468 21.339 13.2468 20.8347V12.2792C13.2468 11.7749 13.4471 11.2913 13.8037 10.9348C14.1602 10.5782 14.6438 10.3779 15.1481 10.3779Z" stroke="#6248FF" stroke-width="1.2" stroke-linecap="round" stroke-linejoin="round"/>
<path d="M22.753 22.7362V24.6375C22.753 25.1417 22.5527 25.6253 22.1961 25.9818C21.8396 26.3384 21.356 26.5387 20.8517 26.5387H11.3456C10.8413 26.5387 10.3577 26.3384 10.0012 25.9818C9.64464 25.6253 9.44434 25.1417 9.44434 24.6375V16.0819C9.44434 15.5777 9.64464 15.0941 10.0012 14.7375C10.3577 14.381 10.8413 14.1807 11.3456 14.1807H13.2468" stroke="#6248FF" stroke-width="1.2" stroke-linecap="round" stroke-linejoin="round"/>
</svg>
