<svg width="32" height="32" viewBox="0 0 32 32" fill="none" xmlns="http://www.w3.org/2000/svg">
<path d="M0 8C0 3.58172 3.58172 0 8 0H32V32H8C3.58172 32 0 28.4183 0 24V8Z" fill="#6248FF"/>
<path d="M24.2507 22.6865H11.9913C11.4861 22.6865 11.0765 22.277 11.0765 21.7717C11.0765 21.2665 11.4861 20.8569 11.9913 20.8569H24.2504C24.7557 20.8569 25.1652 21.2665 25.1652 21.7717C25.1652 22.277 24.756 22.6865 24.2507 22.6865Z" fill="white"/>
<path d="M24.2507 16.9448H11.9913C11.4861 16.9448 11.0765 16.5353 11.0765 16.03C11.0765 15.5248 11.4861 15.1152 11.9913 15.1152H24.2504C24.7557 15.1152 25.1652 15.5248 25.1652 16.03C25.1655 16.5353 24.756 16.9448 24.2507 16.9448Z" fill="white"/>
<path d="M24.2507 11.2026H11.9913C11.4861 11.2026 11.0765 10.7931 11.0765 10.2878C11.0765 9.78257 11.4861 9.37305 11.9913 9.37305H24.2504C24.7557 9.37305 25.1652 9.78257 25.1652 10.2878C25.1652 10.7931 24.756 11.2026 24.2507 11.2026Z" fill="white"/>
<path d="M8.06192 11.587C8.74044 11.587 9.29048 11.037 9.29048 10.3584C9.29048 9.67993 8.74044 9.12988 8.06192 9.12988C7.38341 9.12988 6.83336 9.67993 6.83336 10.3584C6.83336 11.037 7.38341 11.587 8.06192 11.587Z" fill="white"/>
<path d="M8.06195 17.2584C8.74047 17.2584 9.29052 16.7083 9.29052 16.0298C9.29052 15.3513 8.74047 14.8013 8.06195 14.8013C7.38344 14.8013 6.83339 15.3513 6.83339 16.0298C6.83339 16.7083 7.38344 17.2584 8.06195 17.2584Z" fill="white"/>
<path d="M8.06195 22.9298C8.74047 22.9298 9.29052 22.3797 9.29052 21.7012C9.29052 21.0227 8.74047 20.4727 8.06195 20.4727C7.38344 20.4727 6.83339 21.0227 6.83339 21.7012C6.83339 22.3797 7.38344 22.9298 8.06195 22.9298Z" fill="white"/>
</svg>
