<svg width="36" height="36" viewBox="0 0 36 36" fill="none" xmlns="http://www.w3.org/2000/svg">
<rect width="36" height="36" rx="8" fill="white"/>
<rect x="0.5" y="0.5" width="35" height="35" rx="7.5" stroke="#070F21" stroke-opacity="0.1"/>
<path d="M15.1482 10.3782H18L19.9013 12.2794H24.6544C25.1586 12.2794 25.6422 12.4797 25.9987 12.8363C26.3553 13.1928 26.5556 13.6764 26.5556 14.1806V20.835C26.5556 21.3392 26.3553 21.8228 25.9987 22.1793C25.6422 22.5359 25.1586 22.7362 24.6544 22.7362H15.1482C14.6439 22.7362 14.1604 22.5359 13.8038 22.1793C13.4473 21.8228 13.2469 21.3392 13.2469 20.835V12.2794C13.2469 11.7752 13.4473 11.2916 13.8038 10.935C14.1604 10.5785 14.6439 10.3782 15.1482 10.3782Z" stroke="#6248FF" stroke-width="1.2" stroke-linecap="round" stroke-linejoin="round"/>
<path d="M22.7531 22.7362V24.6375C22.7531 25.1417 22.5528 25.6253 22.1962 25.9818C21.8397 26.3384 21.3561 26.5387 20.8519 26.5387H11.3457C10.8415 26.5387 10.3579 26.3384 10.0013 25.9818C9.64477 25.6253 9.44446 25.1417 9.44446 24.6375V16.0819C9.44446 15.5777 9.64477 15.0941 10.0013 14.7375C10.3579 14.381 10.8415 14.1807 11.3457 14.1807H13.2469" stroke="#6248FF" stroke-width="1.2" stroke-linecap="round" stroke-linejoin="round"/>
</svg>
