<svg width="36" height="40" viewBox="0 0 36 40" fill="none" xmlns="http://www.w3.org/2000/svg">
<g filter="url(#filter0_d_2_676)">
<path d="M4 8C4 3.58172 7.58172 0 12 0H36V32H12C7.58172 32 4 28.4183 4 24V8Z" fill="#0E8CFF"/>
<path d="M13.9858 23.8446C13.7334 23.8436 13.4908 23.7393 13.3112 23.553C13.1315 23.3666 13.0295 23.1133 13.0286 22.8481V10.3744C13.0295 10.1093 13.1315 9.85595 13.3112 9.66953C13.4909 9.48322 13.7335 9.37885 13.986 9.37794H14.5964V9.88905C14.5964 10.0765 14.6682 10.257 14.797 10.3906C14.926 10.5243 15.1017 10.6002 15.2857 10.6002C15.4697 10.6002 15.6454 10.5243 15.7744 10.3906C15.9032 10.257 15.975 10.0765 15.975 9.88905V9.37794H19.3107V9.88905C19.3107 10.0765 19.3825 10.257 19.5113 10.3906C19.6403 10.5243 19.816 10.6002 20 10.6002C20.184 10.6002 20.3597 10.5243 20.4887 10.3906C20.6175 10.257 20.6893 10.0765 20.6893 9.88905V9.37794H24.025V9.88905C24.025 10.0765 24.0968 10.257 24.2256 10.3906C24.3546 10.5243 24.5303 10.6002 24.7143 10.6002C24.8983 10.6002 25.074 10.5243 25.203 10.3906C25.3318 10.257 25.4036 10.0765 25.4036 9.88905V9.37794H26.014C26.2665 9.37885 26.5091 9.48322 26.6888 9.66953C26.8685 9.85593 26.9705 10.1092 26.9714 10.3743C26.9714 10.3744 26.9714 10.3745 26.9714 10.3746V22.8479C26.9714 22.848 26.9714 22.8481 26.9714 22.8482C26.9705 23.1133 26.8685 23.3666 26.6888 23.553L13.9858 23.8446ZM13.9858 23.8446C13.9859 23.8446 13.986 23.8446 13.9861 23.8446M13.9858 23.8446L13.9861 23.8446M13.9861 23.8446H26.0139M26.0144 7.95572L26.0142 8.05572V7.95572H25.4036V7.44461C25.4036 7.25716 25.3318 7.07669 25.203 6.94307C25.074 6.80933 24.8983 6.7335 24.7143 6.7335C24.5303 6.7335 24.3546 6.80933 24.2256 6.94307C24.0968 7.07669 24.025 7.25716 24.025 7.44461V7.95572H20.6893V7.44461C20.6893 7.25716 20.6175 7.07669 20.4887 6.94307C20.3597 6.80933 20.184 6.7335 20 6.7335C19.816 6.7335 19.6403 6.80933 19.5113 6.94307C19.3825 7.07669 19.3107 7.25716 19.3107 7.44461V7.95572H15.975V7.44461C15.975 7.25716 15.9032 7.07669 15.7744 6.94307C15.6454 6.80933 15.4697 6.7335 15.2857 6.7335C15.1017 6.7335 14.926 6.80933 14.797 6.94307C14.6682 7.07669 14.5964 7.25716 14.5964 7.44461V7.95572L13.9858 7.95572L13.9856 7.95572C13.3653 7.95673 12.7714 8.21277 12.3339 8.66646C11.8965 9.12004 11.651 9.73418 11.65 10.3741V10.3743L11.65 22.8483L11.65 22.8484C11.651 23.4884 11.8965 24.1025 12.3339 24.5561C12.7714 25.0098 13.3653 25.2658 13.9856 25.2668H13.9858H26.0142H26.0144C26.6347 25.2658 27.2286 25.0098 27.6661 24.5561C28.1035 24.1025 28.349 23.4884 28.35 22.8484V22.8483V10.3743V10.3741C28.349 9.73418 28.1035 9.12004 27.6661 8.66646C27.2286 8.21277 26.6347 7.95673 26.0144 7.95572Z" fill="white" stroke="white" stroke-width="0.2"/>
<path d="M15.945 15.9151L15.945 15.9151C16.0874 16.0349 16.2772 16.1 16.4723 16.1C16.6674 16.1 16.8573 16.0349 16.9997 15.9151L16.9997 15.9151L18.9639 14.2609L18.964 14.2609L18.9653 14.2598C19.1042 14.1386 19.1851 13.9724 19.1833 13.7956C19.1815 13.6188 19.0972 13.4539 18.956 13.335C18.8152 13.2165 18.6279 13.1514 18.435 13.15C18.242 13.1486 18.0536 13.2109 17.9106 13.3272L17.9106 13.3272L17.9093 13.3283L16.4723 14.5384L15.6908 13.8802C15.6206 13.8192 15.5377 13.7713 15.4472 13.7386C15.3564 13.7057 15.2592 13.6886 15.1612 13.6879C15.0632 13.6871 14.9657 13.7028 14.8743 13.7343C14.7828 13.7658 14.6988 13.8127 14.6274 13.8728C14.5559 13.933 14.4983 14.0055 14.4588 14.0867C14.4193 14.168 14.3991 14.2559 14.4 14.345C14.401 14.4342 14.423 14.5217 14.4641 14.6023C14.505 14.6825 14.5638 14.7539 14.6361 14.8128L15.945 15.9151Z" fill="white" stroke="white" stroke-width="0.2"/>
<path d="M24.8889 14.0665H20.6111C20.4304 14.0665 20.2531 14.1201 20.119 14.2207C19.9843 14.3218 19.9 14.466 19.9 14.6248C19.9 14.7837 19.9843 14.9279 20.119 15.0289C20.2531 15.1295 20.4304 15.1832 20.6111 15.1832H24.8889C25.0696 15.1832 25.2469 15.1295 25.381 15.0289C25.5157 14.9279 25.6 14.7837 25.6 14.6248C25.6 14.466 25.5157 14.3218 25.381 14.2207C25.2469 14.1201 25.0696 14.0665 24.8889 14.0665Z" fill="white" stroke="white" stroke-width="0.2"/>
<path d="M17.9106 18.8272L17.9106 18.8272L17.9093 18.8283L16.4723 20.0384L15.6908 19.3802C15.6206 19.3192 15.5377 19.2713 15.4472 19.2386C15.3564 19.2057 15.2592 19.1886 15.1612 19.1879C15.0632 19.1871 14.9657 19.2028 14.8743 19.2343C14.7828 19.2658 14.6988 19.3127 14.6274 19.3728C14.5559 19.433 14.4983 19.5055 14.4588 19.5867C14.4193 19.668 14.3991 19.7559 14.4 19.845C14.401 19.9342 14.423 20.0217 14.4641 20.1023C14.505 20.1825 14.5638 20.2539 14.6361 20.3128L15.945 21.4151L15.945 21.4151C16.0874 21.5349 16.2772 21.6 16.4723 21.6C16.6674 21.6 16.8573 21.5349 16.9997 21.4151L16.9997 21.4151L18.9639 19.7609L18.964 19.7609L18.9653 19.7598C19.1042 19.6386 19.1851 19.4724 19.1833 19.2956C19.1815 19.1188 19.0972 18.9539 18.956 18.835C18.8152 18.7165 18.6279 18.6514 18.435 18.65C18.242 18.6486 18.0536 18.7109 17.9106 18.8272Z" fill="white" stroke="white" stroke-width="0.2"/>
<path d="M24.8889 19.5665H20.6111C20.4304 19.5665 20.2531 19.6201 20.119 19.7207C19.9843 19.8218 19.9 19.966 19.9 20.1248C19.9 20.2837 19.9843 20.4279 20.119 20.5289C20.2531 20.6295 20.4304 20.6832 20.6111 20.6832H24.8889C25.0696 20.6832 25.2469 20.6295 25.381 20.5289C25.5157 20.4279 25.6 20.2837 25.6 20.1248C25.6 19.966 25.5157 19.8218 25.381 19.7207C25.2469 19.6201 25.0696 19.5665 24.8889 19.5665Z" fill="white" stroke="white" stroke-width="0.2"/>
</g>
<defs>
<filter id="filter0_d_2_676" x="0" y="0" width="40" height="40" filterUnits="userSpaceOnUse" color-interpolation-filters="sRGB">
<feFlood flood-opacity="0" result="BackgroundImageFix"/>
<feColorMatrix in="SourceAlpha" type="matrix" values="0 0 0 0 0 0 0 0 0 0 0 0 0 0 0 0 0 0 127 0" result="hardAlpha"/>
<feOffset dy="4"/>
<feGaussianBlur stdDeviation="2"/>
<feComposite in2="hardAlpha" operator="out"/>
<feColorMatrix type="matrix" values="0 0 0 0 0 0 0 0 0 0 0 0 0 0 0 0 0 0 0.25 0"/>
<feBlend mode="normal" in2="BackgroundImageFix" result="effect1_dropShadow_2_676"/>
<feBlend mode="normal" in="SourceGraphic" in2="effect1_dropShadow_2_676" result="shape"/>
</filter>
</defs>
</svg>
