<svg width="32" height="32" viewBox="0 0 32 32" fill="none" xmlns="http://www.w3.org/2000/svg">
<path d="M0 8C0 3.58172 3.58172 0 8 0H32V32H8C3.58172 32 0 28.4183 0 24V8Z" fill="#6248FF"/>
<path d="M24.2506 22.6865H11.9912C11.4859 22.6865 11.0764 22.277 11.0764 21.7717C11.0764 21.2665 11.4859 20.8569 11.9912 20.8569H24.2503C24.7556 20.8569 25.1651 21.2665 25.1651 21.7717C25.1651 22.277 24.7559 22.6865 24.2506 22.6865Z" fill="white"/>
<path d="M24.2506 16.9448H11.9912C11.4859 16.9448 11.0764 16.5353 11.0764 16.03C11.0764 15.5248 11.4859 15.1152 11.9912 15.1152H24.2503C24.7556 15.1152 25.1651 15.5248 25.1651 16.03C25.1654 16.5353 24.7559 16.9448 24.2506 16.9448Z" fill="white"/>
<path d="M24.2506 11.2026H11.9912C11.4859 11.2026 11.0764 10.7931 11.0764 10.2878C11.0764 9.78257 11.4859 9.37305 11.9912 9.37305H24.2503C24.7556 9.37305 25.1651 9.78257 25.1651 10.2878C25.1651 10.7931 24.7559 11.2026 24.2506 11.2026Z" fill="white"/>
<path d="M8.06181 11.587C8.74033 11.587 9.29037 11.037 9.29037 10.3584C9.29037 9.67993 8.74033 9.12988 8.06181 9.12988C7.3833 9.12988 6.83325 9.67993 6.83325 10.3584C6.83325 11.037 7.3833 11.587 8.06181 11.587Z" fill="white"/>
<path d="M8.06181 17.2584C8.74033 17.2584 9.29037 16.7083 9.29037 16.0298C9.29037 15.3513 8.74033 14.8013 8.06181 14.8013C7.3833 14.8013 6.83325 15.3513 6.83325 16.0298C6.83325 16.7083 7.3833 17.2584 8.06181 17.2584Z" fill="white"/>
<path d="M8.06181 22.9298C8.74033 22.9298 9.29037 22.3797 9.29037 21.7012C9.29037 21.0227 8.74033 20.4727 8.06181 20.4727C7.3833 20.4727 6.83325 21.0227 6.83325 21.7012C6.83325 22.3797 7.3833 22.9298 8.06181 22.9298Z" fill="white"/>
</svg>
