<svg width="32" height="32" viewBox="0 0 32 32" fill="none" xmlns="http://www.w3.org/2000/svg">
<path d="M0 8C0 3.58172 3.58172 0 8 0H32V32H8C3.58172 32 0 28.4183 0 24V8Z" fill="#6248FF"/>
<path d="M24.2508 22.6865H11.9914C11.4862 22.6865 11.0767 22.277 11.0767 21.7717C11.0767 21.2665 11.4862 20.8569 11.9914 20.8569H24.2505C24.7558 20.8569 25.1653 21.2665 25.1653 21.7717C25.1653 22.277 24.7561 22.6865 24.2508 22.6865Z" fill="white"/>
<path d="M24.2508 16.9448H11.9914C11.4862 16.9448 11.0767 16.5353 11.0767 16.03C11.0767 15.5248 11.4862 15.1152 11.9914 15.1152H24.2505C24.7558 15.1152 25.1653 15.5248 25.1653 16.03C25.1656 16.5353 24.7561 16.9448 24.2508 16.9448Z" fill="white"/>
<path d="M24.2508 11.2026H11.9914C11.4862 11.2026 11.0767 10.7931 11.0767 10.2878C11.0767 9.78257 11.4862 9.37305 11.9914 9.37305H24.2505C24.7558 9.37305 25.1653 9.78257 25.1653 10.2878C25.1653 10.7931 24.7561 11.2026 24.2508 11.2026Z" fill="white"/>
<path d="M8.06206 11.587C8.74057 11.587 9.29062 11.037 9.29062 10.3584C9.29062 9.67993 8.74057 9.12988 8.06206 9.12988C7.38354 9.12988 6.8335 9.67993 6.8335 10.3584C6.8335 11.037 7.38354 11.587 8.06206 11.587Z" fill="white"/>
<path d="M8.06206 17.2584C8.74057 17.2584 9.29062 16.7083 9.29062 16.0298C9.29062 15.3513 8.74057 14.8013 8.06206 14.8013C7.38354 14.8013 6.8335 15.3513 6.8335 16.0298C6.8335 16.7083 7.38354 17.2584 8.06206 17.2584Z" fill="white"/>
<path d="M8.06206 22.9298C8.74057 22.9298 9.29062 22.3797 9.29062 21.7012C9.29062 21.0227 8.74057 20.4727 8.06206 20.4727C7.38354 20.4727 6.8335 21.0227 6.8335 21.7012C6.8335 22.3797 7.38354 22.9298 8.06206 22.9298Z" fill="white"/>
</svg>
