<svg width="36" height="36" viewBox="0 0 36 36" fill="none" xmlns="http://www.w3.org/2000/svg">
<rect width="36" height="36" rx="8" fill="white"/>
<rect x="0.5" y="0.5" width="35" height="35" rx="7.5" stroke="#070F21" stroke-opacity="0.1"/>
<path d="M15.1482 10.3779H18L19.9012 12.2792H24.6543C25.1586 12.2792 25.6421 12.4795 25.9987 12.836C26.3553 13.1926 26.5556 13.6762 26.5556 14.1804V20.8347C26.5556 21.339 26.3553 21.8225 25.9987 22.1791C25.6421 22.5356 25.1586 22.736 24.6543 22.736H15.1482C14.6439 22.736 14.1603 22.5356 13.8038 22.1791C13.4472 21.8225 13.2469 21.339 13.2469 20.8347V12.2792C13.2469 11.7749 13.4472 11.2913 13.8038 10.9348C14.1603 10.5782 14.6439 10.3779 15.1482 10.3779Z" stroke="#6248FF" stroke-width="1.2" stroke-linecap="round" stroke-linejoin="round"/>
<path d="M22.7531 22.7362V24.6375C22.7531 25.1417 22.5528 25.6253 22.1962 25.9818C21.8397 26.3384 21.3561 26.5387 20.8519 26.5387H11.3457C10.8414 26.5387 10.3579 26.3384 10.0013 25.9818C9.64475 25.6253 9.44444 25.1417 9.44444 24.6375V16.0819C9.44444 15.5777 9.64475 15.0941 10.0013 14.7375C10.3579 14.381 10.8414 14.1807 11.3457 14.1807H13.2469" stroke="#6248FF" stroke-width="1.2" stroke-linecap="round" stroke-linejoin="round"/>
</svg>
