<svg width="36" height="36" viewBox="0 0 36 36" fill="none" xmlns="http://www.w3.org/2000/svg">
<rect width="36" height="36" rx="8" fill="white"/>
<rect x="0.5" y="0.5" width="35" height="35" rx="7.5" stroke="#070F21" stroke-opacity="0.1"/>
<g opacity="0.8">
<path d="M15.4074 11.071H17.9999L19.7283 12.7994H24.0493C24.5077 12.7994 24.9473 12.9815 25.2715 13.3057C25.5956 13.6298 25.7777 14.0694 25.7777 14.5278V20.5772C25.7777 21.0356 25.5956 21.4752 25.2715 21.7994C24.9473 22.1235 24.5077 22.3056 24.0493 22.3056H15.4074C14.949 22.3056 14.5093 22.1235 14.1852 21.7994C13.8611 21.4752 13.679 21.0356 13.679 20.5772V12.7994C13.679 12.341 13.8611 11.9014 14.1852 11.5773C14.5093 11.2531 14.949 11.071 15.4074 11.071Z" stroke="#070F21" stroke-width="1.2" stroke-linecap="round" stroke-linejoin="round"/>
<path d="M22.3209 22.3056V24.034C22.3209 24.4924 22.1388 24.932 21.8147 25.2562C21.4906 25.5803 21.0509 25.7624 20.5925 25.7624H11.9506C11.4922 25.7624 11.0525 25.5803 10.7284 25.2562C10.4043 24.932 10.2222 24.4924 10.2222 24.034V16.2562C10.2222 15.7978 10.4043 15.3582 10.7284 15.0341C11.0525 14.7099 11.4922 14.5278 11.9506 14.5278H13.679" stroke="#070F21" stroke-width="1.2" stroke-linecap="round" stroke-linejoin="round"/>
</g>
</svg>
