<svg width="32" height="32" viewBox="0 0 32 32" fill="none" xmlns="http://www.w3.org/2000/svg">
<path d="M0 8C0 3.58172 3.58172 0 8 0H32V32H8C3.58172 32 0 28.4183 0 24V8Z" fill="#0E8CFF"/>
<path d="M22.6888 23.5528C22.8685 23.3664 22.9705 23.1131 22.9714 22.848C22.9714 22.8479 22.9714 22.8478 22.9714 22.8477V10.3744C22.9714 10.3743 22.9714 10.3742 22.9714 10.3741C22.9705 10.109 22.8685 9.85568 22.6888 9.66929C22.5091 9.48298 22.2665 9.3786 22.014 9.3777H21.4036V9.88881C21.4036 10.0763 21.3318 10.2567 21.203 10.3903C21.074 10.5241 20.8983 10.5999 20.7143 10.5999C20.5303 10.5999 20.3546 10.5241 20.2256 10.3903C20.0968 10.2567 20.025 10.0763 20.025 9.88881V9.3777H16.6893V9.88881C16.6893 10.0763 16.6175 10.2567 16.4887 10.3903C16.3597 10.5241 16.184 10.5999 16 10.5999C15.816 10.5999 15.6403 10.5241 15.5113 10.3903C15.3825 10.2567 15.3107 10.0763 15.3107 9.88881V9.3777H11.975V9.88881C11.975 10.0763 11.9032 10.2567 11.7744 10.3903C11.6454 10.5241 11.4697 10.5999 11.2857 10.5999C11.1017 10.5999 10.926 10.5241 10.797 10.3903C10.6682 10.2567 10.5964 10.0763 10.5964 9.88881V9.3777H9.98596C9.73351 9.3786 9.49088 9.48298 9.31123 9.66929C9.13146 9.85571 9.02947 10.109 9.02857 10.3742V22.8479C9.02947 23.113 9.13146 23.3663 9.31123 23.5528C9.49083 23.739 9.73338 23.8434 9.98575 23.8444C9.98587 23.8444 9.98598 23.8444 9.9861 23.8444M22.6888 23.5528L9.98575 23.9444L9.9861 23.8444M22.6888 23.5528C22.5092 23.739 22.2666 23.8434 22.0142 23.8444M22.6888 23.5528L22.0142 23.8444M9.9861 23.8444H22.0139M9.9861 23.8444H22.0139M22.0139 23.8444L22.0142 23.8444M22.0139 23.8444L22.0142 23.8444M22.0144 7.95547H22.0142H21.4036V7.44436C21.4036 7.25691 21.3318 7.07644 21.203 6.94283C21.074 6.80909 20.8983 6.73325 20.7143 6.73325C20.5303 6.73325 20.3546 6.80909 20.2256 6.94283C20.0968 7.07644 20.025 7.25691 20.025 7.44436V7.95547H16.6893V7.44436C16.6893 7.25691 16.6175 7.07644 16.4887 6.94283C16.3597 6.80909 16.184 6.73325 16 6.73325C15.816 6.73325 15.6403 6.80909 15.5113 6.94283C15.3825 7.07644 15.3107 7.25691 15.3107 7.44436V7.95547H11.975V7.44436C11.975 7.25691 11.9032 7.07644 11.7744 6.94283C11.6454 6.80909 11.4697 6.73325 11.2857 6.73325C11.1017 6.73325 10.926 6.80909 10.797 6.94283C10.6682 7.07644 10.5964 7.25691 10.5964 7.44436V7.95547L9.98575 7.95547L9.98559 7.95547C9.36525 7.95649 8.77138 8.21252 8.33388 8.66622C7.89651 9.11979 7.65097 9.73394 7.65 10.3739V10.374L7.65 22.848L7.65 22.8482C7.65097 23.4881 7.89651 24.1023 8.33388 24.5558C8.77138 25.0095 9.36525 25.2656 9.98559 25.2666H9.98575H22.0142H22.0144C22.6347 25.2656 23.2286 25.0095 23.6661 24.5558C24.1035 24.1023 24.349 23.4881 24.35 22.8482V22.848V10.374V10.3739C24.349 9.73394 24.1035 9.11979 23.6661 8.66622C23.2286 8.21252 22.6347 7.95649 22.0144 7.95547Z" fill="white" stroke="white" stroke-width="0.2"/>
<path d="M13.9106 13.3272L13.9106 13.3272L13.9093 13.3283L12.4723 14.5384L11.6908 13.8802C11.6206 13.8192 11.5377 13.7713 11.4472 13.7386C11.3564 13.7057 11.2592 13.6886 11.1612 13.6879C11.0632 13.6871 10.9657 13.7028 10.8743 13.7343C10.7828 13.7658 10.6988 13.8127 10.6274 13.8728C10.5559 13.933 10.4983 14.0055 10.4588 14.0867C10.4193 14.168 10.3991 14.2559 10.4 14.345C10.401 14.4342 10.423 14.5217 10.4641 14.6023C10.505 14.6825 10.5638 14.7539 10.6361 14.8128L11.945 15.9151L11.945 15.9151C12.0874 16.0349 12.2772 16.1 12.4723 16.1C12.6674 16.1 12.8573 16.0349 12.9997 15.9151L12.9997 15.9151L14.9639 14.2609L14.964 14.2609L14.9653 14.2598C15.1042 14.1386 15.1851 13.9724 15.1833 13.7956C15.1815 13.6188 15.0972 13.4539 14.956 13.335C14.8152 13.2165 14.6279 13.1514 14.435 13.15C14.242 13.1486 14.0536 13.2109 13.9106 13.3272Z" fill="white" stroke="white" stroke-width="0.2"/>
<path d="M20.8889 14.0667H16.6111C16.4304 14.0667 16.2531 14.1204 16.119 14.221C15.9843 14.322 15.9 14.4662 15.9 14.6251C15.9 14.784 15.9843 14.9281 16.119 15.0292C16.2531 15.1298 16.4304 15.1834 16.6111 15.1834H20.8889C21.0696 15.1834 21.2469 15.1298 21.381 15.0292C21.5157 14.9281 21.6 14.784 21.6 14.6251C21.6 14.4662 21.5157 14.322 21.381 14.221C21.2469 14.1204 21.0696 14.0667 20.8889 14.0667Z" fill="white" stroke="white" stroke-width="0.2"/>
<path d="M13.9106 18.8272L13.9106 18.8272L13.9093 18.8283L12.4723 20.0384L11.6908 19.3802C11.6206 19.3192 11.5377 19.2713 11.4472 19.2386C11.3564 19.2057 11.2592 19.1886 11.1612 19.1879C11.0632 19.1871 10.9657 19.2028 10.8743 19.2343C10.7828 19.2658 10.6988 19.3127 10.6274 19.3728C10.5559 19.433 10.4983 19.5055 10.4588 19.5867C10.4193 19.668 10.3991 19.7559 10.4 19.845C10.401 19.9342 10.423 20.0217 10.4641 20.1023C10.505 20.1825 10.5638 20.2539 10.6361 20.3128L11.945 21.4151L11.945 21.4151C12.0874 21.5349 12.2772 21.6 12.4723 21.6C12.6674 21.6 12.8573 21.5349 12.9997 21.4151L12.9997 21.4151L14.9639 19.7609L14.964 19.7609L14.9653 19.7598C15.1042 19.6386 15.1851 19.4724 15.1833 19.2956C15.1815 19.1188 15.0972 18.9539 14.956 18.835C14.8152 18.7165 14.6279 18.6514 14.435 18.65C14.242 18.6486 14.0536 18.7109 13.9106 18.8272Z" fill="white" stroke="white" stroke-width="0.2"/>
<path d="M20.8889 19.5667H16.6111C16.4304 19.5667 16.2531 19.6204 16.119 19.721C15.9843 19.822 15.9 19.9662 15.9 20.1251C15.9 20.284 15.9843 20.4281 16.119 20.5292C16.2531 20.6298 16.4304 20.6834 16.6111 20.6834H20.8889C21.0696 20.6834 21.2469 20.6298 21.381 20.5292C21.5157 20.4281 21.6 20.284 21.6 20.1251C21.6 19.9662 21.5157 19.822 21.381 19.721C21.2469 19.6204 21.0696 19.5667 20.8889 19.5667Z" fill="white" stroke="white" stroke-width="0.2"/>
</svg>
