<svg width="14" height="15" viewBox="0 0 14 15" fill="none" xmlns="http://www.w3.org/2000/svg">
<g opacity="0.6">
<path fill-rule="evenodd" clip-rule="evenodd" d="M4.31639 4.38917H4.25975C3.77191 4.38909 3.45974 4.38904 3.19032 4.44049C2.0887 4.65085 1.21189 5.48165 0.987602 6.56415C0.932898 6.82815 0.932959 7.13314 0.933052 7.59692L0.933059 7.65583L0.933052 7.71474C0.932959 8.17853 0.932898 8.48351 0.987602 8.74752C1.21189 9.83002 2.0887 10.6608 3.19032 10.8712C3.45975 10.9226 3.77192 10.9226 4.25976 10.9225H4.31639H5.13306C5.39079 10.9225 5.59973 10.7136 5.59973 10.4558C5.59973 10.1981 5.39079 9.98916 5.13306 9.98916H4.31639C3.75278 9.98916 3.53646 9.98708 3.36538 9.95441C2.61577 9.81126 2.04546 9.25283 1.90152 8.55815C1.86884 8.40042 1.86639 8.1995 1.86639 7.65583C1.86639 7.11217 1.86884 6.91126 1.90152 6.75351C2.04546 6.05884 2.61577 5.5004 3.36538 5.35726C3.53646 5.32459 3.75278 5.3225 4.31639 5.3225H5.13306C5.39079 5.3225 5.59973 5.11356 5.59973 4.85583C5.59973 4.5981 5.39079 4.38917 5.13306 4.38917H4.31639ZM9.68305 5.3225C10.2467 5.3225 10.463 5.32459 10.6341 5.35726C11.3837 5.5004 11.954 6.05884 12.098 6.75351C12.1306 6.91126 12.133 7.11217 12.133 7.65583C12.133 8.1995 12.1306 8.40042 12.098 8.55815C11.954 9.25283 11.3837 9.81126 10.6341 9.95441C10.463 9.98708 10.2467 9.98916 9.68305 9.98916H8.86639C8.60866 9.98916 8.39973 10.1981 8.39973 10.4558C8.39973 10.7136 8.60866 10.9225 8.86639 10.9225H9.68305H9.7397C10.2276 10.9226 10.5397 10.9226 10.8091 10.8712C11.9107 10.6608 12.7876 9.83002 13.0119 8.74752C13.0666 8.48351 13.0665 8.17854 13.0664 7.71475V7.65583V7.59691C13.0665 7.13314 13.0666 6.82815 13.0119 6.56415C12.7876 5.48165 11.9107 4.65085 10.8091 4.44049C10.5397 4.38904 10.2276 4.38909 9.7397 4.38917H9.68305H8.86639C8.60866 4.38917 8.39973 4.5981 8.39973 4.85583C8.39973 5.11356 8.60866 5.3225 8.86639 5.3225H9.68305ZM4.66702 7.18916C4.40929 7.18916 4.20035 7.39809 4.20035 7.65582C4.20035 7.91355 4.40929 8.12249 4.66702 8.12249H9.3337C9.5914 8.12249 9.80037 7.91355 9.80037 7.65582C9.80037 7.39809 9.5914 7.18916 9.3337 7.18916H4.66702Z" fill="#070F21"/>
</g>
</svg>
