<svg width="14" height="14" viewBox="0 0 14 14" fill="none" xmlns="http://www.w3.org/2000/svg">
<g opacity="0.6" clip-path="url(#clip0_539_15863)">
<path d="M6.25884 11.8588C7.20589 11.8588 8.0706 11.6529 8.89413 11.2L11.1177 13.4235C11.7353 14.0411 12.7647 14.0411 13.4235 13.4235C14.0824 12.8058 14.0824 11.7352 13.4235 11.1176L11.2 8.89407C11.6118 8.11171 11.8588 7.20583 11.8588 6.25877C11.8588 3.21172 9.34707 0.699951 6.25884 0.699951C3.21178 0.699951 0.700012 3.21172 0.700012 6.25877C0.700012 9.34701 3.21178 11.8588 6.25884 11.8588ZM12.8059 11.6941C13.1353 12.0235 13.1353 12.5176 12.8059 12.847C12.4765 13.1764 11.9824 13.1764 11.653 12.847L9.55295 10.747C10.0471 10.3764 10.3353 10.0882 10.7059 9.59407L12.8059 11.6941ZM6.25884 1.52348C8.89413 1.52348 10.9941 3.66466 10.9941 6.25877C10.9941 8.89407 8.85295 10.9941 6.25884 10.9941C3.66472 11.0352 1.52354 8.89407 1.52354 6.25877C1.52354 3.66466 3.66472 1.52348 6.25884 1.52348Z" fill="#070F21"/>
<path d="M3.78825 8.93525H8.72942C8.97648 8.93525 9.14119 8.77054 9.14119 8.52348V7.90583C9.14119 7.0823 8.48237 6.25877 7.94707 5.80583C8.0706 5.55877 8.11178 5.31172 8.11178 5.02348C8.11178 3.99407 7.28825 3.17054 6.25884 3.17054C5.22942 3.17054 4.40589 3.99407 4.40589 5.02348C4.40589 5.31172 4.48825 5.55877 4.5706 5.80583C3.95295 6.25877 3.37648 6.99995 3.37648 7.90583V8.52348C3.37648 8.77054 3.58237 8.93525 3.78825 8.93525ZM6.25884 3.99407C6.83531 3.99407 7.28825 4.44701 7.28825 5.02348C7.28825 5.59995 6.83531 6.05289 6.25884 6.05289C5.68237 6.05289 5.22942 5.59995 5.22942 5.02348C5.22942 4.44701 5.72354 3.99407 6.25884 3.99407ZM4.20001 7.90583C4.20001 7.32936 4.61178 6.79407 5.10589 6.46466C5.43531 6.71172 5.80589 6.87642 6.25884 6.87642C6.71178 6.87642 7.08236 6.71172 7.41178 6.46466C7.78236 6.75289 8.31766 7.41172 8.31766 7.90583V8.11172H4.20001V7.90583Z" fill="#070F21"/>
</g>
<defs>
<clipPath id="clip0_539_15863">
<rect width="14" height="14" fill="white"/>
</clipPath>
</defs>
</svg>
