<svg width="14" height="15" viewBox="0 0 14 15" fill="none" xmlns="http://www.w3.org/2000/svg">
<g opacity="0.6" clip-path="url(#clip0_539_18736)">
<path d="M13.8794 3.10064L11.1344 0.355483C11.0572 0.278236 10.9524 0.234863 10.8432 0.234863H4.52941C3.84827 0.234863 3.29412 0.789016 3.29412 1.47016V6.901C1.44376 7.1065 0 8.67964 0 10.5839C0 12.6273 1.66246 14.2898 3.70588 14.2898H12.7647C13.4458 14.2898 14 13.7356 14 13.0545V3.39181C14 3.28258 13.9566 3.17788 13.8794 3.10064V3.10064ZM11.2549 1.64071L12.1495 2.53537L12.5941 2.97996H11.2549V1.64071ZM0.823529 10.5839C0.823529 8.99455 2.11655 7.70153 3.70588 7.70153C5.29521 7.70153 6.58824 8.99455 6.58824 10.5839C6.58824 12.1732 5.29521 13.4662 3.70588 13.4662C2.11655 13.4662 0.823529 12.1732 0.823529 10.5839ZM12.7647 13.4662H6.03233C6.77249 12.8677 7.2783 11.9905 7.38879 10.9956H11.6667C11.8941 10.9956 12.0784 10.8113 12.0784 10.5839C12.0784 10.3565 11.8941 10.1721 11.6667 10.1721H7.38876C7.32162 9.56765 7.10865 9.00658 6.78572 8.52506H11.6667C11.8941 8.52506 12.0784 8.3407 12.0784 8.11329C12.0784 7.88589 11.8941 7.70153 11.6667 7.70153H6.03233C5.49645 7.26819 4.83791 6.981 4.11765 6.901V1.47016C4.11765 1.24311 4.30236 1.05839 4.52941 1.05839H10.4314V3.39173C10.4314 3.61913 10.6157 3.80349 10.8431 3.80349H13.1765V13.0545C13.1765 13.2815 12.9918 13.4662 12.7647 13.4662V13.4662Z" fill="#070F21"/>
<path d="M11.6667 5.23071H5.62746C5.40006 5.23071 5.2157 5.41507 5.2157 5.64248C5.2157 5.86988 5.40006 6.05424 5.62746 6.05424H11.6667C11.8941 6.05424 12.0784 5.86988 12.0784 5.64248C12.0784 5.41507 11.8941 5.23071 11.6667 5.23071Z" fill="#070F21"/>
<path d="M5.34219 9.55149C5.18141 9.39071 4.92068 9.39071 4.75987 9.55149L3.12947 11.1819L2.59709 10.6495C2.43631 10.4887 2.17558 10.4887 2.01477 10.6495C1.85396 10.8103 1.85396 11.071 2.01477 11.2318L2.8383 12.0554C2.9187 12.1358 3.02409 12.176 3.12947 12.176C3.23486 12.176 3.34024 12.1358 3.42062 12.0554L5.34219 10.1338C5.50299 9.973 5.50299 9.71227 5.34219 9.55149V9.55149Z" fill="#070F21"/>
</g>
<defs>
<clipPath id="clip0_539_18736">
<rect width="14" height="14" fill="white" transform="translate(0 0.262207)"/>
</clipPath>
</defs>
</svg>
