<svg width="14" height="14" viewBox="0 0 14 14" fill="none" xmlns="http://www.w3.org/2000/svg">
<g opacity="0.6">
<path fill-rule="evenodd" clip-rule="evenodd" d="M6.58569 1.27271C4.94367 1.27271 3.61102 2.60578 3.61102 4.24737C3.61102 5.88896 4.94367 7.22203 6.58569 7.22203C8.22727 7.22203 9.56035 5.88896 9.56035 4.24737C9.56035 2.60578 8.22727 1.27271 6.58569 1.27271ZM6.58569 2.12261C7.75813 2.12261 8.71044 3.0745 8.71044 4.24737C8.71044 5.42023 7.75813 6.37213 6.58569 6.37213C5.41282 6.37213 4.46093 5.42023 4.46093 4.24737C4.46093 3.0745 5.41282 2.12261 6.58569 2.12261Z" fill="#070F21"/>
<path fill-rule="evenodd" clip-rule="evenodd" d="M1.48626 12.3215H6.74376C6.97833 12.3215 7.16871 12.5119 7.16871 12.7465C7.16871 12.9811 6.97833 13.1714 6.74376 13.1714H1.0613C0.826306 13.1714 0.636353 12.9811 0.636353 12.7465C0.636353 12.7465 0.636353 12.3959 0.636353 11.8966C0.636353 9.78415 2.34848 8.07202 4.46092 8.07202H6.74588C6.98046 8.07202 7.17083 8.2624 7.17083 8.49697C7.17083 8.73155 6.98046 8.92192 6.74588 8.92192H4.46092C2.81805 8.92192 1.48626 10.2537 1.48626 11.8966V12.3215Z" fill="#070F21"/>
<path fill-rule="evenodd" clip-rule="evenodd" d="M9.2582 8.96768L9.99124 7.55174C10.0643 7.41066 10.2101 7.32227 10.3686 7.32227C10.5275 7.32227 10.6733 7.41066 10.746 7.55174L11.4794 8.96768L13.0526 9.22775C13.2094 9.25367 13.3386 9.36458 13.3875 9.51544C13.4368 9.66672 13.3977 9.83246 13.2859 9.94549L12.1657 11.0805L12.405 12.6571C12.4288 12.8139 12.3629 12.9711 12.2346 13.0646C12.1062 13.1577 11.9362 13.1717 11.7943 13.1008L10.3686 12.386L8.94331 13.1008C8.80138 13.1717 8.6314 13.1577 8.50306 13.0646C8.37473 12.9711 8.30886 12.8139 8.33266 12.6571L8.57148 11.0805L7.45173 9.94549C7.33997 9.83246 7.30087 9.66672 7.34974 9.51544C7.39904 9.36458 7.52822 9.25367 7.68503 9.22775L9.2582 8.96768ZM10.3686 8.67106L9.91475 9.54774C9.85313 9.66672 9.73882 9.74959 9.60666 9.77169L8.6331 9.93232L9.32619 10.6352C9.42053 10.7304 9.46388 10.8647 9.44391 10.9972L9.29602 11.9729L10.1782 11.531C10.2981 11.4706 10.4396 11.4706 10.5594 11.531L11.4416 11.9729L11.2937 10.9972C11.2737 10.8647 11.3171 10.7304 11.4114 10.6352L12.1045 9.93232L11.131 9.77169C10.9984 9.74959 10.8845 9.66672 10.8229 9.54774L10.3686 8.67106Z" fill="#070F21"/>
</g>
</svg>
