<svg width="14" height="15" viewBox="0 0 14 15" fill="none" xmlns="http://www.w3.org/2000/svg">
<g opacity="0.5">
<path d="M3.41145 10.6957L4.23796 9.8674L4.23808 9.86728C4.3386 9.76688 4.47488 9.71052 4.61695 9.7106C4.75903 9.71068 4.89525 9.7672 4.99565 9.86772C5.09605 9.96824 5.15241 10.1045 5.15232 10.2466C5.15224 10.3887 5.09572 10.5249 4.9952 10.6253M3.41145 10.6957L4.92453 10.5545M3.41145 10.6957V3.28333C3.41145 3.14139 3.35506 3.00526 3.2547 2.9049C3.15433 2.80453 3.0182 2.74814 2.87626 2.74814C2.73432 2.74814 2.5982 2.80453 2.49783 2.9049C2.39746 3.00526 2.34108 3.14139 2.34108 3.28333V10.6952L1.51452 9.86807L1.51449 9.86804C1.46472 9.81828 1.40564 9.7788 1.34062 9.75187C1.2756 9.72493 1.20591 9.71107 1.13552 9.71107C1.06514 9.71107 0.995452 9.72493 0.93043 9.75187C0.865406 9.7788 0.806324 9.81828 0.756558 9.86804C0.706791 9.91781 0.667314 9.97689 0.640381 10.0419C0.613447 10.1069 0.599585 10.1766 0.599585 10.247C0.599585 10.3174 0.613447 10.3871 0.640381 10.4521C0.667314 10.5171 0.706791 10.5762 0.756558 10.626L0.756587 10.626L2.49733 12.3653L2.49721 12.3654L2.50157 12.3693L2.50643 12.3736L3.41145 10.6957ZM4.9952 10.6253L4.92453 10.5545M4.9952 10.6253L4.99524 10.6253L4.92453 10.5545M4.9952 10.6253L3.25485 12.3656L3.18379 12.2953M4.92453 10.5545L3.18379 12.2953M3.18379 12.2953L3.2545 12.366L3.25457 12.3659L3.18379 12.2953ZM6.58812 12.4815L6.62639 12.3891L6.58812 12.4815C6.65305 12.5084 6.72264 12.5222 6.79293 12.5222H7.66329C7.73358 12.5222 7.80317 12.5084 7.8681 12.4815L7.82983 12.3891L7.8681 12.4815C7.93303 12.4546 7.99203 12.4152 8.04173 12.3655C8.09142 12.3158 8.13085 12.2568 8.15774 12.1918C8.18464 12.1269 8.19848 12.0573 8.19848 11.987C8.19848 11.9167 8.18464 11.8471 8.15774 11.7822C8.13085 11.7173 8.09142 11.6583 8.04173 11.6086C7.99203 11.5589 7.93303 11.5195 7.8681 11.4926L7.82983 11.585L7.8681 11.4926C7.80317 11.4657 7.73358 11.4518 7.66329 11.4518H6.79293C6.72264 11.4518 6.65305 11.4657 6.58812 11.4926L6.62639 11.585L6.58812 11.4926C6.52319 11.5195 6.46419 11.5589 6.41449 11.6086C6.3648 11.6583 6.32538 11.7173 6.29848 11.7822C6.27158 11.8471 6.25774 11.9167 6.25774 11.987C6.25774 12.0573 6.27158 12.1269 6.29848 12.1918C6.32538 12.2568 6.3648 12.3158 6.41449 12.3655C6.46419 12.4152 6.52319 12.4546 6.58812 12.4815ZM6.41449 3.77527C6.31413 3.87563 6.25774 4.01176 6.25774 4.1537C6.25774 4.29564 6.31413 4.43176 6.41449 4.53213C6.51486 4.6325 6.65099 4.68888 6.79293 4.68888H12.8855C13.0275 4.68888 13.1636 4.6325 13.2639 4.53213C13.3643 4.43176 13.4207 4.29564 13.4207 4.1537C13.4207 4.01176 13.3643 3.87563 13.2639 3.77527C13.1636 3.6749 13.0275 3.61851 12.8855 3.61851H6.79293C6.65099 3.61851 6.51486 3.6749 6.41449 3.77527ZM6.79293 6.22962C6.65099 6.22962 6.51486 6.28601 6.41449 6.38637C6.31413 6.48674 6.25774 6.62287 6.25774 6.76481C6.25774 6.90675 6.31413 7.04287 6.41449 7.14324C6.51486 7.24361 6.65099 7.29999 6.79293 7.29999H11.1448C11.2867 7.29999 11.4228 7.24361 11.5232 7.14324C11.6236 7.04287 11.68 6.90675 11.68 6.76481C11.68 6.62287 11.6236 6.48674 11.5232 6.38637C11.4228 6.28601 11.2867 6.22962 11.1448 6.22962H6.79293ZM6.79293 8.84073C6.65099 8.84073 6.51486 8.89712 6.41449 8.99748C6.31413 9.09785 6.25774 9.23398 6.25774 9.37592C6.25774 9.51786 6.31413 9.65398 6.41449 9.75435C6.51486 9.85471 6.65099 9.9111 6.79293 9.9111H9.40403C9.54597 9.9111 9.6821 9.85471 9.78247 9.75435C9.88283 9.65398 9.93922 9.51785 9.93922 9.37592C9.93922 9.23398 9.88283 9.09785 9.78247 8.99748C9.6821 8.89712 9.54597 8.84073 9.40403 8.84073H6.79293Z" fill="#070F21" stroke="#070F21" stroke-width="0.2"/>
</g>
</svg>
