<svg width="14" height="15" viewBox="0 0 14 15" fill="none" xmlns="http://www.w3.org/2000/svg">
<g opacity="0.6">
<path d="M4.08331 4.73926H9.91665" stroke="#070F21" stroke-linecap="round" stroke-linejoin="round"/>
<path d="M4.08331 7.07227H6.41665" stroke="#070F21" stroke-linecap="round" stroke-linejoin="round"/>
<path d="M1.75 3.57243V12.785C1.75001 12.8427 1.76715 12.8991 1.79923 12.9471C1.83132 12.9951 1.87691 13.0324 1.93025 13.0545C1.98359 13.0765 2.04226 13.0823 2.09885 13.071C2.15545 13.0596 2.20741 13.0318 2.24817 12.9909L4.49575 10.7433C4.60512 10.6339 4.75347 10.5725 4.90817 10.5724H11.0833C11.3928 10.5724 11.6895 10.4495 11.9083 10.2307C12.1271 10.0119 12.25 9.71518 12.25 9.40576V3.57243C12.25 3.26301 12.1271 2.96626 11.9083 2.74747C11.6895 2.52868 11.3928 2.40576 11.0833 2.40576H2.91667C2.60725 2.40576 2.3105 2.52868 2.09171 2.74747C1.87292 2.96626 1.75 3.26301 1.75 3.57243V3.57243Z" stroke="#070F21" stroke-linecap="round" stroke-linejoin="round"/>
</g>
</svg>
