<svg width="18" height="19" viewBox="0 0 18 19" fill="none" xmlns="http://www.w3.org/2000/svg">
<g opacity="0.5">
<path fill-rule="evenodd" clip-rule="evenodd" d="M1.5 9.65576C1.5 9.25794 1.65804 8.87641 1.93934 8.5951C2.22064 8.3138 2.60218 8.15576 3 8.15576C3.39782 8.15576 3.77936 8.3138 4.06066 8.5951C4.34196 8.87641 4.5 9.25794 4.5 9.65576C4.5 10.0536 4.34196 10.4351 4.06066 10.7164C3.77936 10.9977 3.39782 11.1558 3 11.1558C2.60218 11.1558 2.22064 10.9977 1.93934 10.7164C1.65804 10.4351 1.5 10.0536 1.5 9.65576Z" fill="#070F21"/>
<path fill-rule="evenodd" clip-rule="evenodd" d="M7.5 9.65576C7.5 9.25794 7.65804 8.87641 7.93934 8.5951C8.22064 8.3138 8.60218 8.15576 9 8.15576C9.39782 8.15576 9.77936 8.3138 10.0607 8.5951C10.342 8.87641 10.5 9.25794 10.5 9.65576C10.5 10.0536 10.342 10.4351 10.0607 10.7164C9.77936 10.9977 9.39782 11.1558 9 11.1558C8.60218 11.1558 8.22064 10.9977 7.93934 10.7164C7.65804 10.4351 7.5 10.0536 7.5 9.65576Z" fill="#070F21"/>
<path fill-rule="evenodd" clip-rule="evenodd" d="M13.5 9.65576C13.5 9.25794 13.658 8.87641 13.9393 8.5951C14.2206 8.3138 14.6022 8.15576 15 8.15576C15.3978 8.15576 15.7794 8.3138 16.0607 8.5951C16.342 8.87641 16.5 9.25794 16.5 9.65576C16.5 10.0536 16.342 10.4351 16.0607 10.7164C15.7794 10.9977 15.3978 11.1558 15 11.1558C14.6022 11.1558 14.2206 10.9977 13.9393 10.7164C13.658 10.4351 13.5 10.0536 13.5 9.65576Z" fill="#070F21"/>
</g>
</svg>
