<svg width="14" height="15" viewBox="0 0 14 15" fill="none" xmlns="http://www.w3.org/2000/svg">
<g opacity="0.6" clip-path="url(#clip0_539_18734)">
<path d="M6.25877 12.121C7.20583 12.121 8.07054 11.9151 8.89407 11.4622L11.1176 13.6857C11.7352 14.3033 12.7647 14.3033 13.4235 13.6857C14.0823 13.068 14.0823 11.9975 13.4235 11.3798L11.2 9.15627C11.6117 8.37392 11.8588 7.46804 11.8588 6.52098C11.8588 3.47392 9.34701 0.962158 6.25877 0.962158C3.21172 0.962158 0.699951 3.47392 0.699951 6.52098C0.699951 9.60922 3.21172 12.121 6.25877 12.121ZM12.8058 11.9563C13.1352 12.2857 13.1352 12.7798 12.8058 13.1092C12.4764 13.4386 11.9823 13.4386 11.6529 13.1092L9.55289 11.0092C10.047 10.6386 10.3352 10.3504 10.7058 9.85628L12.8058 11.9563ZM6.25877 1.78569C8.89407 1.78569 10.9941 3.92686 10.9941 6.52098C10.9941 9.15628 8.85289 11.2563 6.25877 11.2563C3.66466 11.2975 1.52348 9.15628 1.52348 6.52098C1.52348 3.92686 3.66466 1.78569 6.25877 1.78569Z" fill="#070F21"/>
<path d="M3.78819 9.19745H8.72936C8.97642 9.19745 9.14113 9.03275 9.14113 8.78569V8.16804C9.14113 7.34451 8.4823 6.52098 7.94701 6.06804C8.07054 5.82098 8.11172 5.57392 8.11172 5.28569C8.11172 4.25628 7.28819 3.43275 6.25877 3.43275C5.22936 3.43275 4.40583 4.25628 4.40583 5.28569C4.40583 5.57392 4.48819 5.82098 4.57054 6.06804C3.95289 6.52098 3.37642 7.26216 3.37642 8.16804V8.78569C3.37642 9.03275 3.5823 9.19745 3.78819 9.19745ZM6.25877 4.25628C6.83525 4.25628 7.28819 4.70922 7.28819 5.28569C7.28819 5.86216 6.83525 6.3151 6.25877 6.3151C5.6823 6.3151 5.22936 5.86216 5.22936 5.28569C5.22936 4.70922 5.72348 4.25628 6.25877 4.25628ZM4.19995 8.16804C4.19995 7.59157 4.61172 7.05628 5.10583 6.72686C5.43525 6.97392 5.80583 7.13863 6.25877 7.13863C6.71172 7.13863 7.0823 6.97392 7.41172 6.72686C7.7823 7.0151 8.3176 7.67392 8.3176 8.16804V8.37392H4.19995V8.16804Z" fill="#070F21"/>
</g>
<defs>
<clipPath id="clip0_539_18734">
<rect width="14" height="14" fill="white" transform="translate(0 0.262207)"/>
</clipPath>
</defs>
</svg>
