<svg width="14" height="15" viewBox="0 0 14 15" fill="none" xmlns="http://www.w3.org/2000/svg">
<g opacity="0.6" clip-path="url(#clip0_539_11836)">
<path d="M6.25884 12.5148C7.20589 12.5148 8.0706 12.3089 8.89413 11.856L11.1177 14.0795C11.7353 14.6971 12.7647 14.6971 13.4235 14.0795C14.0824 13.4618 14.0824 12.3913 13.4235 11.7736L11.2 9.55007C11.6118 8.76772 11.8588 7.86184 11.8588 6.91478C11.8588 3.86772 9.34707 1.35596 6.25884 1.35596C3.21178 1.35596 0.700012 3.86772 0.700012 6.91478C0.700012 10.003 3.21178 12.5148 6.25884 12.5148ZM12.8059 12.3501C13.1353 12.6795 13.1353 13.1736 12.8059 13.503C12.4765 13.8324 11.9824 13.8324 11.653 13.503L9.55295 11.403C10.0471 11.0324 10.3353 10.7442 10.7059 10.2501L12.8059 12.3501ZM6.25884 2.17949C8.89413 2.17949 10.9941 4.32066 10.9941 6.91478C10.9941 9.55007 8.85295 11.6501 6.25884 11.6501C3.66472 11.6913 1.52354 9.55007 1.52354 6.91478C1.52354 4.32066 3.66472 2.17949 6.25884 2.17949Z" fill="#070F21"/>
<path d="M3.78825 9.59125H8.72942C8.97648 9.59125 9.14119 9.42655 9.14119 9.17949V8.56184C9.14119 7.73831 8.48237 6.91478 7.94707 6.46184C8.0706 6.21478 8.11178 5.96772 8.11178 5.67949C8.11178 4.65007 7.28825 3.82655 6.25884 3.82655C5.22942 3.82655 4.40589 4.65007 4.40589 5.67949C4.40589 5.96772 4.48825 6.21478 4.5706 6.46184C3.95295 6.91478 3.37648 7.65596 3.37648 8.56184V9.17949C3.37648 9.42655 3.58237 9.59125 3.78825 9.59125ZM6.25884 4.65007C6.83531 4.65007 7.28825 5.10302 7.28825 5.67949C7.28825 6.25596 6.83531 6.7089 6.25884 6.7089C5.68237 6.7089 5.22942 6.25596 5.22942 5.67949C5.22942 5.10302 5.72354 4.65007 6.25884 4.65007ZM4.20001 8.56184C4.20001 7.98537 4.61178 7.45007 5.10589 7.12066C5.43531 7.36772 5.80589 7.53243 6.25884 7.53243C6.71178 7.53243 7.08236 7.36772 7.41178 7.12066C7.78236 7.4089 8.31766 8.06772 8.31766 8.56184V8.76772H4.20001V8.56184Z" fill="#070F21"/>
</g>
<defs>
<clipPath id="clip0_539_11836">
<rect width="14" height="14" fill="white" transform="translate(0 0.655762)"/>
</clipPath>
</defs>
</svg>
