<svg width="14" height="14" viewBox="0 0 14 14" fill="none" xmlns="http://www.w3.org/2000/svg">
<g opacity="0.6" clip-path="url(#clip0_539_14483)">
<path d="M6.25902 11.859C7.20608 11.859 8.07078 11.6531 8.89431 11.2002L11.1178 13.4237C11.7355 14.0414 12.7649 14.0414 13.4237 13.4237C14.0825 12.8061 14.0825 11.7355 13.4237 11.1178L11.2002 8.89431C11.612 8.11196 11.859 7.20608 11.859 6.25902C11.859 3.21196 9.34725 0.700195 6.25902 0.700195C3.21196 0.700195 0.700195 3.21196 0.700195 6.25902C0.700195 9.34725 3.21196 11.859 6.25902 11.859ZM12.8061 11.6943C13.1355 12.0237 13.1355 12.5178 12.8061 12.8473C12.4767 13.1767 11.9825 13.1767 11.6531 12.8473L9.55314 10.7473C10.0473 10.3767 10.3355 10.0884 10.7061 9.59431L12.8061 11.6943ZM6.25902 1.52372C8.89431 1.52372 10.9943 3.6649 10.9943 6.25902C10.9943 8.89431 8.85314 10.9943 6.25902 10.9943C3.6649 11.0355 1.52372 8.89431 1.52372 6.25902C1.52372 3.6649 3.6649 1.52372 6.25902 1.52372Z" fill="#070F21"/>
<path d="M3.78843 8.93549H8.72961C8.97667 8.93549 9.14137 8.77078 9.14137 8.52372V7.90608C9.14137 7.08255 8.48255 6.25902 7.94725 5.80608C8.07078 5.55902 8.11196 5.31196 8.11196 5.02372C8.11196 3.99431 7.28843 3.17078 6.25902 3.17078C5.22961 3.17078 4.40608 3.99431 4.40608 5.02372C4.40608 5.31196 4.48843 5.55902 4.57078 5.80608C3.95314 6.25902 3.37667 7.0002 3.37667 7.90608V8.52372C3.37667 8.77078 3.58255 8.93549 3.78843 8.93549ZM6.25902 3.99431C6.83549 3.99431 7.28843 4.44725 7.28843 5.02372C7.28843 5.6002 6.83549 6.05314 6.25902 6.05314C5.68255 6.05314 5.22961 5.6002 5.22961 5.02372C5.22961 4.44725 5.72372 3.99431 6.25902 3.99431ZM4.2002 7.90608C4.2002 7.32961 4.61196 6.79431 5.10608 6.4649C5.43549 6.71196 5.80608 6.87667 6.25902 6.87667C6.71196 6.87667 7.08255 6.71196 7.41196 6.4649C7.78255 6.75314 8.31784 7.41196 8.31784 7.90608V8.11196H4.2002V7.90608Z" fill="#070F21"/>
</g>
<defs>
<clipPath id="clip0_539_14483">
<rect width="14" height="14" fill="white"/>
</clipPath>
</defs>
</svg>
