<svg width="14" height="14" viewBox="0 0 14 14" fill="none" xmlns="http://www.w3.org/2000/svg">
<g opacity="0.5">
<path d="M3.41133 10.0399L4.23784 9.21163L4.23796 9.21151C4.33847 9.11111 4.47476 9.05476 4.61683 9.05484C4.7589 9.05492 4.89512 9.11144 4.99553 9.21196C5.09593 9.31248 5.15228 9.44877 5.1522 9.59084C5.15212 9.73291 5.0956 9.86913 4.99508 9.96953M3.41133 10.0399L4.92441 9.89878M3.41133 10.0399V2.62757C3.41133 2.48563 3.35494 2.3495 3.25457 2.24913C3.15421 2.14877 3.01808 2.09238 2.87614 2.09238C2.7342 2.09238 2.59808 2.14877 2.49771 2.24913C2.39734 2.3495 2.34096 2.48563 2.34096 2.62757V10.0395L1.51439 9.21231L1.51437 9.21228C1.4646 9.16251 1.40552 9.12304 1.3405 9.0961C1.27547 9.06917 1.20578 9.05531 1.1354 9.05531C1.06502 9.05531 0.99533 9.06917 0.930307 9.0961C0.865284 9.12304 0.806202 9.16251 0.756436 9.21228C0.706669 9.26205 0.667192 9.32113 0.640259 9.38615C0.613325 9.45118 0.599463 9.52087 0.599463 9.59125C0.599463 9.66163 0.613325 9.73132 0.640259 9.79634C0.667192 9.86137 0.706669 9.92045 0.756436 9.97021L0.756465 9.97024L2.4972 11.7095L2.49708 11.7097L2.50145 11.7135L2.50631 11.7179L3.41133 10.0399ZM4.99508 9.96953L4.92441 9.89878M4.99508 9.96953L4.99512 9.96949L4.92441 9.89878M4.99508 9.96953L3.25473 11.7099L3.18367 11.6395M4.92441 9.89878L3.18367 11.6395M3.18367 11.6395L3.25438 11.7102L3.25445 11.7102L3.18367 11.6395ZM6.588 11.8257L6.62627 11.7333L6.588 11.8257C6.65293 11.8526 6.72252 11.8664 6.7928 11.8664H7.66317C7.73345 11.8664 7.80305 11.8526 7.86798 11.8257L7.82971 11.7333L7.86798 11.8257C7.93291 11.7988 7.99191 11.7594 8.04161 11.7097C8.0913 11.66 8.13072 11.601 8.15762 11.5361C8.18451 11.4711 8.19836 11.4015 8.19836 11.3313C8.19836 11.261 8.18451 11.1914 8.15762 11.1265C8.13072 11.0615 8.0913 11.0025 8.04161 10.9528C7.99191 10.9031 7.93291 10.8637 7.86798 10.8368L7.82971 10.9292L7.86798 10.8368C7.80305 10.8099 7.73345 10.7961 7.66317 10.7961H6.7928C6.72252 10.7961 6.65293 10.8099 6.588 10.8368L6.62627 10.9292L6.588 10.8368C6.52306 10.8637 6.46407 10.9031 6.41437 10.9528C6.36467 11.0025 6.32525 11.0615 6.29836 11.1265C6.27146 11.1914 6.25762 11.261 6.25762 11.3313C6.25762 11.4015 6.27146 11.4711 6.29836 11.5361C6.32525 11.601 6.36467 11.66 6.41437 11.7097C6.46407 11.7594 6.52307 11.7988 6.588 11.8257ZM6.41437 3.1195C6.314 3.21987 6.25762 3.356 6.25762 3.49794C6.25762 3.63988 6.314 3.776 6.41437 3.87637C6.51474 3.97674 6.65086 4.03312 6.7928 4.03312H12.8854C13.0273 4.03312 13.1635 3.97674 13.2638 3.87637C13.3642 3.776 13.4206 3.63988 13.4206 3.49794C13.4206 3.356 13.3642 3.21987 13.2638 3.1195C13.1635 3.01914 13.0273 2.96275 12.8854 2.96275H6.7928C6.65086 2.96275 6.51474 3.01914 6.41437 3.1195ZM6.7928 5.57386C6.65086 5.57386 6.51474 5.63025 6.41437 5.73061C6.314 5.83098 6.25762 5.96711 6.25762 6.10905C6.25762 6.25099 6.314 6.38711 6.41437 6.48748C6.51474 6.58784 6.65086 6.64423 6.7928 6.64423H11.1446C11.2866 6.64423 11.4227 6.58784 11.5231 6.48748C11.6234 6.38711 11.6798 6.25099 11.6798 6.10905C11.6798 5.96711 11.6234 5.83098 11.5231 5.73061C11.4227 5.63025 11.2866 5.57386 11.1446 5.57386H6.7928ZM6.7928 8.18497C6.65086 8.18497 6.51474 8.24135 6.41437 8.34172C6.314 8.44209 6.25762 8.57821 6.25762 8.72015C6.25762 8.86209 6.314 8.99822 6.41437 9.09859C6.51474 9.19895 6.65086 9.25534 6.7928 9.25534H9.40391C9.54585 9.25534 9.68198 9.19895 9.78234 9.09859C9.88271 8.99822 9.9391 8.86209 9.9391 8.72015C9.9391 8.57821 9.88271 8.44209 9.78234 8.34172C9.68198 8.24135 9.54585 8.18497 9.40391 8.18497H6.7928Z" fill="#070F21" stroke="#070F21" stroke-width="0.2"/>
</g>
</svg>
