<svg width="22" height="22" viewBox="0 0 22 22" fill="none" xmlns="http://www.w3.org/2000/svg">
<path d="M11.6608 4.58626L10.317 4.58351C7.25167 4.57618 4.59058 7.06676 4.5695 10.0835V13.5577C4.5695 14.2818 4.47783 14.9886 4.08275 15.5908L3.81967 15.9923C3.41908 16.601 3.84992 17.4168 4.5695 17.4168H17.4303C18.1499 17.4168 18.5798 16.601 18.1802 15.9923L17.9171 15.5908C17.5229 14.9886 17.4303 14.2809 17.4303 13.5568V10.0844C17.3937 7.06676 14.7262 4.5936 11.6608 4.58626V4.58626Z" stroke="#070F21" stroke-width="1.5" stroke-linecap="round" stroke-linejoin="round"/>
<path d="M13.75 17.4165C13.75 18.1458 13.4603 18.8453 12.9445 19.361C12.4288 19.8768 11.7293 20.1665 11 20.1665C10.2707 20.1665 9.57118 19.8768 9.05546 19.361C8.53973 18.8453 8.25 18.1458 8.25 17.4165" stroke="#070F21" stroke-width="1.5" stroke-linecap="round" stroke-linejoin="round"/>
<path d="M11.0001 1.8335C11.4863 1.8335 11.9526 2.02665 12.2964 2.37047C12.6403 2.71428 12.8334 3.1806 12.8334 3.66683V4.5835H9.16675V3.66683C9.16675 3.1806 9.3599 2.71428 9.70372 2.37047C10.0475 2.02665 10.5139 1.8335 11.0001 1.8335Z" stroke="#070F21" stroke-width="1.5" stroke-linecap="round" stroke-linejoin="round"/>
</svg>
