<svg width="4" height="14" viewBox="0 0 4 14" fill="none" xmlns="http://www.w3.org/2000/svg">
<g opacity="0.6">
<path fill-rule="evenodd" clip-rule="evenodd" d="M6.58562 1.27295C4.94361 1.27295 3.61096 2.60602 3.61096 4.24761C3.61096 5.8892 4.94361 7.22227 6.58562 7.22227C8.22721 7.22227 9.56029 5.8892 9.56029 4.24761C9.56029 2.60602 8.22721 1.27295 6.58562 1.27295ZM6.58562 2.12285C7.75807 2.12285 8.71038 3.07474 8.71038 4.24761C8.71038 5.42048 7.75807 6.37237 6.58562 6.37237C5.41276 6.37237 4.46087 5.42048 4.46087 4.24761C4.46087 3.07474 5.41276 2.12285 6.58562 2.12285Z" fill="#070F21"/>
<path fill-rule="evenodd" clip-rule="evenodd" d="M1.48626 12.3218H6.74376C6.97833 12.3218 7.16871 12.5122 7.16871 12.7467C7.16871 12.9813 6.97833 13.1717 6.74376 13.1717H1.0613C0.826306 13.1717 0.636353 12.9813 0.636353 12.7467C0.636353 12.7467 0.636353 12.3961 0.636353 11.8968C0.636353 9.7844 2.34848 8.07227 4.46092 8.07227H6.74588C6.98046 8.07227 7.17083 8.26264 7.17083 8.49722C7.17083 8.73179 6.98046 8.92217 6.74588 8.92217H4.46092C2.81805 8.92217 1.48626 10.254 1.48626 11.8968V12.3218Z" fill="#070F21"/>
</g>
</svg>
