<svg width="14" height="15" viewBox="0 0 14 15" fill="none" xmlns="http://www.w3.org/2000/svg">
<g opacity="0.6" clip-path="url(#clip0_539_12867)">
<path d="M13.8794 3.49419L11.1344 0.749038C11.0572 0.671791 10.9524 0.628418 10.8432 0.628418H4.52941C3.84827 0.628418 3.29412 1.18257 3.29412 1.86371V7.29456C1.44376 7.50006 0 9.07319 0 10.9774C0 13.0209 1.66246 14.6833 3.70588 14.6833H12.7647C13.4458 14.6833 14 14.1292 14 13.448V3.78536C14 3.67614 13.9566 3.57144 13.8794 3.49419ZM11.2549 2.03427L12.1495 2.92892L12.5941 3.37352H11.2549V2.03427ZM0.823529 10.9774C0.823529 9.38811 2.11655 8.09508 3.70588 8.09508C5.29521 8.09508 6.58824 9.38811 6.58824 10.9774C6.58824 12.5668 5.29521 13.8598 3.70588 13.8598C2.11655 13.8598 0.823529 12.5668 0.823529 10.9774ZM12.7647 13.8598H6.03233C6.77249 13.2612 7.2783 12.3841 7.38879 11.3892H11.6667C11.8941 11.3892 12.0784 11.2048 12.0784 10.9774C12.0784 10.75 11.8941 10.5657 11.6667 10.5657H7.38876C7.32162 9.9612 7.10865 9.40013 6.78572 8.91861H11.6667C11.8941 8.91861 12.0784 8.73425 12.0784 8.50685C12.0784 8.27945 11.8941 8.09508 11.6667 8.09508H6.03233C5.49645 7.66174 4.83791 7.37455 4.11765 7.29456V1.86371C4.11765 1.63666 4.30236 1.45195 4.52941 1.45195H10.4314V3.78528C10.4314 4.01268 10.6157 4.19705 10.8431 4.19705H13.1765V13.448C13.1765 13.6751 12.9918 13.8598 12.7647 13.8598Z" fill="#070F21"/>
<path d="M11.6667 5.62451H5.62746C5.40006 5.62451 5.2157 5.80887 5.2157 6.03628C5.2157 6.26368 5.40006 6.44804 5.62746 6.44804H11.6667C11.8941 6.44804 12.0784 6.26368 12.0784 6.03628C12.0784 5.80887 11.8941 5.62451 11.6667 5.62451Z" fill="#070F21"/>
<path d="M5.34213 9.9448C5.18135 9.78402 4.92062 9.78402 4.75981 9.9448L3.12941 11.5752L2.59703 11.0428C2.43625 10.882 2.17552 10.882 2.01471 11.0428C1.8539 11.2036 1.8539 11.4643 2.01471 11.6251L2.83824 12.4487C2.91864 12.5291 3.02403 12.5693 3.12941 12.5693C3.2348 12.5693 3.34018 12.5291 3.42056 12.4487L5.34213 10.5271C5.50293 10.3663 5.50293 10.1056 5.34213 9.9448Z" fill="#070F21"/>
</g>
<defs>
<clipPath id="clip0_539_12867">
<rect width="14" height="14" fill="white" transform="translate(0 0.655762)"/>
</clipPath>
</defs>
</svg>
