<svg width="14" height="14" viewBox="0 0 14 14" fill="none" xmlns="http://www.w3.org/2000/svg">
<g opacity="0.6" clip-path="url(#clip0_539_11871)">
<path d="M6.25902 11.8588C7.20608 11.8588 8.07078 11.6529 8.89431 11.2L11.1178 13.4235C11.7355 14.0411 12.7649 14.0411 13.4237 13.4235C14.0825 12.8058 14.0825 11.7352 13.4237 11.1176L11.2002 8.89407C11.612 8.11171 11.859 7.20583 11.859 6.25877C11.859 3.21172 9.34725 0.699951 6.25902 0.699951C3.21196 0.699951 0.700195 3.21172 0.700195 6.25877C0.700195 9.34701 3.21196 11.8588 6.25902 11.8588ZM12.8061 11.6941C13.1355 12.0235 13.1355 12.5176 12.8061 12.847C12.4767 13.1764 11.9825 13.1764 11.6531 12.847L9.55314 10.747C10.0473 10.3764 10.3355 10.0882 10.7061 9.59407L12.8061 11.6941ZM6.25902 1.52348C8.89431 1.52348 10.9943 3.66466 10.9943 6.25877C10.9943 8.89407 8.85314 10.9941 6.25902 10.9941C3.6649 11.0352 1.52372 8.89407 1.52372 6.25877C1.52372 3.66466 3.6649 1.52348 6.25902 1.52348Z" fill="#070F21"/>
<path d="M3.78843 8.93525H8.72961C8.97667 8.93525 9.14137 8.77054 9.14137 8.52348V7.90583C9.14137 7.0823 8.48255 6.25877 7.94725 5.80583C8.07078 5.55877 8.11196 5.31172 8.11196 5.02348C8.11196 3.99407 7.28843 3.17054 6.25902 3.17054C5.22961 3.17054 4.40608 3.99407 4.40608 5.02348C4.40608 5.31172 4.48843 5.55877 4.57078 5.80583C3.95314 6.25877 3.37667 6.99995 3.37667 7.90583V8.52348C3.37667 8.77054 3.58255 8.93525 3.78843 8.93525ZM6.25902 3.99407C6.83549 3.99407 7.28843 4.44701 7.28843 5.02348C7.28843 5.59995 6.83549 6.05289 6.25902 6.05289C5.68255 6.05289 5.22961 5.59995 5.22961 5.02348C5.22961 4.44701 5.72372 3.99407 6.25902 3.99407ZM4.2002 7.90583C4.2002 7.32936 4.61196 6.79407 5.10608 6.46466C5.43549 6.71172 5.80608 6.87642 6.25902 6.87642C6.71196 6.87642 7.08255 6.71172 7.41196 6.46466C7.78255 6.75289 8.31784 7.41172 8.31784 7.90583V8.11172H4.2002V7.90583Z" fill="#070F21"/>
</g>
<defs>
<clipPath id="clip0_539_11871">
<rect width="14" height="14" fill="white"/>
</clipPath>
</defs>
</svg>
