<svg width="14" height="14" viewBox="0 0 14 14" fill="none" xmlns="http://www.w3.org/2000/svg">
<g opacity="0.6" clip-path="url(#clip0_539_11072)">
<path d="M6.25877 11.8588C7.20583 11.8588 8.07054 11.653 8.89407 11.2L11.1176 13.4235C11.7352 14.0412 12.7647 14.0412 13.4235 13.4235C14.0823 12.8059 14.0823 11.7353 13.4235 11.1177L11.2 8.89413C11.6117 8.11178 11.8588 7.20589 11.8588 6.25884C11.8588 3.21178 9.34701 0.700012 6.25877 0.700012C3.21172 0.700012 0.699951 3.21178 0.699951 6.25884C0.699951 9.34707 3.21172 11.8588 6.25877 11.8588ZM12.8058 11.6941C13.1352 12.0235 13.1352 12.5177 12.8058 12.8471C12.4764 13.1765 11.9823 13.1765 11.6529 12.8471L9.55289 10.7471C10.047 10.3765 10.3352 10.0882 10.7058 9.59413L12.8058 11.6941ZM6.25877 1.52354C8.89407 1.52354 10.9941 3.66472 10.9941 6.25884C10.9941 8.89413 8.85289 10.9941 6.25877 10.9941C3.66466 11.0353 1.52348 8.89413 1.52348 6.25884C1.52348 3.66472 3.66466 1.52354 6.25877 1.52354Z" fill="#070F21"/>
<path d="M3.78819 8.93531H8.72936C8.97642 8.93531 9.14113 8.7706 9.14113 8.52354V7.90589C9.14113 7.08237 8.4823 6.25884 7.94701 5.80589C8.07054 5.55884 8.11172 5.31178 8.11172 5.02354C8.11172 3.99413 7.28819 3.1706 6.25877 3.1706C5.22936 3.1706 4.40583 3.99413 4.40583 5.02354C4.40583 5.31178 4.48819 5.55884 4.57054 5.80589C3.95289 6.25884 3.37642 7.00001 3.37642 7.90589V8.52354C3.37642 8.7706 3.5823 8.93531 3.78819 8.93531ZM6.25877 3.99413C6.83525 3.99413 7.28819 4.44707 7.28819 5.02354C7.28819 5.60001 6.83525 6.05295 6.25877 6.05295C5.6823 6.05295 5.22936 5.60001 5.22936 5.02354C5.22936 4.44707 5.72348 3.99413 6.25877 3.99413ZM4.19995 7.90589C4.19995 7.32942 4.61172 6.79413 5.10583 6.46472C5.43525 6.71178 5.80583 6.87648 6.25877 6.87648C6.71172 6.87648 7.0823 6.71178 7.41172 6.46472C7.7823 6.75295 8.3176 7.41178 8.3176 7.90589V8.11178H4.19995V7.90589Z" fill="#070F21"/>
</g>
<defs>
<clipPath id="clip0_539_11072">
<rect width="14" height="14" fill="white"/>
</clipPath>
</defs>
</svg>
