<svg width="14" height="15" viewBox="0 0 14 15" fill="none" xmlns="http://www.w3.org/2000/svg">
<g opacity="0.6" clip-path="url(#clip0_539_9616)">
<path d="M13.8794 3.70708L11.1344 0.961928C11.0572 0.884681 10.9524 0.841309 10.8432 0.841309H4.52941C3.84827 0.841309 3.29412 1.39546 3.29412 2.0766V7.50745C1.44376 7.71295 0 9.28608 0 11.1903C0 13.2338 1.66246 14.8962 3.70588 14.8962H12.7647C13.4458 14.8962 14 14.3421 14 13.6609V3.99825C14 3.88903 13.9566 3.78433 13.8794 3.70708V3.70708ZM11.2549 2.24716L12.1495 3.14181L12.5941 3.58641H11.2549V2.24716ZM0.823529 11.1903C0.823529 9.601 2.11655 8.30798 3.70588 8.30798C5.29521 8.30798 6.58824 9.601 6.58824 11.1903C6.58824 12.7797 5.29521 14.0727 3.70588 14.0727C2.11655 14.0727 0.823529 12.7797 0.823529 11.1903ZM12.7647 14.0727H6.03233C6.77249 13.4741 7.2783 12.5969 7.38879 11.6021H11.6667C11.8941 11.6021 12.0784 11.4177 12.0784 11.1903C12.0784 10.9629 11.8941 10.7786 11.6667 10.7786H7.38876C7.32162 10.1741 7.10865 9.61302 6.78572 9.1315H11.6667C11.8941 9.1315 12.0784 8.94714 12.0784 8.71974C12.0784 8.49234 11.8941 8.30798 11.6667 8.30798H6.03233C5.49645 7.87463 4.83791 7.58744 4.11765 7.50745V2.0766C4.11765 1.84956 4.30236 1.66484 4.52941 1.66484H10.4314V3.99817C10.4314 4.22558 10.6157 4.40994 10.8431 4.40994H13.1765V13.6609C13.1765 13.888 12.9918 14.0727 12.7647 14.0727V14.0727Z" fill="#070F21"/>
<path d="M11.6667 5.83716H5.62746C5.40006 5.83716 5.2157 6.02152 5.2157 6.24892C5.2157 6.47633 5.40006 6.66069 5.62746 6.66069H11.6667C11.8941 6.66069 12.0784 6.47633 12.0784 6.24892C12.0784 6.02152 11.8941 5.83716 11.6667 5.83716Z" fill="#070F21"/>
<path d="M5.34219 10.1579C5.18141 9.99716 4.92068 9.99716 4.75987 10.1579L3.12947 11.7883L2.59709 11.256C2.43631 11.0952 2.17558 11.0952 2.01477 11.256C1.85396 11.4167 1.85396 11.6775 2.01477 11.8383L2.8383 12.6618C2.9187 12.7422 3.02409 12.7824 3.12947 12.7824C3.23486 12.7824 3.34024 12.7422 3.42062 12.6618L5.34219 10.7402C5.50299 10.5794 5.50299 10.3187 5.34219 10.1579V10.1579Z" fill="#070F21"/>
</g>
<defs>
<clipPath id="clip0_539_9616">
<rect width="14" height="14" fill="white" transform="translate(0 0.868652)"/>
</clipPath>
</defs>
</svg>
