<svg width="14" height="15" viewBox="0 0 14 15" fill="none" xmlns="http://www.w3.org/2000/svg">
<g opacity="0.6" clip-path="url(#clip0_539_6609)">
<path d="M6.25877 11.9899C7.20583 11.9899 8.07054 11.784 8.89407 11.3311L11.1176 13.5546C11.7352 14.1722 12.7647 14.1722 13.4235 13.5546C14.0823 12.9369 14.0823 11.8663 13.4235 11.2487L11.2 9.02517C11.6117 8.24282 11.8588 7.33694 11.8588 6.38988C11.8588 3.34282 9.34701 0.831055 6.25877 0.831055C3.21172 0.831055 0.699951 3.34282 0.699951 6.38988C0.699951 9.47811 3.21172 11.9899 6.25877 11.9899ZM12.8058 11.8252C13.1352 12.1546 13.1352 12.6487 12.8058 12.9781C12.4764 13.3075 11.9823 13.3075 11.6529 12.9781L9.55289 10.8781C10.047 10.5075 10.3352 10.2193 10.7058 9.72517L12.8058 11.8252ZM6.25877 1.65458C8.89407 1.65458 10.9941 3.79576 10.9941 6.38988C10.9941 9.02517 8.85289 11.1252 6.25877 11.1252C3.66466 11.1663 1.52348 9.02517 1.52348 6.38988C1.52348 3.79576 3.66466 1.65458 6.25877 1.65458Z" fill="#070F21"/>
<path d="M3.78819 9.06635H8.72936C8.97642 9.06635 9.14113 8.90164 9.14113 8.65458V8.03694C9.14113 7.21341 8.4823 6.38988 7.94701 5.93694C8.07054 5.68988 8.11172 5.44282 8.11172 5.15458C8.11172 4.12517 7.28819 3.30164 6.25877 3.30164C5.22936 3.30164 4.40583 4.12517 4.40583 5.15458C4.40583 5.44282 4.48819 5.68988 4.57054 5.93694C3.95289 6.38988 3.37642 7.13105 3.37642 8.03694V8.65458C3.37642 8.90164 3.5823 9.06635 3.78819 9.06635ZM6.25877 4.12517C6.83525 4.12517 7.28819 4.57811 7.28819 5.15458C7.28819 5.73105 6.83525 6.184 6.25877 6.184C5.6823 6.184 5.22936 5.73105 5.22936 5.15458C5.22936 4.57811 5.72348 4.12517 6.25877 4.12517ZM4.19995 8.03694C4.19995 7.46047 4.61172 6.92517 5.10583 6.59576C5.43525 6.84282 5.80583 7.00753 6.25877 7.00753C6.71172 7.00753 7.0823 6.84282 7.41172 6.59576C7.7823 6.884 8.3176 7.54282 8.3176 8.03694V8.24282H4.19995V8.03694Z" fill="#070F21"/>
</g>
<defs>
<clipPath id="clip0_539_6609">
<rect width="14" height="14" fill="white" transform="translate(0 0.131104)"/>
</clipPath>
</defs>
</svg>
