<svg width="14" height="14" viewBox="0 0 14 14" fill="none" xmlns="http://www.w3.org/2000/svg">
<g opacity="0.5">
<path d="M3.41145 10.0399L4.23796 9.21163L4.23808 9.21151C4.3386 9.11111 4.47488 9.05476 4.61695 9.05484C4.75903 9.05492 4.89525 9.11144 4.99565 9.21196C5.09605 9.31248 5.15241 9.44877 5.15232 9.59084C5.15224 9.73291 5.09572 9.86913 4.9952 9.96953M3.41145 10.0399L4.92453 9.89878M3.41145 10.0399V2.62757C3.41145 2.48563 3.35506 2.3495 3.2547 2.24913C3.15433 2.14877 3.0182 2.09238 2.87626 2.09238C2.73432 2.09238 2.5982 2.14877 2.49783 2.24913C2.39746 2.3495 2.34108 2.48563 2.34108 2.62757V10.0395L1.51452 9.21231L1.51449 9.21228C1.46472 9.16251 1.40564 9.12304 1.34062 9.0961C1.2756 9.06917 1.20591 9.05531 1.13552 9.05531C1.06514 9.05531 0.995452 9.06917 0.93043 9.0961C0.865406 9.12304 0.806324 9.16251 0.756558 9.21228C0.706791 9.26205 0.667314 9.32113 0.640381 9.38615C0.613447 9.45118 0.599585 9.52087 0.599585 9.59125C0.599585 9.66163 0.613447 9.73132 0.640381 9.79634C0.667314 9.86137 0.706791 9.92045 0.756558 9.97021L0.756587 9.97024L2.49733 11.7095L2.49721 11.7097L2.50157 11.7135L2.50643 11.7179L3.41145 10.0399ZM4.9952 9.96953L4.92453 9.89878M4.9952 9.96953L4.99524 9.96949L4.92453 9.89878M4.9952 9.96953L3.25485 11.7099L3.18379 11.6395M4.92453 9.89878L3.18379 11.6395M3.18379 11.6395L3.2545 11.7102L3.25457 11.7102L3.18379 11.6395ZM6.58812 11.8257L6.62639 11.7333L6.58812 11.8257C6.65305 11.8526 6.72264 11.8664 6.79293 11.8664H7.66329C7.73358 11.8664 7.80317 11.8526 7.8681 11.8257L7.82983 11.7333L7.8681 11.8257C7.93303 11.7988 7.99203 11.7594 8.04173 11.7097C8.09142 11.66 8.13085 11.601 8.15774 11.5361C8.18464 11.4711 8.19848 11.4015 8.19848 11.3313C8.19848 11.261 8.18464 11.1914 8.15774 11.1265C8.13085 11.0615 8.09142 11.0025 8.04173 10.9528C7.99203 10.9031 7.93303 10.8637 7.8681 10.8368L7.82983 10.9292L7.8681 10.8368C7.80317 10.8099 7.73358 10.7961 7.66329 10.7961H6.79293C6.72264 10.7961 6.65305 10.8099 6.58812 10.8368L6.62639 10.9292L6.58812 10.8368C6.52319 10.8637 6.46419 10.9031 6.41449 10.9528C6.3648 11.0025 6.32538 11.0615 6.29848 11.1265C6.27158 11.1914 6.25774 11.261 6.25774 11.3313C6.25774 11.4015 6.27158 11.4711 6.29848 11.5361C6.32538 11.601 6.3648 11.66 6.41449 11.7097C6.46419 11.7594 6.52319 11.7988 6.58812 11.8257ZM6.41449 3.1195C6.31413 3.21987 6.25774 3.356 6.25774 3.49794C6.25774 3.63988 6.31413 3.776 6.41449 3.87637C6.51486 3.97674 6.65099 4.03312 6.79293 4.03312H12.8855C13.0275 4.03312 13.1636 3.97674 13.2639 3.87637C13.3643 3.776 13.4207 3.63988 13.4207 3.49794C13.4207 3.356 13.3643 3.21987 13.2639 3.1195C13.1636 3.01914 13.0275 2.96275 12.8855 2.96275H6.79293C6.65099 2.96275 6.51486 3.01914 6.41449 3.1195ZM6.79293 5.57386C6.65099 5.57386 6.51486 5.63025 6.41449 5.73061C6.31413 5.83098 6.25774 5.96711 6.25774 6.10905C6.25774 6.25099 6.31413 6.38711 6.41449 6.48748C6.51486 6.58784 6.65099 6.64423 6.79293 6.64423H11.1448C11.2867 6.64423 11.4228 6.58784 11.5232 6.48748C11.6236 6.38711 11.68 6.25099 11.68 6.10905C11.68 5.96711 11.6236 5.83098 11.5232 5.73061C11.4228 5.63025 11.2867 5.57386 11.1448 5.57386H6.79293ZM6.79293 8.18497C6.65099 8.18497 6.51486 8.24135 6.41449 8.34172C6.31413 8.44209 6.25774 8.57821 6.25774 8.72015C6.25774 8.86209 6.31413 8.99822 6.41449 9.09859C6.51486 9.19895 6.65099 9.25534 6.79293 9.25534H9.40403C9.54597 9.25534 9.6821 9.19895 9.78247 9.09859C9.88283 8.99822 9.93922 8.86209 9.93922 8.72015C9.93922 8.57821 9.88283 8.44209 9.78247 8.34172C9.6821 8.24135 9.54597 8.18497 9.40403 8.18497H6.79293Z" fill="#070F21" stroke="#070F21" stroke-width="0.2"/>
</g>
</svg>
