<svg width="16" height="16" viewBox="0 0 16 16" fill="none" xmlns="http://www.w3.org/2000/svg">
<g opacity="0.7" clip-path="url(#clip0_2_1238)">
<path d="M12.706 0.666504H2.38538C1.43766 0.666504 0.666626 1.43754 0.666626 2.38525V13.6144C0.666626 14.5621 1.43766 15.3332 2.38538 15.3332H13.6145C14.5623 15.3332 15.3333 14.5621 15.3333 13.6144V3.29379L12.706 0.666504ZM5.16402 1.81234H8.57288V3.98942H9.71871V1.81234H10.8645V4.56234C10.8645 4.87824 10.6075 5.13525 10.2916 5.13525H5.73694C5.42103 5.13525 5.16402 4.87824 5.16402 4.56234V1.81234ZM12.0104 14.1873H4.01819V9.81234C4.01819 9.49643 4.2752 9.23942 4.5911 9.23942H11.4375C11.7534 9.23942 12.0104 9.49643 12.0104 9.81234V14.1873ZM14.1875 13.6144C14.1875 13.9303 13.9304 14.1873 13.6145 14.1873H13.1562V9.81234C13.1562 8.86462 12.3852 8.09359 11.4375 8.09359H4.5911C3.64339 8.09359 2.87235 8.86462 2.87235 9.81234V14.1873H2.38538C2.06947 14.1873 1.81246 13.9303 1.81246 13.6144V2.38525C1.81246 2.06935 2.06947 1.81234 2.38538 1.81234H4.01819V4.56234C4.01819 5.51006 4.78922 6.28109 5.73694 6.28109H10.2916C11.2393 6.28109 12.0104 5.51006 12.0104 4.56234V1.81234H12.2314L14.1875 3.76839V13.6144Z" fill="#070F21"/>
</g>
<defs>
<clipPath id="clip0_2_1238">
<rect width="16" height="16" fill="white"/>
</clipPath>
</defs>
</svg>
