<svg width="18" height="18" viewBox="0 0 18 18" fill="none" xmlns="http://www.w3.org/2000/svg">
<g opacity="0.8">
<path d="M15.7139 7.09851L9.7493 1.13388C9.13269 0.51724 8.12927 0.517205 7.51259 1.13388C6.95825 1.68819 6.91051 2.53359 7.31987 3.13725L7.31157 3.17877C6.88154 5.3291 5.83462 7.28533 4.28392 8.836L1.5481 11.5718C0.929983 12.19 0.929878 13.1904 1.5481 13.8085L3.03921 15.2996C3.65729 15.9178 4.65777 15.9178 5.27592 15.2996L5.64872 14.9268L8.25822 17.5363C8.87634 18.1545 9.87674 18.1545 10.4949 17.5363C11.1116 16.9197 11.1116 15.9163 10.4949 15.2997L9.37654 14.1813L9.74933 13.8085C10.3674 13.1904 10.3675 12.19 9.74933 11.5719L9.496 11.3185C10.7422 10.4459 12.1576 9.83848 13.6691 9.53617L13.7111 9.52777C14.3282 9.9444 15.1716 9.87743 15.7139 9.33515H15.714C16.3305 8.71854 16.3305 7.71519 15.7139 7.09851ZM4.53036 14.5541C4.32435 14.7601 3.99079 14.7601 3.78477 14.554L2.29366 13.0629C2.08761 12.8568 2.08761 12.5234 2.29366 12.3174L4.90312 9.70787L7.13983 11.9446C6.88453 12.1999 4.79196 14.2925 4.53036 14.5541ZM9.7493 16.0452C9.95482 16.2507 9.95482 16.5852 9.7493 16.7908C9.54378 16.9963 9.20926 16.9963 9.00374 16.7908L6.39424 14.1813L7.13983 13.4357L9.7493 16.0452ZM7.88539 12.6901C8.04387 12.5317 8.28111 12.2889 8.65552 11.9691L9.00374 12.3174C9.20979 12.5234 9.20979 12.8568 9.00374 13.0629L8.63095 13.4357L7.88539 12.6901ZM7.90778 11.2215L5.62622 8.93989C6.84891 7.52805 7.72451 5.86147 8.19297 4.05093L12.7967 8.6547C10.9862 9.12312 9.31965 9.99872 7.90778 11.2215ZM14.9683 8.58956C14.7622 8.79557 14.4288 8.79557 14.2227 8.58956L8.25815 2.62499C8.0521 2.41891 8.0521 2.08549 8.25815 1.87944C8.4642 1.67339 8.79769 1.67339 9.00374 1.87944L14.9683 7.84396C15.1738 8.04952 15.1738 8.38396 14.9683 8.58956Z" fill="#070F21"/>
<path d="M5.27589 11.5719C5.07005 11.366 4.73621 11.366 4.53033 11.5719L3.78478 12.3174C3.5789 12.5233 3.5789 12.8571 3.78478 13.063C3.99062 13.2689 4.3245 13.2689 4.53033 13.063L5.27589 12.3174C5.48177 12.1116 5.48177 11.7778 5.27589 11.5719Z" fill="#070F21"/>
<path d="M12.1708 0C11.8796 0 11.6436 0.236039 11.6436 0.527202V1.58161C11.6436 1.87277 11.8796 2.10881 12.1708 2.10881C12.4619 2.10881 12.698 1.87277 12.698 1.58161V0.527202C12.698 0.236039 12.4619 0 12.1708 0Z" fill="#070F21"/>
<path d="M16.3882 4.21777H15.3338C15.0427 4.21777 14.8066 4.45381 14.8066 4.74498C14.8066 5.03614 15.0427 5.27218 15.3338 5.27218H16.3882C16.6794 5.27218 16.9154 5.03614 16.9154 4.74498C16.9154 4.45381 16.6794 4.21777 16.3882 4.21777Z" fill="#070F21"/>
<path d="M15.7068 1.20861C15.501 1.00273 15.1671 1.00273 14.9613 1.20861L13.9068 2.26301C13.701 2.46888 13.701 2.80269 13.9068 3.00857C14.1127 3.21444 14.4465 3.21448 14.6524 3.00857L15.7068 1.95416C15.9127 1.74829 15.9127 1.41451 15.7068 1.20861Z" fill="#070F21"/>
</g>
</svg>
