<svg width="14" height="15" viewBox="0 0 14 15" fill="none" xmlns="http://www.w3.org/2000/svg">
<g opacity="0.6" clip-path="url(#clip0_539_9615)">
<path fill-rule="evenodd" clip-rule="evenodd" d="M6.58562 2.14136C4.94361 2.14136 3.61096 3.47443 3.61096 5.11602C3.61096 6.75761 4.94361 8.09068 6.58562 8.09068C8.22721 8.09068 9.56029 6.75761 9.56029 5.11602C9.56029 3.47443 8.22721 2.14136 6.58562 2.14136ZM6.58562 2.99126C7.75807 2.99126 8.71038 3.94315 8.71038 5.11602C8.71038 6.28889 7.75807 7.24078 6.58562 7.24078C5.41276 7.24078 4.46087 6.28889 4.46087 5.11602C4.46087 3.94315 5.41276 2.99126 6.58562 2.99126Z" fill="#070F21"/>
<path fill-rule="evenodd" clip-rule="evenodd" d="M1.48626 13.1902H6.74376C6.97833 13.1902 7.16871 13.3806 7.16871 13.6151C7.16871 13.8497 6.97833 14.0401 6.74376 14.0401H1.0613C0.826306 14.0401 0.636353 13.8497 0.636353 13.6151C0.636353 13.6151 0.636353 13.2646 0.636353 12.7652C0.636353 10.6528 2.34848 8.94067 4.46092 8.94067H6.74588C6.98046 8.94067 7.17083 9.13105 7.17083 9.36563C7.17083 9.6002 6.98046 9.79058 6.74588 9.79058H4.46092C2.81805 9.79058 1.48626 11.1224 1.48626 12.7652V13.1902Z" fill="#070F21"/>
<path fill-rule="evenodd" clip-rule="evenodd" d="M9.25826 9.83633L9.9913 8.42039C10.0644 8.27931 10.2102 8.19092 10.3687 8.19092C10.5276 8.19092 10.6734 8.27931 10.746 8.42039L11.4795 9.83633L13.0527 10.0964C13.2095 10.1223 13.3386 10.2332 13.3875 10.3841C13.4368 10.5354 13.3977 10.7011 13.286 10.8141L12.1658 11.9492L12.405 13.5258C12.4288 13.6826 12.363 13.8398 12.2346 13.9333C12.1063 14.0264 11.9363 14.0404 11.7944 13.9694L10.3687 13.2546L8.94337 13.9694C8.80144 14.0404 8.63146 14.0264 8.50312 13.9333C8.37479 13.8398 8.30892 13.6826 8.33272 13.5258L8.57154 11.9492L7.45179 10.8141C7.34003 10.7011 7.30093 10.5354 7.3498 10.3841C7.3991 10.2332 7.52828 10.1223 7.68509 10.0964L9.25826 9.83633ZM10.3687 9.53971L9.91481 10.4164C9.85319 10.5354 9.73888 10.6182 9.60672 10.6403L8.63316 10.801L9.32625 11.5038C9.42059 11.599 9.46394 11.7333 9.44397 11.8659L9.29608 12.8416L10.1783 12.3996C10.2981 12.3393 10.4396 12.3393 10.5595 12.3996L11.4417 12.8416L11.2938 11.8659C11.2738 11.7333 11.3172 11.599 11.4115 11.5038L12.1046 10.801L11.131 10.6403C10.9984 10.6182 10.8846 10.5354 10.8229 10.4164L10.3687 9.53971Z" fill="#070F21"/>
</g>
<defs>
<clipPath id="clip0_539_9615">
<rect width="14" height="14" fill="white" transform="translate(0 0.868652)"/>
</clipPath>
</defs>
</svg>
