<svg width="16" height="16" viewBox="0 0 16 16" fill="none" xmlns="http://www.w3.org/2000/svg">
<g opacity="0.7" clip-path="url(#clip0_2_3128)">
<path d="M12.7061 0.666748H2.38542C1.4377 0.666748 0.666672 1.43778 0.666672 2.3855V13.6147C0.666672 14.5624 1.4377 15.3334 2.38542 15.3334H13.6146C14.5623 15.3334 15.3333 14.5624 15.3333 13.6147V3.29403L12.7061 0.666748ZM5.16407 1.81258H8.57292V3.98966H9.71875V1.81258H10.8646V4.56258C10.8646 4.87849 10.6076 5.1355 10.2917 5.1355H5.73698C5.42108 5.1355 5.16407 4.87849 5.16407 4.56258V1.81258ZM12.0104 14.1876H4.01823V9.81258C4.01823 9.49667 4.27524 9.23966 4.59115 9.23966H11.4375C11.7534 9.23966 12.0104 9.49667 12.0104 9.81258V14.1876ZM14.1875 13.6147C14.1875 13.9306 13.9305 14.1876 13.6146 14.1876H13.1563V9.81258C13.1563 8.86486 12.3852 8.09383 11.4375 8.09383H4.59115C3.64343 8.09383 2.8724 8.86486 2.8724 9.81258V14.1876H2.38542C2.06952 14.1876 1.81251 13.9306 1.81251 13.6147V2.3855C1.81251 2.06959 2.06952 1.81258 2.38542 1.81258H4.01823V4.56258C4.01823 5.5103 4.78927 6.28133 5.73698 6.28133H10.2917C11.2394 6.28133 12.0104 5.5103 12.0104 4.56258V1.81258H12.2315L14.1875 3.76863V13.6147Z" fill="#070F21"/>
</g>
<defs>
<clipPath id="clip0_2_3128">
<rect width="16" height="16" fill="white"/>
</clipPath>
</defs>
</svg>
