<svg width="14" height="15" viewBox="0 0 14 15" fill="none" xmlns="http://www.w3.org/2000/svg">
<g opacity="0.6">
<path fill-rule="evenodd" clip-rule="evenodd" d="M6.58569 1.92871C4.94367 1.92871 3.61102 3.26178 3.61102 4.90337C3.61102 6.54496 4.94367 7.87804 6.58569 7.87804C8.22727 7.87804 9.56035 6.54496 9.56035 4.90337C9.56035 3.26178 8.22727 1.92871 6.58569 1.92871ZM6.58569 2.77861C7.75813 2.77861 8.71044 3.73051 8.71044 4.90337C8.71044 6.07624 7.75813 7.02813 6.58569 7.02813C5.41282 7.02813 4.46093 6.07624 4.46093 4.90337C4.46093 3.73051 5.41282 2.77861 6.58569 2.77861Z" fill="#070F21"/>
<path fill-rule="evenodd" clip-rule="evenodd" d="M1.48626 12.9775H6.74376C6.97833 12.9775 7.16871 13.1679 7.16871 13.4025C7.16871 13.6371 6.97833 13.8274 6.74376 13.8274H1.0613C0.826306 13.8274 0.636353 13.6371 0.636353 13.4025C0.636353 13.4025 0.636353 13.0519 0.636353 12.5526C0.636353 10.4402 2.34848 8.72803 4.46092 8.72803H6.74588C6.98046 8.72803 7.17083 8.91841 7.17083 9.15298C7.17083 9.38755 6.98046 9.57793 6.74588 9.57793H4.46092C2.81805 9.57793 1.48626 10.9097 1.48626 12.5526V12.9775Z" fill="#070F21"/>
<path fill-rule="evenodd" clip-rule="evenodd" d="M9.2582 9.62393L9.99124 8.20799C10.0643 8.06691 10.2101 7.97852 10.3686 7.97852C10.5275 7.97852 10.6733 8.06691 10.746 8.20799L11.4794 9.62393L13.0526 9.884C13.2094 9.90992 13.3386 10.0208 13.3875 10.1717C13.4368 10.323 13.3977 10.4887 13.2859 10.6017L12.1657 11.7368L12.405 13.3134C12.4288 13.4702 12.3629 13.6274 12.2346 13.7209C12.1062 13.814 11.9362 13.828 11.7943 13.757L10.3686 13.0422L8.94331 13.757C8.80138 13.828 8.6314 13.814 8.50306 13.7209C8.37473 13.6274 8.30886 13.4702 8.33266 13.3134L8.57148 11.7368L7.45173 10.6017C7.33997 10.4887 7.30087 10.323 7.34974 10.1717C7.39904 10.0208 7.52822 9.90992 7.68503 9.884L9.2582 9.62393ZM10.3686 9.32731L9.91475 10.204C9.85313 10.323 9.73882 10.4058 9.60666 10.4279L8.6331 10.5886L9.32619 11.2914C9.42053 11.3866 9.46388 11.5209 9.44391 11.6535L9.29602 12.6292L10.1782 12.1872C10.2981 12.1269 10.4396 12.1269 10.5594 12.1872L11.4416 12.6292L11.2937 11.6535C11.2737 11.5209 11.3171 11.3866 11.4114 11.2914L12.1045 10.5886L11.131 10.4279C10.9984 10.4058 10.8845 10.323 10.8229 10.204L10.3686 9.32731Z" fill="#070F21"/>
</g>
</svg>
