<svg width="14" height="14" viewBox="0 0 14 14" fill="none" xmlns="http://www.w3.org/2000/svg">
<g opacity="0.6" clip-path="url(#clip0_539_8109)">
<path d="M6.25884 11.8588C7.20589 11.8588 8.0706 11.653 8.89413 11.2L11.1177 13.4235C11.7353 14.0412 12.7647 14.0412 13.4235 13.4235C14.0824 12.8059 14.0824 11.7353 13.4235 11.1177L11.2 8.89413C11.6118 8.11178 11.8588 7.20589 11.8588 6.25884C11.8588 3.21178 9.34707 0.700012 6.25884 0.700012C3.21178 0.700012 0.700012 3.21178 0.700012 6.25884C0.700012 9.34707 3.21178 11.8588 6.25884 11.8588ZM12.8059 11.6941C13.1353 12.0235 13.1353 12.5177 12.8059 12.8471C12.4765 13.1765 11.9824 13.1765 11.653 12.8471L9.55295 10.7471C10.0471 10.3765 10.3353 10.0882 10.7059 9.59413L12.8059 11.6941ZM6.25884 1.52354C8.89413 1.52354 10.9941 3.66472 10.9941 6.25884C10.9941 8.89413 8.85295 10.9941 6.25884 10.9941C3.66472 11.0353 1.52354 8.89413 1.52354 6.25884C1.52354 3.66472 3.66472 1.52354 6.25884 1.52354Z" fill="#070F21"/>
<path d="M3.78825 8.93531H8.72942C8.97648 8.93531 9.14119 8.7706 9.14119 8.52354V7.90589C9.14119 7.08237 8.48237 6.25884 7.94707 5.80589C8.0706 5.55884 8.11178 5.31178 8.11178 5.02354C8.11178 3.99413 7.28825 3.1706 6.25884 3.1706C5.22942 3.1706 4.40589 3.99413 4.40589 5.02354C4.40589 5.31178 4.48825 5.55884 4.5706 5.80589C3.95295 6.25884 3.37648 7.00001 3.37648 7.90589V8.52354C3.37648 8.7706 3.58237 8.93531 3.78825 8.93531ZM6.25884 3.99413C6.83531 3.99413 7.28825 4.44707 7.28825 5.02354C7.28825 5.60001 6.83531 6.05295 6.25884 6.05295C5.68237 6.05295 5.22942 5.60001 5.22942 5.02354C5.22942 4.44707 5.72354 3.99413 6.25884 3.99413ZM4.20001 7.90589C4.20001 7.32942 4.61178 6.79413 5.10589 6.46472C5.43531 6.71178 5.80589 6.87648 6.25884 6.87648C6.71178 6.87648 7.08236 6.71178 7.41178 6.46472C7.78236 6.75295 8.31766 7.41178 8.31766 7.90589V8.11178H4.20001V7.90589Z" fill="#070F21"/>
</g>
<defs>
<clipPath id="clip0_539_8109">
<rect width="14" height="14" fill="white"/>
</clipPath>
</defs>
</svg>
