<svg width="22" height="22" viewBox="0 0 22 22" fill="none" xmlns="http://www.w3.org/2000/svg">
<path d="M9.83539 18.6354C11.3236 18.6354 12.6825 18.3119 13.9766 17.6001L17.4707 21.0942C18.4413 22.0648 20.0589 22.0648 21.0942 21.0942C22.1295 20.1236 22.1295 18.4413 21.0942 17.4707L17.6001 13.9766C18.2472 12.7472 18.6354 11.3236 18.6354 9.83539C18.6354 5.04716 14.6883 1.1001 9.83539 1.1001C5.04716 1.1001 1.1001 5.04716 1.1001 9.83539C1.1001 14.6883 5.04716 18.6354 9.83539 18.6354ZM20.1236 18.3766C20.6413 18.8942 20.6413 19.6707 20.1236 20.1883C19.606 20.706 18.8295 20.706 18.3119 20.1883L15.0119 16.8883C15.7883 16.306 16.2413 15.853 16.8236 15.0766L20.1236 18.3766ZM9.83539 2.39422C13.9766 2.39422 17.2766 5.75892 17.2766 9.83539C17.2766 13.9766 13.9119 17.2766 9.83539 17.2766C5.75892 17.3413 2.39422 13.9766 2.39422 9.83539C2.39422 5.75892 5.75892 2.39422 9.83539 2.39422Z" fill="#070F21"/>
<path d="M5.95304 14.0413H13.7177C14.106 14.0413 14.3648 13.7825 14.3648 13.3942V12.4236C14.3648 11.1295 13.3295 9.83539 12.4883 9.12363C12.6825 8.73539 12.7472 8.34716 12.7472 7.89422C12.7472 6.27657 11.453 4.98245 9.83539 4.98245C8.21774 4.98245 6.92363 6.27657 6.92363 7.89422C6.92363 8.34716 7.05304 8.73539 7.18245 9.12363C6.21186 9.83539 5.30598 11.0001 5.30598 12.4236V13.3942C5.30598 13.7825 5.62951 14.0413 5.95304 14.0413ZM9.83539 6.27657C10.7413 6.27657 11.453 6.98833 11.453 7.89422C11.453 8.8001 10.7413 9.51186 9.83539 9.51186C8.92951 9.51186 8.21774 8.8001 8.21774 7.89422C8.21774 6.98833 8.99422 6.27657 9.83539 6.27657ZM6.6001 12.4236C6.6001 11.5177 7.24716 10.6766 8.02363 10.1589C8.54127 10.5472 9.12363 10.806 9.83539 10.806C10.5472 10.806 11.1295 10.5472 11.6472 10.1589C12.2295 10.6119 13.0707 11.6472 13.0707 12.4236V12.7472H6.6001V12.4236Z" fill="#070F21"/>
</svg>
