<svg width="20" height="20" viewBox="0 0 20 20" fill="none" xmlns="http://www.w3.org/2000/svg">
<path d="M8.16933 1.6665C8.0113 1.66638 7.85968 1.72896 7.74775 1.8405L1.84167 7.74657C1.78621 7.80198 1.7422 7.86777 1.71218 7.94019C1.68216 8.01262 1.66671 8.09025 1.66671 8.16864C1.66671 8.24704 1.68216 8.32467 1.71218 8.3971C1.7422 8.46952 1.78621 8.53531 1.84167 8.59072C2.41438 9.16343 3.12033 9.29169 3.63438 9.29169C3.84616 9.29169 4.03408 9.27081 4.18322 9.24595L7.92175 12.9845C7.82431 13.3822 7.76067 13.7859 7.73184 14.1935C7.67715 15.0307 7.76962 16.206 8.59091 17.0272C8.70276 17.139 8.85439 17.2017 9.01248 17.2017C9.17058 17.2017 9.3222 17.139 9.43406 17.0272L12.8097 13.6516L16.6069 17.4498C16.8395 17.6825 18.0605 18.5256 18.2932 18.293C18.5258 18.0603 17.6827 16.8373 17.45 16.6057L13.6538 12.8095L17.0274 9.43387C17.1392 9.32202 17.2019 9.17039 17.2019 9.0123C17.2019 8.8542 17.1392 8.70258 17.0274 8.59072C16.2072 7.76944 15.0319 7.67597 14.1937 7.73166C13.7861 7.75949 13.3814 7.82412 12.9857 7.92256L9.24614 4.18404C9.27732 4.00241 9.29329 3.81849 9.29387 3.6342C9.29387 3.12115 9.16461 2.41421 8.59091 1.8405C8.47897 1.72896 8.32735 1.66638 8.16933 1.6665ZM8.02416 4.18603V4.18404V4.18603ZM8.02416 4.18404V4.18603C7.98966 4.29095 7.98496 4.4034 8.01059 4.51083C8.03622 4.61827 8.09117 4.71648 8.16933 4.79453L12.3871 9.0113C12.4655 9.08948 12.5642 9.14428 12.672 9.16957C12.7798 9.19486 12.8926 9.18963 12.9976 9.15448H12.9996L13.0165 9.1505C13.4258 9.02878 13.8473 8.9521 14.2733 8.92182C14.7764 8.88801 15.2705 8.93077 15.6752 9.10079L9.09998 15.673C8.93195 15.2674 8.88919 14.7742 8.923 14.2711C8.95334 13.8448 9.03002 13.423 9.15168 13.0133L9.15666 12.9984V12.9964C9.19192 12.8914 9.19721 12.7786 9.17192 12.6708C9.14662 12.5629 9.09176 12.4643 9.01348 12.3859L4.79471 8.16815C4.71342 8.08629 4.61013 8.02977 4.49736 8.00541C4.3846 7.98106 4.26719 7.98993 4.15936 8.03094L4.04502 8.05679C3.94161 8.07667 3.79644 8.09755 3.63438 8.09755C3.49816 8.09755 3.35995 8.08463 3.22572 8.04983L8.052 3.22455C8.08499 3.35856 8.10103 3.49619 8.09973 3.6342C8.09873 3.81914 8.07387 4.00407 8.02516 4.18304L8.02416 4.18404Z" fill="#FF9900"/>
</svg>
