<svg width="14" height="15" viewBox="0 0 14 15" fill="none" xmlns="http://www.w3.org/2000/svg">
<g opacity="0.6" clip-path="url(#clip0_539_9614)">
<path d="M6.25877 12.7274C7.20583 12.7274 8.07054 12.5215 8.89407 12.0686L11.1176 14.2921C11.7352 14.9098 12.7647 14.9098 13.4235 14.2921C14.0823 13.6745 14.0823 12.6039 13.4235 11.9862L11.2 9.76272C11.6117 8.98037 11.8588 8.07449 11.8588 7.12743C11.8588 4.08037 9.34701 1.5686 6.25877 1.5686C3.21172 1.5686 0.699951 4.08037 0.699951 7.12743C0.699951 10.2157 3.21172 12.7274 6.25877 12.7274ZM12.8058 12.5627C13.1352 12.8921 13.1352 13.3862 12.8058 13.7157C12.4764 14.0451 11.9823 14.0451 11.6529 13.7157L9.55289 11.6157C10.047 11.2451 10.3352 10.9568 10.7058 10.4627L12.8058 12.5627ZM6.25877 2.39213C8.89407 2.39213 10.9941 4.53331 10.9941 7.12743C10.9941 9.76272 8.85289 11.8627 6.25877 11.8627C3.66466 11.9039 1.52348 9.76272 1.52348 7.12743C1.52348 4.53331 3.66466 2.39213 6.25877 2.39213Z" fill="#070F21"/>
<path d="M3.78819 9.8039H8.72936C8.97642 9.8039 9.14113 9.63919 9.14113 9.39213V8.77449C9.14113 7.95096 8.4823 7.12743 7.94701 6.67449C8.07054 6.42743 8.11172 6.18037 8.11172 5.89213C8.11172 4.86272 7.28819 4.03919 6.25877 4.03919C5.22936 4.03919 4.40583 4.86272 4.40583 5.89213C4.40583 6.18037 4.48819 6.42743 4.57054 6.67449C3.95289 7.12743 3.37642 7.8686 3.37642 8.77449V9.39213C3.37642 9.63919 3.5823 9.8039 3.78819 9.8039ZM6.25877 4.86272C6.83525 4.86272 7.28819 5.31566 7.28819 5.89213C7.28819 6.4686 6.83525 6.92155 6.25877 6.92155C5.6823 6.92155 5.22936 6.4686 5.22936 5.89213C5.22936 5.31566 5.72348 4.86272 6.25877 4.86272ZM4.19995 8.77449C4.19995 8.19802 4.61172 7.66272 5.10583 7.33331C5.43525 7.58037 5.80583 7.74507 6.25877 7.74507C6.71172 7.74507 7.0823 7.58037 7.41172 7.33331C7.7823 7.62154 8.3176 8.28037 8.3176 8.77449V8.98037H4.19995V8.77449Z" fill="#070F21"/>
</g>
<defs>
<clipPath id="clip0_539_9614">
<rect width="14" height="14" fill="white" transform="translate(0 0.868652)"/>
</clipPath>
</defs>
</svg>
