<svg width="22" height="22" viewBox="0 0 22 22" fill="none" xmlns="http://www.w3.org/2000/svg">
<path d="M11.6609 4.58602L10.3171 4.58327C7.25173 4.57593 4.59065 7.06652 4.56956 10.0833V13.5574C4.56956 14.2816 4.4779 14.9884 4.08281 15.5906L3.81973 15.9921C3.41915 16.6008 3.84998 17.4166 4.56956 17.4166H17.4304C18.15 17.4166 18.5799 16.6008 18.1802 15.9921L17.9171 15.5906C17.523 14.9884 17.4304 14.2807 17.4304 13.5565V10.0842C17.3937 7.06652 14.7262 4.59335 11.6609 4.58602V4.58602Z" stroke="#070F21" stroke-width="1.5" stroke-linecap="round" stroke-linejoin="round"/>
<path d="M13.75 17.4167C13.75 18.1461 13.4603 18.8456 12.9445 19.3613C12.4288 19.877 11.7293 20.1667 11 20.1667C10.2707 20.1667 9.57118 19.877 9.05546 19.3613C8.53973 18.8456 8.25 18.1461 8.25 17.4167" stroke="#070F21" stroke-width="1.5" stroke-linecap="round" stroke-linejoin="round"/>
<path d="M11 1.83325C11.4863 1.83325 11.9526 2.02641 12.2964 2.37022C12.6402 2.71404 12.8334 3.18036 12.8334 3.66659V4.58325H9.16669V3.66659C9.16669 3.18036 9.35984 2.71404 9.70366 2.37022C10.0475 2.02641 10.5138 1.83325 11 1.83325Z" stroke="#070F21" stroke-width="1.5" stroke-linecap="round" stroke-linejoin="round"/>
</svg>
