<svg width="14" height="14" viewBox="0 0 14 14" fill="none" xmlns="http://www.w3.org/2000/svg">
<g opacity="0.5">
<path d="M3.41139 10.0402L4.2379 9.21188L4.23802 9.21176C4.33854 9.11136 4.47482 9.055 4.61689 9.05508C4.75897 9.05517 4.89519 9.11169 4.99559 9.2122C5.09599 9.31272 5.15235 9.44901 5.15226 9.59108C5.15218 9.73315 5.09566 9.86937 4.99514 9.96978M3.41139 10.0402L4.92447 9.89902M3.41139 10.0402V2.62781C3.41139 2.48587 3.355 2.34975 3.25463 2.24938C3.15427 2.14901 3.01814 2.09263 2.8762 2.09263C2.73426 2.09263 2.59814 2.14901 2.49777 2.24938C2.3974 2.34975 2.34102 2.48587 2.34102 2.62781V10.0397L1.51446 9.21255L1.51443 9.21253C1.46466 9.16276 1.40558 9.12328 1.34056 9.09635C1.27554 9.06942 1.20584 9.05555 1.13546 9.05555C1.06508 9.05555 0.995391 9.06942 0.930368 9.09635C0.865345 9.12328 0.806263 9.16276 0.756497 9.21253C0.70673 9.26229 0.667253 9.32137 0.64032 9.3864C0.613386 9.45142 0.599524 9.52111 0.599524 9.59149C0.599524 9.66187 0.613386 9.73156 0.64032 9.79659C0.667253 9.86161 0.70673 9.92069 0.756497 9.97046L0.756526 9.97049L2.49727 11.7098L2.49714 11.7099L2.50151 11.7138L2.50637 11.7181L3.41139 10.0402ZM4.99514 9.96978L4.92447 9.89902M4.99514 9.96978L4.99518 9.96973L4.92447 9.89902M4.99514 9.96978L3.25479 11.7101L3.18373 11.6398M4.92447 9.89902L3.18373 11.6398M3.18373 11.6398L3.25444 11.7105L3.25451 11.7104L3.18373 11.6398ZM6.58806 11.826L6.62633 11.7336L6.58806 11.826C6.65299 11.8528 6.72258 11.8667 6.79286 11.8667H7.66323C7.73351 11.8667 7.80311 11.8528 7.86804 11.826L7.82977 11.7336L7.86804 11.826C7.93297 11.7991 7.99197 11.7596 8.04167 11.7099C8.09136 11.6602 8.13078 11.6012 8.15768 11.5363C8.18458 11.4714 8.19842 11.4018 8.19842 11.3315C8.19842 11.2612 8.18458 11.1916 8.15768 11.1267C8.13078 11.0618 8.09136 11.0028 8.04167 10.9531C7.99197 10.9034 7.93297 10.864 7.86804 10.8371L7.82977 10.9294L7.86804 10.8371C7.80311 10.8102 7.73351 10.7963 7.66323 10.7963H6.79286C6.72258 10.7963 6.65299 10.8102 6.58806 10.8371L6.62633 10.9294L6.58806 10.8371C6.52313 10.864 6.46413 10.9034 6.41443 10.9531C6.36474 11.0028 6.32531 11.0618 6.29842 11.1267C6.27152 11.1916 6.25768 11.2612 6.25768 11.3315C6.25768 11.4018 6.27152 11.4714 6.29842 11.5363C6.32531 11.6012 6.36474 11.6602 6.41443 11.7099C6.46413 11.7596 6.52313 11.7991 6.58806 11.826ZM6.41443 3.11975C6.31407 3.22011 6.25768 3.35624 6.25768 3.49818C6.25768 3.64012 6.31407 3.77625 6.41443 3.87661C6.5148 3.97698 6.65092 4.03337 6.79286 4.03337H12.8855C13.0274 4.03337 13.1635 3.97698 13.2639 3.87661C13.3642 3.77625 13.4206 3.64012 13.4206 3.49818C13.4206 3.35624 13.3642 3.22011 13.2639 3.11975C13.1635 3.01938 13.0274 2.963 12.8855 2.963H6.79286C6.65092 2.963 6.5148 3.01938 6.41443 3.11975ZM6.79286 5.5741C6.65092 5.5741 6.5148 5.63049 6.41443 5.73086C6.31407 5.83122 6.25768 5.96735 6.25768 6.10929C6.25768 6.25123 6.31407 6.38736 6.41443 6.48772C6.5148 6.58809 6.65092 6.64447 6.79286 6.64447H11.1447C11.2867 6.64447 11.4228 6.58809 11.5231 6.48772C11.6235 6.38736 11.6799 6.25123 11.6799 6.10929C11.6799 5.96735 11.6235 5.83122 11.5231 5.73086C11.4228 5.63049 11.2867 5.5741 11.1447 5.5741H6.79286ZM6.79286 8.18521C6.65092 8.18521 6.5148 8.2416 6.41443 8.34196C6.31407 8.44233 6.25768 8.57846 6.25768 8.7204C6.25768 8.86234 6.31407 8.99846 6.41443 9.09883C6.5148 9.1992 6.65092 9.25558 6.79286 9.25558H9.40397C9.54591 9.25558 9.68204 9.1992 9.78241 9.09883C9.88277 8.99846 9.93916 8.86234 9.93916 8.7204C9.93916 8.57846 9.88277 8.44233 9.7824 8.34196C9.68204 8.2416 9.54591 8.18521 9.40397 8.18521H6.79286Z" fill="#070F21" stroke="#070F21" stroke-width="0.2"/>
</g>
</svg>
