<svg width="14" height="14" viewBox="0 0 14 14" fill="none" xmlns="http://www.w3.org/2000/svg">
<g opacity="0.6" clip-path="url(#clip0_539_6117)">
<path d="M6.25882 11.8588C7.20588 11.8588 8.07059 11.6529 8.89411 11.2L11.1176 13.4235C11.7353 14.0411 12.7647 14.0411 13.4235 13.4235C14.0824 12.8058 14.0824 11.7352 13.4235 11.1176L11.2 8.89407C11.6118 8.11171 11.8588 7.20583 11.8588 6.25877C11.8588 3.21172 9.34706 0.699951 6.25882 0.699951C3.21176 0.699951 0.699997 3.21172 0.699997 6.25877C0.699997 9.34701 3.21176 11.8588 6.25882 11.8588ZM12.8059 11.6941C13.1353 12.0235 13.1353 12.5176 12.8059 12.847C12.4765 13.1764 11.9824 13.1764 11.6529 12.847L9.55294 10.747C10.0471 10.3764 10.3353 10.0882 10.7059 9.59407L12.8059 11.6941ZM6.25882 1.52348C8.89411 1.52348 10.9941 3.66466 10.9941 6.25877C10.9941 8.89407 8.85294 10.9941 6.25882 10.9941C3.6647 11.0352 1.52353 8.89407 1.52353 6.25877C1.52353 3.66466 3.6647 1.52348 6.25882 1.52348Z" fill="#070F21"/>
<path d="M3.78823 8.93525H8.72941C8.97647 8.93525 9.14117 8.77054 9.14117 8.52348V7.90583C9.14117 7.0823 8.48235 6.25877 7.94706 5.80583C8.07059 5.55877 8.11176 5.31172 8.11176 5.02348C8.11176 3.99407 7.28823 3.17054 6.25882 3.17054C5.22941 3.17054 4.40588 3.99407 4.40588 5.02348C4.40588 5.31172 4.48823 5.55877 4.57058 5.80583C3.95294 6.25877 3.37647 6.99995 3.37647 7.90583V8.52348C3.37647 8.77054 3.58235 8.93525 3.78823 8.93525ZM6.25882 3.99407C6.83529 3.99407 7.28823 4.44701 7.28823 5.02348C7.28823 5.59995 6.83529 6.05289 6.25882 6.05289C5.68235 6.05289 5.22941 5.59995 5.22941 5.02348C5.22941 4.44701 5.72353 3.99407 6.25882 3.99407ZM4.2 7.90583C4.2 7.32936 4.61176 6.79407 5.10588 6.46466C5.43529 6.71172 5.80588 6.87642 6.25882 6.87642C6.71176 6.87642 7.08235 6.71172 7.41176 6.46466C7.78235 6.75289 8.31764 7.41172 8.31764 7.90583V8.11172H4.2V7.90583Z" fill="#070F21"/>
</g>
<defs>
<clipPath id="clip0_539_6117">
<rect width="14" height="14" fill="white"/>
</clipPath>
</defs>
</svg>
