<svg width="14" height="15" viewBox="0 0 14 15" fill="none" xmlns="http://www.w3.org/2000/svg">
<g opacity="0.6" clip-path="url(#clip0_539_11617)">
<path d="M6.25877 12.5148C7.20583 12.5148 8.07054 12.3089 8.89407 11.856L11.1176 14.0795C11.7352 14.6971 12.7647 14.6971 13.4235 14.0795C14.0823 13.4618 14.0823 12.3913 13.4235 11.7736L11.2 9.55007C11.6117 8.76772 11.8588 7.86184 11.8588 6.91478C11.8588 3.86772 9.34701 1.35596 6.25877 1.35596C3.21172 1.35596 0.699951 3.86772 0.699951 6.91478C0.699951 10.003 3.21172 12.5148 6.25877 12.5148ZM12.8058 12.3501C13.1352 12.6795 13.1352 13.1736 12.8058 13.503C12.4764 13.8324 11.9823 13.8324 11.6529 13.503L9.55289 11.403C10.047 11.0324 10.3352 10.7442 10.7058 10.2501L12.8058 12.3501ZM6.25877 2.17949C8.89407 2.17949 10.9941 4.32066 10.9941 6.91478C10.9941 9.55007 8.85289 11.6501 6.25877 11.6501C3.66466 11.6913 1.52348 9.55007 1.52348 6.91478C1.52348 4.32066 3.66466 2.17949 6.25877 2.17949Z" fill="#070F21"/>
<path d="M3.78819 9.59125H8.72936C8.97642 9.59125 9.14113 9.42655 9.14113 9.17949V8.56184C9.14113 7.73831 8.4823 6.91478 7.94701 6.46184C8.07054 6.21478 8.11172 5.96772 8.11172 5.67949C8.11172 4.65007 7.28819 3.82655 6.25877 3.82655C5.22936 3.82655 4.40583 4.65007 4.40583 5.67949C4.40583 5.96772 4.48819 6.21478 4.57054 6.46184C3.95289 6.91478 3.37642 7.65596 3.37642 8.56184V9.17949C3.37642 9.42655 3.5823 9.59125 3.78819 9.59125ZM6.25877 4.65007C6.83525 4.65007 7.28819 5.10302 7.28819 5.67949C7.28819 6.25596 6.83525 6.7089 6.25877 6.7089C5.6823 6.7089 5.22936 6.25596 5.22936 5.67949C5.22936 5.10302 5.72348 4.65007 6.25877 4.65007ZM4.19995 8.56184C4.19995 7.98537 4.61172 7.45007 5.10583 7.12066C5.43525 7.36772 5.80583 7.53243 6.25877 7.53243C6.71172 7.53243 7.0823 7.36772 7.41172 7.12066C7.7823 7.4089 8.3176 8.06772 8.3176 8.56184V8.76772H4.19995V8.56184Z" fill="#070F21"/>
</g>
<defs>
<clipPath id="clip0_539_11617">
<rect width="14" height="14" fill="white" transform="translate(0 0.655762)"/>
</clipPath>
</defs>
</svg>
