<svg width="16" height="16" viewBox="0 0 16 16" fill="none" xmlns="http://www.w3.org/2000/svg">
<g opacity="0.7" clip-path="url(#clip0_2_3365)">
<path d="M12.706 0.666748H2.38538C1.43766 0.666748 0.666626 1.43778 0.666626 2.3855V13.6147C0.666626 14.5624 1.43766 15.3334 2.38538 15.3334H13.6145C14.5623 15.3334 15.3333 14.5624 15.3333 13.6147V3.29403L12.706 0.666748ZM5.16402 1.81258H8.57288V3.98966H9.71871V1.81258H10.8645V4.56258C10.8645 4.87849 10.6075 5.1355 10.2916 5.1355H5.73694C5.42103 5.1355 5.16402 4.87849 5.16402 4.56258V1.81258ZM12.0104 14.1876H4.01819V9.81258C4.01819 9.49667 4.2752 9.23966 4.5911 9.23966H11.4375C11.7534 9.23966 12.0104 9.49667 12.0104 9.81258V14.1876ZM14.1875 13.6147C14.1875 13.9306 13.9304 14.1876 13.6145 14.1876H13.1562V9.81258C13.1562 8.86486 12.3852 8.09383 11.4375 8.09383H4.5911C3.64339 8.09383 2.87235 8.86486 2.87235 9.81258V14.1876H2.38538C2.06947 14.1876 1.81246 13.9306 1.81246 13.6147V2.3855C1.81246 2.06959 2.06947 1.81258 2.38538 1.81258H4.01819V4.56258C4.01819 5.5103 4.78922 6.28133 5.73694 6.28133H10.2916C11.2393 6.28133 12.0104 5.5103 12.0104 4.56258V1.81258H12.2314L14.1875 3.76863V13.6147Z" fill="#070F21"/>
</g>
<defs>
<clipPath id="clip0_2_3365">
<rect width="16" height="16" fill="white"/>
</clipPath>
</defs>
</svg>
