<svg width="14" height="14" viewBox="0 0 14 14" fill="none" xmlns="http://www.w3.org/2000/svg">
<g opacity="0.5">
<path d="M3.4114 10.0402L4.23791 9.21188L4.23803 9.21176C4.33855 9.11136 4.47484 9.055 4.61691 9.05508C4.75898 9.05517 4.8952 9.11169 4.9956 9.2122C5.096 9.31272 5.15236 9.44901 5.15228 9.59108C5.15219 9.73315 5.09567 9.86937 4.99516 9.96978M3.4114 10.0402L4.92449 9.89902M3.4114 10.0402V2.62781C3.4114 2.48587 3.35502 2.34975 3.25465 2.24938C3.15428 2.14901 3.01816 2.09263 2.87622 2.09263C2.73428 2.09263 2.59815 2.14901 2.49778 2.24938C2.39742 2.34975 2.34103 2.48587 2.34103 2.62781V10.0397L1.51447 9.21255L1.51445 9.21253C1.46468 9.16276 1.4056 9.12328 1.34057 9.09635C1.27555 9.06942 1.20586 9.05555 1.13548 9.05555C1.0651 9.05555 0.995406 9.06942 0.930384 9.09635C0.86536 9.12328 0.806279 9.16276 0.756512 9.21253C0.706745 9.26229 0.667268 9.32137 0.640335 9.3864C0.613401 9.45142 0.599539 9.52111 0.599539 9.59149C0.599539 9.66187 0.613402 9.73156 0.640335 9.79659C0.667269 9.86161 0.706746 9.92069 0.756512 9.97046L0.756542 9.97049L2.49728 11.7098L2.49716 11.7099L2.50153 11.7138L2.50638 11.7181L3.4114 10.0402ZM4.99516 9.96978L4.92449 9.89902M4.99516 9.96978L4.9952 9.96973L4.92449 9.89902M4.99516 9.96978L3.25481 11.7101L3.18375 11.6398M4.92449 9.89902L3.18375 11.6398M3.18375 11.6398L3.25446 11.7105L3.25452 11.7104L3.18375 11.6398ZM6.58807 11.826L6.62634 11.7336L6.58807 11.826C6.65301 11.8528 6.7226 11.8667 6.79288 11.8667H7.66325C7.73353 11.8667 7.80312 11.8528 7.86806 11.826L7.82979 11.7336L7.86806 11.826C7.93299 11.7991 7.99199 11.7596 8.04168 11.7099C8.09138 11.6602 8.1308 11.6012 8.1577 11.5363C8.18459 11.4714 8.19843 11.4018 8.19843 11.3315C8.19843 11.2612 8.18459 11.1916 8.1577 11.1267C8.1308 11.0618 8.09138 11.0028 8.04168 10.9531C7.99199 10.9034 7.93299 10.864 7.86806 10.8371L7.82979 10.9294L7.86806 10.8371C7.80312 10.8102 7.73353 10.7963 7.66325 10.7963H6.79288C6.7226 10.7963 6.65301 10.8102 6.58807 10.8371L6.62634 10.9294L6.58807 10.8371C6.52314 10.864 6.46414 10.9034 6.41445 10.9531C6.36475 11.0028 6.32533 11.0618 6.29843 11.1267C6.27154 11.1916 6.2577 11.2612 6.2577 11.3315C6.2577 11.4018 6.27154 11.4714 6.29843 11.5363C6.32533 11.6012 6.36475 11.6602 6.41445 11.7099C6.46414 11.7596 6.52314 11.7991 6.58807 11.826ZM6.41445 3.11975C6.31408 3.22011 6.2577 3.35624 6.2577 3.49818C6.2577 3.64012 6.31408 3.77625 6.41445 3.87661C6.51481 3.97698 6.65094 4.03337 6.79288 4.03337H12.8855C13.0274 4.03337 13.1635 3.97698 13.2639 3.87661C13.3643 3.77625 13.4206 3.64012 13.4206 3.49818C13.4206 3.35624 13.3643 3.22011 13.2639 3.11975C13.1635 3.01938 13.0274 2.963 12.8855 2.963H6.79288C6.65094 2.963 6.51481 3.01938 6.41445 3.11975ZM6.79288 5.5741C6.65094 5.5741 6.51481 5.63049 6.41445 5.73086C6.31408 5.83122 6.2577 5.96735 6.2577 6.10929C6.2577 6.25123 6.31408 6.38736 6.41445 6.48772C6.51481 6.58809 6.65094 6.64447 6.79288 6.64447H11.1447C11.2867 6.64447 11.4228 6.58809 11.5232 6.48772C11.6235 6.38736 11.6799 6.25123 11.6799 6.10929C11.6799 5.96735 11.6235 5.83122 11.5232 5.73086C11.4228 5.63049 11.2867 5.5741 11.1447 5.5741H6.79288ZM6.79288 8.18521C6.65094 8.18521 6.51481 8.2416 6.41445 8.34196C6.31408 8.44233 6.2577 8.57846 6.2577 8.7204C6.2577 8.86234 6.31408 8.99846 6.41445 9.09883C6.51481 9.1992 6.65094 9.25558 6.79288 9.25558H9.40399C9.54593 9.25558 9.68205 9.1992 9.78242 9.09883C9.88279 8.99846 9.93917 8.86234 9.93917 8.7204C9.93917 8.57846 9.88279 8.44233 9.78242 8.34196C9.68205 8.2416 9.54593 8.18521 9.40399 8.18521H6.79288Z" fill="#070F21" stroke="#070F21" stroke-width="0.2"/>
</g>
</svg>
