<svg width="14" height="14" viewBox="0 0 14 14" fill="none" xmlns="http://www.w3.org/2000/svg">
<g opacity="0.6" clip-path="url(#clip0_539_9922)">
<path d="M6.25877 11.859C7.20583 11.859 8.07054 11.6531 8.89407 11.2002L11.1176 13.4237C11.7352 14.0414 12.7647 14.0414 13.4235 13.4237C14.0823 12.8061 14.0823 11.7355 13.4235 11.1178L11.2 8.89431C11.6117 8.11196 11.8588 7.20608 11.8588 6.25902C11.8588 3.21196 9.34701 0.700195 6.25877 0.700195C3.21172 0.700195 0.699951 3.21196 0.699951 6.25902C0.699951 9.34725 3.21172 11.859 6.25877 11.859ZM12.8058 11.6943C13.1352 12.0237 13.1352 12.5178 12.8058 12.8473C12.4764 13.1767 11.9823 13.1767 11.6529 12.8473L9.55289 10.7473C10.047 10.3767 10.3352 10.0884 10.7058 9.59431L12.8058 11.6943ZM6.25877 1.52372C8.89407 1.52372 10.9941 3.6649 10.9941 6.25902C10.9941 8.89431 8.85289 10.9943 6.25877 10.9943C3.66466 11.0355 1.52348 8.89431 1.52348 6.25902C1.52348 3.6649 3.66466 1.52372 6.25877 1.52372Z" fill="#070F21"/>
<path d="M3.78819 8.93549H8.72936C8.97642 8.93549 9.14113 8.77078 9.14113 8.52372V7.90608C9.14113 7.08255 8.4823 6.25902 7.94701 5.80608C8.07054 5.55902 8.11172 5.31196 8.11172 5.02372C8.11172 3.99431 7.28819 3.17078 6.25877 3.17078C5.22936 3.17078 4.40583 3.99431 4.40583 5.02372C4.40583 5.31196 4.48819 5.55902 4.57054 5.80608C3.95289 6.25902 3.37642 7.0002 3.37642 7.90608V8.52372C3.37642 8.77078 3.5823 8.93549 3.78819 8.93549ZM6.25877 3.99431C6.83525 3.99431 7.28819 4.44725 7.28819 5.02372C7.28819 5.6002 6.83525 6.05314 6.25877 6.05314C5.6823 6.05314 5.22936 5.6002 5.22936 5.02372C5.22936 4.44725 5.72348 3.99431 6.25877 3.99431ZM4.19995 7.90608C4.19995 7.32961 4.61172 6.79431 5.10583 6.4649C5.43525 6.71196 5.80583 6.87667 6.25877 6.87667C6.71172 6.87667 7.0823 6.71196 7.41172 6.4649C7.7823 6.75314 8.3176 7.41196 8.3176 7.90608V8.11196H4.19995V7.90608Z" fill="#070F21"/>
</g>
<defs>
<clipPath id="clip0_539_9922">
<rect width="14" height="14" fill="white"/>
</clipPath>
</defs>
</svg>
