<svg width="14" height="14" viewBox="0 0 14 14" fill="none" xmlns="http://www.w3.org/2000/svg">
<g opacity="0.6">
<path fill-rule="evenodd" clip-rule="evenodd" d="M4.31645 3.7334H4.25981C3.77197 3.73333 3.4598 3.73328 3.19038 3.78473C2.08876 3.99509 1.21195 4.82589 0.987664 5.90839C0.932959 6.17239 0.933021 6.47738 0.933113 6.94116L0.93312 7.00007L0.933113 7.05898C0.933021 7.52277 0.932959 7.82775 0.987664 8.09175C1.21195 9.17426 2.08876 10.005 3.19038 10.2154C3.45981 10.2668 3.77198 10.2668 4.25982 10.2667H4.31645H5.13312C5.39085 10.2667 5.59979 10.0578 5.59979 9.80006C5.59979 9.54237 5.39085 9.3334 5.13312 9.3334H4.31645C3.75284 9.3334 3.53652 9.33131 3.36544 9.29865C2.61584 9.1555 2.04552 8.59707 1.90158 7.90239C1.8689 7.74466 1.86645 7.54374 1.86645 7.00007C1.86645 6.45641 1.8689 6.25549 1.90158 6.09775C2.04552 5.40308 2.61584 4.84464 3.36544 4.70149C3.53652 4.66883 3.75284 4.66674 4.31645 4.66674H5.13312C5.39085 4.66674 5.59979 4.4578 5.59979 4.20007C5.59979 3.94234 5.39085 3.7334 5.13312 3.7334H4.31645ZM9.68311 4.66674C10.2468 4.66674 10.4631 4.66883 10.6342 4.70149C11.3837 4.84464 11.9541 5.40308 12.098 6.09775C12.1307 6.25549 12.1331 6.45641 12.1331 7.00007C12.1331 7.54374 12.1307 7.74466 12.098 7.90239C11.9541 8.59707 11.3837 9.1555 10.6342 9.29865C10.4631 9.33131 10.2468 9.3334 9.68311 9.3334H8.86645C8.60872 9.3334 8.39979 9.54237 8.39979 9.80006C8.39979 10.0578 8.60872 10.2667 8.86645 10.2667H9.68311H9.73976C10.2276 10.2668 10.5397 10.2668 10.8092 10.2154C11.9108 10.005 12.7877 9.17426 13.0119 8.09175C13.0666 7.82775 13.0665 7.52277 13.0664 7.05899V7.00007V6.94115C13.0665 6.47738 13.0666 6.17239 13.0119 5.90839C12.7877 4.82589 11.9108 3.99509 10.8092 3.78473C10.5397 3.73328 10.2276 3.73333 9.73976 3.7334H9.68311H8.86645C8.60872 3.7334 8.39979 3.94234 8.39979 4.20007C8.39979 4.4578 8.60872 4.66674 8.86645 4.66674H9.68311ZM4.66708 6.53339C4.40935 6.53339 4.20041 6.74233 4.20041 7.00006C4.20041 7.25779 4.40935 7.46673 4.66708 7.46673H9.33376C9.59146 7.46673 9.80043 7.25779 9.80043 7.00006C9.80043 6.74233 9.59146 6.53339 9.33376 6.53339H4.66708Z" fill="#070F21"/>
</g>
</svg>
