<svg width="14" height="14" viewBox="0 0 14 14" fill="none" xmlns="http://www.w3.org/2000/svg">
<g opacity="0.6">
<path fill-rule="evenodd" clip-rule="evenodd" d="M4.31645 3.73328H4.25981C3.77197 3.73321 3.4598 3.73316 3.19038 3.78461C2.08876 3.99497 1.21195 4.82577 0.987664 5.90827C0.932959 6.17227 0.933021 6.47725 0.933113 6.94104L0.93312 6.99995L0.933113 7.05886C0.933021 7.52264 0.932959 7.82763 0.987664 8.09163C1.21195 9.17414 2.08876 10.0049 3.19038 10.2153C3.45981 10.2667 3.77198 10.2667 4.25982 10.2666H4.31645H5.13312C5.39085 10.2666 5.59979 10.0577 5.59979 9.79994C5.59979 9.54225 5.39085 9.33327 5.13312 9.33327H4.31645C3.75284 9.33327 3.53652 9.33119 3.36544 9.29853C2.61584 9.15538 2.04552 8.59695 1.90158 7.90227C1.8689 7.74453 1.86645 7.54362 1.86645 6.99995C1.86645 6.45629 1.8689 6.25537 1.90158 6.09763C2.04552 5.40296 2.61584 4.84452 3.36544 4.70137C3.53652 4.66871 3.75284 4.66662 4.31645 4.66662H5.13312C5.39085 4.66662 5.59979 4.45768 5.59979 4.19995C5.59979 3.94222 5.39085 3.73328 5.13312 3.73328H4.31645ZM9.68311 4.66662C10.2468 4.66662 10.4631 4.66871 10.6342 4.70137C11.3837 4.84452 11.9541 5.40296 12.098 6.09763C12.1307 6.25537 12.1331 6.45629 12.1331 6.99995C12.1331 7.54362 12.1307 7.74453 12.098 7.90227C11.9541 8.59695 11.3837 9.15538 10.6342 9.29853C10.4631 9.33119 10.2468 9.33327 9.68311 9.33327H8.86645C8.60872 9.33327 8.39979 9.54225 8.39979 9.79994C8.39979 10.0577 8.60872 10.2666 8.86645 10.2666H9.68311H9.73976C10.2276 10.2667 10.5397 10.2667 10.8092 10.2153C11.9108 10.0049 12.7877 9.17414 13.0119 8.09163C13.0666 7.82763 13.0665 7.52265 13.0664 7.05887V6.99995V6.94103C13.0665 6.47725 13.0666 6.17227 13.0119 5.90827C12.7877 4.82577 11.9108 3.99497 10.8092 3.78461C10.5397 3.73316 10.2276 3.73321 9.73976 3.73328H9.68311H8.86645C8.60872 3.73328 8.39979 3.94222 8.39979 4.19995C8.39979 4.45768 8.60872 4.66662 8.86645 4.66662H9.68311ZM4.66708 6.53327C4.40935 6.53327 4.20041 6.74221 4.20041 6.99994C4.20041 7.25767 4.40935 7.46661 4.66708 7.46661H9.33376C9.59146 7.46661 9.80043 7.25767 9.80043 6.99994C9.80043 6.74221 9.59146 6.53327 9.33376 6.53327H4.66708Z" fill="#070F21"/>
</g>
</svg>
