<svg width="16" height="17" viewBox="0 0 16 17" fill="none" xmlns="http://www.w3.org/2000/svg">
<g opacity="0.7">
<path d="M12.7061 1.12842H2.38544C1.43772 1.12842 0.666687 1.89945 0.666687 2.84717V14.0763C0.666687 15.0241 1.43772 15.7951 2.38544 15.7951H13.6146C14.5623 15.7951 15.3334 15.0241 15.3334 14.0763V3.7557L12.7061 1.12842ZM5.16408 2.27425H8.57294V4.45133H9.71877V2.27425H10.8646V5.02425C10.8646 5.34016 10.6076 5.59717 10.2917 5.59717H5.737C5.42109 5.59717 5.16408 5.34016 5.16408 5.02425V2.27425ZM12.0104 14.6493H4.01825V10.2743C4.01825 9.95834 4.27526 9.70133 4.59117 9.70133H11.4375C11.7534 9.70133 12.0104 9.95834 12.0104 10.2743V14.6493ZM14.1875 14.0763C14.1875 14.3922 13.9305 14.6493 13.6146 14.6493H13.1563V10.2743C13.1563 9.32653 12.3852 8.5555 11.4375 8.5555H4.59117C3.64345 8.5555 2.87242 9.32653 2.87242 10.2743V14.6493H2.38544C2.06953 14.6493 1.81252 14.3922 1.81252 14.0763V2.84717C1.81252 2.53126 2.06953 2.27425 2.38544 2.27425H4.01825V5.02425C4.01825 5.97197 4.78928 6.743 5.737 6.743H10.2917C11.2394 6.743 12.0104 5.97197 12.0104 5.02425V2.27425H12.2315L14.1875 4.2303V14.0763Z" fill="#070F21"/>
</g>
</svg>
