<svg width="4" height="14" viewBox="0 0 4 14" fill="none" xmlns="http://www.w3.org/2000/svg">
<g opacity="0.6">
<path fill-rule="evenodd" clip-rule="evenodd" d="M6.58568 1.27295C4.94367 1.27295 3.61102 2.60602 3.61102 4.24761C3.61102 5.8892 4.94367 7.22227 6.58568 7.22227C8.22727 7.22227 9.56035 5.8892 9.56035 4.24761C9.56035 2.60602 8.22727 1.27295 6.58568 1.27295ZM6.58568 2.12285C7.75813 2.12285 8.71044 3.07474 8.71044 4.24761C8.71044 5.42048 7.75813 6.37237 6.58568 6.37237C5.41282 6.37237 4.46092 5.42048 4.46092 4.24761C4.46092 3.07474 5.41282 2.12285 6.58568 2.12285Z" fill="#070F21"/>
<path fill-rule="evenodd" clip-rule="evenodd" d="M1.48627 12.3218H6.74377C6.97834 12.3218 7.16872 12.5122 7.16872 12.7467C7.16872 12.9813 6.97834 13.1717 6.74377 13.1717H1.06132C0.826317 13.1717 0.636364 12.9813 0.636364 12.7467C0.636364 12.7467 0.636364 12.3961 0.636364 11.8968C0.636364 9.7844 2.34849 8.07227 4.46093 8.07227H6.74589C6.98047 8.07227 7.17085 8.26264 7.17085 8.49722C7.17085 8.73179 6.98047 8.92217 6.74589 8.92217H4.46093C2.81807 8.92217 1.48627 10.254 1.48627 11.8968V12.3218Z" fill="#070F21"/>
</g>
</svg>
