<svg width="20" height="20" viewBox="0 0 20 20" fill="none" xmlns="http://www.w3.org/2000/svg">
<path d="M8.16933 1.66675C8.0113 1.66662 7.85968 1.7292 7.74775 1.84075L1.84167 7.74681C1.78621 7.80222 1.7422 7.86801 1.71218 7.94044C1.68216 8.01286 1.66671 8.09049 1.66671 8.16889C1.66671 8.24729 1.68216 8.32492 1.71218 8.39734C1.7422 8.46976 1.78621 8.53556 1.84167 8.59096C2.41438 9.16367 3.12033 9.29194 3.63438 9.29194C3.84616 9.29194 4.03408 9.27106 4.18322 9.2462L7.92175 12.9847C7.82431 13.3824 7.76067 13.7861 7.73184 14.1938C7.67715 15.031 7.76962 16.2062 8.59091 17.0275C8.70276 17.1392 8.85439 17.202 9.01248 17.202C9.17058 17.202 9.3222 17.1392 9.43406 17.0275L12.8097 13.6519L16.6069 17.4501C16.8395 17.6827 18.0605 18.5259 18.2932 18.2932C18.5258 18.0606 17.6827 16.8376 17.45 16.6059L13.6538 12.8097L17.0274 9.43412C17.1392 9.32226 17.2019 9.17063 17.2019 9.01254C17.2019 8.85445 17.1392 8.70282 17.0274 8.59096C16.2072 7.76968 15.0319 7.67622 14.1937 7.7319C13.7861 7.75974 13.3814 7.82437 12.9857 7.9228L9.24614 4.18428C9.27732 4.00265 9.29329 3.81873 9.29387 3.63444C9.29387 3.12139 9.16461 2.41445 8.59091 1.84075C8.47897 1.7292 8.32735 1.66662 8.16933 1.66675ZM8.02416 4.18627V4.18428V4.18627ZM8.02416 4.18428V4.18627C7.98966 4.2912 7.98496 4.40364 8.01059 4.51108C8.03622 4.61851 8.09117 4.71673 8.16933 4.79478L12.3871 9.01155C12.4655 9.08973 12.5642 9.14453 12.672 9.16981C12.7798 9.1951 12.8926 9.18988 12.9976 9.15472H12.9996L13.0165 9.15075C13.4258 9.02903 13.8473 8.95235 14.2733 8.92206C14.7764 8.88826 15.2705 8.93101 15.6752 9.10103L9.09998 15.6733C8.93195 15.2676 8.88919 14.7744 8.923 14.2713C8.95334 13.845 9.03002 13.4233 9.15168 13.0136L9.15666 12.9986V12.9966C9.19192 12.8916 9.19721 12.7789 9.17192 12.671C9.14662 12.5632 9.09176 12.4645 9.01348 12.3862L4.79471 8.16839C4.71342 8.08654 4.61013 8.03001 4.49736 8.00566C4.3846 7.9813 4.26719 7.99017 4.15936 8.03118L4.04502 8.05703C3.94161 8.07692 3.79644 8.0978 3.63438 8.0978C3.49816 8.0978 3.35995 8.08487 3.22572 8.05007L8.052 3.2248C8.08499 3.35881 8.10103 3.49643 8.09973 3.63444C8.09873 3.81938 8.07387 4.00432 8.02516 4.18329L8.02416 4.18428Z" fill="#FF9900"/>
</svg>
