<svg width="14" height="14" viewBox="0 0 14 14" fill="none" xmlns="http://www.w3.org/2000/svg">
<g opacity="0.5">
<path d="M3.41141 10.0401L4.23792 9.21176L4.23804 9.21164C4.33856 9.11124 4.47484 9.05488 4.61691 9.05496C4.75899 9.05504 4.89521 9.11156 4.99561 9.21208C5.09601 9.3126 5.15237 9.44889 5.15228 9.59096C5.1522 9.73303 5.09568 9.86925 4.99516 9.96965M3.41141 10.0401L4.92449 9.8989M3.41141 10.0401V2.62769C3.41141 2.48575 3.35502 2.34962 3.25465 2.24926C3.15429 2.14889 3.01816 2.0925 2.87622 2.0925C2.73428 2.0925 2.59816 2.14889 2.49779 2.24926C2.39742 2.34962 2.34104 2.48575 2.34104 2.62769V10.0396L1.51448 9.21243L1.51445 9.2124C1.46468 9.16264 1.4056 9.12316 1.34058 9.09623C1.27556 9.06929 1.20586 9.05543 1.13548 9.05543C1.0651 9.05543 0.995411 9.06929 0.930389 9.09623C0.865365 9.12316 0.806283 9.16264 0.756517 9.2124C0.70675 9.26217 0.667273 9.32125 0.64034 9.38628C0.613406 9.4513 0.599544 9.52099 0.599544 9.59137C0.599544 9.66175 0.613406 9.73144 0.64034 9.79646C0.667273 9.86149 0.70675 9.92057 0.756517 9.97034L0.756546 9.97037L2.49729 11.7097L2.49716 11.7098L2.50153 11.7137L2.50639 11.718L3.41141 10.0401ZM4.99516 9.96965L4.92449 9.8989M4.99516 9.96965L4.9952 9.96961L4.92449 9.8989M4.99516 9.96965L3.25481 11.71L3.18375 11.6396M4.92449 9.8989L3.18375 11.6396M3.18375 11.6396L3.25446 11.7104L3.25453 11.7103L3.18375 11.6396ZM6.58808 11.8258L6.62635 11.7334L6.58808 11.8258C6.65301 11.8527 6.7226 11.8666 6.79288 11.8666H7.66325C7.73353 11.8666 7.80313 11.8527 7.86806 11.8258L7.82979 11.7334L7.86806 11.8258C7.93299 11.7989 7.99199 11.7595 8.04169 11.7098C8.09138 11.6601 8.1308 11.6011 8.1577 11.5362C8.1846 11.4713 8.19844 11.4017 8.19844 11.3314C8.19844 11.2611 8.1846 11.1915 8.1577 11.1266C8.1308 11.0616 8.09138 11.0026 8.04169 10.953C7.99199 10.9033 7.93299 10.8638 7.86806 10.8369L7.82979 10.9293L7.86806 10.8369C7.80313 10.81 7.73353 10.7962 7.66325 10.7962H6.79288C6.7226 10.7962 6.65301 10.81 6.58808 10.8369L6.62635 10.9293L6.58808 10.8369C6.52315 10.8638 6.46415 10.9033 6.41445 10.953C6.36476 11.0026 6.32533 11.0616 6.29844 11.1266C6.27154 11.1915 6.2577 11.2611 6.2577 11.3314C6.2577 11.4017 6.27154 11.4713 6.29844 11.5362C6.32533 11.6011 6.36476 11.6601 6.41445 11.7098C6.46415 11.7595 6.52315 11.7989 6.58808 11.8258ZM6.41445 3.11963C6.31409 3.21999 6.2577 3.35612 6.2577 3.49806C6.2577 3.64 6.31409 3.77613 6.41445 3.87649C6.51482 3.97686 6.65094 4.03324 6.79288 4.03324H12.8855C13.0274 4.03324 13.1635 3.97686 13.2639 3.87649C13.3643 3.77612 13.4207 3.64 13.4207 3.49806C13.4207 3.35612 13.3643 3.21999 13.2639 3.11963C13.1635 3.01926 13.0274 2.96287 12.8855 2.96287H6.79288C6.65094 2.96287 6.51482 3.01926 6.41445 3.11963ZM6.79288 5.57398C6.65094 5.57398 6.51482 5.63037 6.41445 5.73073C6.31409 5.8311 6.2577 5.96723 6.2577 6.10917C6.2577 6.25111 6.31409 6.38723 6.41445 6.4876C6.51482 6.58797 6.65094 6.64435 6.79288 6.64435H11.1447C11.2867 6.64435 11.4228 6.58797 11.5232 6.4876C11.6235 6.38723 11.6799 6.25111 11.6799 6.10917C11.6799 5.96723 11.6235 5.8311 11.5232 5.73074C11.4228 5.63037 11.2867 5.57398 11.1447 5.57398H6.79288ZM6.79288 8.18509C6.65094 8.18509 6.51482 8.24148 6.41445 8.34184C6.31409 8.44221 6.2577 8.57834 6.2577 8.72028C6.2577 8.86222 6.31409 8.99834 6.41445 9.09871C6.51482 9.19907 6.65094 9.25546 6.79288 9.25546H9.40399C9.54593 9.25546 9.68206 9.19907 9.78243 9.09871C9.88279 8.99834 9.93918 8.86222 9.93918 8.72028C9.93918 8.57834 9.88279 8.44221 9.78242 8.34184C9.68206 8.24148 9.54593 8.18509 9.40399 8.18509H6.79288Z" fill="#070F21" stroke="#070F21" stroke-width="0.2"/>
</g>
</svg>
