<svg width="18" height="18" viewBox="0 0 18 18" fill="none" xmlns="http://www.w3.org/2000/svg">
<g opacity="0.8" clip-path="url(#clip0_539_4816)">
<path d="M17.8163 8.53671L13.6538 4.12668C13.398 3.85534 12.9709 3.84297 12.6996 4.09901C12.4287 4.35485 12.4161 4.7821 12.6721 5.05323L16.3975 8.99975L12.6721 12.9467C12.4161 13.2179 12.4287 13.6449 12.6996 13.901C12.8301 14.024 12.9968 14.085 13.1629 14.085C13.3422 14.085 13.5213 14.0139 13.6539 13.8737L17.8164 9.46347C18.0618 9.20317 18.0618 8.7968 17.8163 8.53671Z" fill="#070F21"/>
<path d="M5.3285 12.9468L1.6034 9.00005L5.3285 5.05332C5.58434 4.78219 5.57196 4.3549 5.30084 4.0991C5.02992 3.84327 4.60242 3.85564 4.34662 4.12677L0.184097 8.53679C-0.0613656 8.79688 -0.0613656 9.20347 0.184097 9.46359L4.34683 13.8738C4.47958 14.0145 4.65846 14.0853 4.83779 14.0853C5.00384 14.0853 5.17058 14.0241 5.30084 13.901C5.57221 13.6452 5.58434 13.2179 5.3285 12.9468Z" fill="#070F21"/>
<path d="M10.0922 1.8522C9.72388 1.7964 9.37917 2.04928 9.32292 2.41762L7.34291 15.3777C7.28666 15.7462 7.53978 16.0907 7.90833 16.147C7.94299 16.1522 7.97716 16.1546 8.01116 16.1546C8.33899 16.1546 8.62654 15.9155 8.67762 15.5816L10.6576 2.62149C10.7139 2.25291 10.4608 1.90845 10.0922 1.8522Z" fill="#070F21"/>
</g>
<defs>
<clipPath id="clip0_539_4816">
<rect width="18" height="18" fill="white"/>
</clipPath>
</defs>
</svg>
