<svg width="1" height="15" viewBox="0 0 1 15" fill="none" xmlns="http://www.w3.org/2000/svg">
<g opacity="0.5">
<path d="M-9.58861 10.6957L-8.7621 9.8674L-8.76198 9.86728C-8.66146 9.76688 -8.52518 9.71052 -8.38311 9.7106C-8.24103 9.71068 -8.10481 9.7672 -8.00441 9.86772C-7.90401 9.96824 -7.84765 10.1045 -7.84774 10.2466C-7.84782 10.3887 -7.90434 10.5249 -8.00486 10.6253M-9.58861 10.6957L-8.07553 10.5545M-9.58861 10.6957V3.28333C-9.58861 3.14139 -9.645 3.00526 -9.74537 2.9049C-9.84573 2.80453 -9.98186 2.74814 -10.1238 2.74814C-10.2657 2.74814 -10.4019 2.80453 -10.5022 2.9049C-10.6026 3.00526 -10.659 3.14139 -10.659 3.28333V10.6952L-11.4855 9.86807L-11.4856 9.86804C-11.5353 9.81828 -11.5944 9.7788 -11.6594 9.75187C-11.7245 9.72493 -11.7942 9.71107 -11.8645 9.71107C-11.9349 9.71107 -12.0046 9.72493 -12.0696 9.75187C-12.1347 9.7788 -12.1937 9.81828 -12.2435 9.86804C-12.2933 9.91781 -12.3327 9.97689 -12.3597 10.0419C-12.3866 10.1069 -12.4005 10.1766 -12.4005 10.247C-12.4005 10.3174 -12.3866 10.3871 -12.3597 10.4521C-12.3327 10.5171 -12.2933 10.5762 -12.2435 10.626L-12.2435 10.626L-10.5027 12.3653L-10.5029 12.3654L-10.4985 12.3693L-10.4936 12.3736L-9.58861 10.6957ZM-8.00486 10.6253L-8.07553 10.5545M-8.00486 10.6253L-8.00482 10.6253L-8.07553 10.5545M-8.00486 10.6253L-9.74521 12.3656L-9.81627 12.2953M-8.07553 10.5545L-9.81627 12.2953M-9.81627 12.2953L-9.74556 12.366L-9.74549 12.3659L-9.81627 12.2953ZM-6.41194 12.4815L-6.37367 12.3891L-6.41194 12.4815C-6.34701 12.5084 -6.27742 12.5222 -6.20714 12.5222H-5.33677C-5.26649 12.5222 -5.19689 12.5084 -5.13196 12.4815L-5.17023 12.3891L-5.13196 12.4815C-5.06703 12.4546 -5.00803 12.4152 -4.95833 12.3655C-4.90864 12.3158 -4.86922 12.2568 -4.84232 12.1918C-4.81542 12.1269 -4.80158 12.0573 -4.80158 11.987C-4.80158 11.9167 -4.81542 11.8471 -4.84232 11.7822C-4.86922 11.7173 -4.90864 11.6583 -4.95833 11.6086C-5.00803 11.5589 -5.06703 11.5195 -5.13196 11.4926L-5.17023 11.585L-5.13196 11.4926C-5.19689 11.4657 -5.26649 11.4518 -5.33677 11.4518H-6.20714C-6.27742 11.4518 -6.34701 11.4657 -6.41194 11.4926L-6.37367 11.585L-6.41194 11.4926C-6.47687 11.5195 -6.53587 11.5589 -6.58557 11.6086C-6.63526 11.6583 -6.67469 11.7173 -6.70158 11.7822C-6.72848 11.8471 -6.74232 11.9167 -6.74232 11.987C-6.74232 12.0573 -6.72848 12.1269 -6.70158 12.1918C-6.67469 12.2568 -6.63526 12.3158 -6.58557 12.3655C-6.53587 12.4152 -6.47687 12.4546 -6.41194 12.4815ZM-6.58557 3.77527C-6.68593 3.87563 -6.74232 4.01176 -6.74232 4.1537C-6.74232 4.29564 -6.68593 4.43176 -6.58557 4.53213C-6.4852 4.6325 -6.34908 4.68888 -6.20714 4.68888H-0.11455C0.0273895 4.68888 0.163516 4.6325 0.263883 4.53213C0.364248 4.43176 0.420634 4.29564 0.420634 4.1537C0.420634 4.01176 0.364248 3.87563 0.263883 3.77527C0.163516 3.6749 0.0273895 3.61851 -0.11455 3.61851H-6.20714C-6.34908 3.61851 -6.4852 3.6749 -6.58557 3.77527ZM-6.20714 6.22962C-6.34908 6.22962 -6.4852 6.28601 -6.58557 6.38637C-6.68593 6.48674 -6.74232 6.62287 -6.74232 6.76481C-6.74232 6.90675 -6.68593 7.04287 -6.58557 7.14324C-6.4852 7.24361 -6.34908 7.29999 -6.20714 7.29999H-1.85529C-1.71335 7.29999 -1.57722 7.24361 -1.47686 7.14324C-1.37649 7.04287 -1.3201 6.90675 -1.3201 6.76481C-1.3201 6.62287 -1.37649 6.48674 -1.47686 6.38637C-1.57722 6.28601 -1.71335 6.22962 -1.85529 6.22962H-6.20714ZM-6.20714 8.84073C-6.34908 8.84073 -6.4852 8.89712 -6.58557 8.99748C-6.68593 9.09785 -6.74232 9.23398 -6.74232 9.37592C-6.74232 9.51786 -6.68593 9.65398 -6.58557 9.75435C-6.4852 9.85471 -6.34908 9.9111 -6.20714 9.9111H-3.59603C-3.45409 9.9111 -3.31796 9.85471 -3.21759 9.75435C-3.11723 9.65398 -3.06084 9.51785 -3.06084 9.37592C-3.06084 9.23398 -3.11723 9.09785 -3.2176 8.99748C-3.31796 8.89712 -3.45409 8.84073 -3.59603 8.84073H-6.20714Z" fill="#070F21" stroke="#070F21" stroke-width="0.2"/>
</g>
</svg>
