<svg width="14" height="14" viewBox="0 0 14 14" fill="none" xmlns="http://www.w3.org/2000/svg">
<g opacity="0.6" clip-path="url(#clip0_539_18507)">
<path d="M6.25877 11.8588C7.20583 11.8588 8.07054 11.6529 8.89407 11.2L11.1176 13.4235C11.7352 14.0411 12.7647 14.0411 13.4235 13.4235C14.0823 12.8058 14.0823 11.7352 13.4235 11.1176L11.2 8.89407C11.6117 8.11171 11.8588 7.20583 11.8588 6.25877C11.8588 3.21172 9.34701 0.699951 6.25877 0.699951C3.21172 0.699951 0.699951 3.21172 0.699951 6.25877C0.699951 9.34701 3.21172 11.8588 6.25877 11.8588ZM12.8058 11.6941C13.1352 12.0235 13.1352 12.5176 12.8058 12.847C12.4764 13.1764 11.9823 13.1764 11.6529 12.847L9.55289 10.747C10.047 10.3764 10.3352 10.0882 10.7058 9.59407L12.8058 11.6941ZM6.25877 1.52348C8.89407 1.52348 10.9941 3.66466 10.9941 6.25877C10.9941 8.89407 8.85289 10.9941 6.25877 10.9941C3.66466 11.0352 1.52348 8.89407 1.52348 6.25877C1.52348 3.66466 3.66466 1.52348 6.25877 1.52348Z" fill="#070F21"/>
<path d="M3.78819 8.93525H8.72936C8.97642 8.93525 9.14113 8.77054 9.14113 8.52348V7.90583C9.14113 7.0823 8.4823 6.25877 7.94701 5.80583C8.07054 5.55877 8.11172 5.31172 8.11172 5.02348C8.11172 3.99407 7.28819 3.17054 6.25877 3.17054C5.22936 3.17054 4.40583 3.99407 4.40583 5.02348C4.40583 5.31172 4.48819 5.55877 4.57054 5.80583C3.95289 6.25877 3.37642 6.99995 3.37642 7.90583V8.52348C3.37642 8.77054 3.5823 8.93525 3.78819 8.93525ZM6.25877 3.99407C6.83525 3.99407 7.28819 4.44701 7.28819 5.02348C7.28819 5.59995 6.83525 6.05289 6.25877 6.05289C5.6823 6.05289 5.22936 5.59995 5.22936 5.02348C5.22936 4.44701 5.72348 3.99407 6.25877 3.99407ZM4.19995 7.90583C4.19995 7.32936 4.61172 6.79407 5.10583 6.46466C5.43525 6.71172 5.80583 6.87642 6.25877 6.87642C6.71172 6.87642 7.0823 6.71172 7.41172 6.46466C7.7823 6.75289 8.3176 7.41172 8.3176 7.90583V8.11172H4.19995V7.90583Z" fill="#070F21"/>
</g>
<defs>
<clipPath id="clip0_539_18507">
<rect width="14" height="14" fill="white"/>
</clipPath>
</defs>
</svg>
