<svg width="14" height="14" viewBox="0 0 14 14" fill="none" xmlns="http://www.w3.org/2000/svg">
<g opacity="0.6">
<path fill-rule="evenodd" clip-rule="evenodd" d="M4.3164 3.7334H4.25976C3.77192 3.73333 3.45975 3.73328 3.19032 3.78473C2.08871 3.99509 1.2119 4.82589 0.98761 5.90839C0.932906 6.17239 0.932967 6.47738 0.93306 6.94116L0.933067 7.00007L0.93306 7.05898C0.932967 7.52277 0.932906 7.82775 0.98761 8.09175C1.2119 9.17426 2.08871 10.005 3.19032 10.2154C3.45976 10.2668 3.77193 10.2668 4.25977 10.2667H4.3164H5.13307C5.3908 10.2667 5.59973 10.0578 5.59973 9.80006C5.59973 9.54237 5.3908 9.33339 5.13307 9.33339H4.3164C3.75279 9.33339 3.53647 9.33131 3.36539 9.29865C2.61578 9.1555 2.04547 8.59707 1.90153 7.90239C1.86884 7.74466 1.8664 7.54374 1.8664 7.00007C1.8664 6.45641 1.86884 6.25549 1.90153 6.09775C2.04547 5.40308 2.61578 4.84464 3.36539 4.70149C3.53647 4.66883 3.75279 4.66674 4.3164 4.66674H5.13307C5.3908 4.66674 5.59973 4.4578 5.59973 4.20007C5.59973 3.94234 5.3908 3.7334 5.13307 3.7334H4.3164ZM9.68306 4.66674C10.2467 4.66674 10.463 4.66883 10.6341 4.70149C11.3837 4.84464 11.954 5.40308 12.098 6.09775C12.1306 6.25549 12.1331 6.45641 12.1331 7.00007C12.1331 7.54374 12.1306 7.74466 12.098 7.90239C11.954 8.59707 11.3837 9.1555 10.6341 9.29865C10.463 9.33131 10.2467 9.33339 9.68306 9.33339H8.8664C8.60867 9.33339 8.39973 9.54237 8.39973 9.80006C8.39973 10.0578 8.60867 10.2667 8.8664 10.2667H9.68306H9.73971C10.2276 10.2668 10.5397 10.2668 10.8091 10.2154C11.9107 10.005 12.7876 9.17426 13.0119 8.09175C13.0666 7.82775 13.0665 7.52277 13.0664 7.05899V7.00007V6.94115C13.0665 6.47738 13.0666 6.17239 13.0119 5.90839C12.7876 4.82589 11.9107 3.99509 10.8091 3.78473C10.5397 3.73328 10.2276 3.73333 9.73971 3.7334H9.68306H8.8664C8.60867 3.7334 8.39973 3.94234 8.39973 4.20007C8.39973 4.4578 8.60867 4.66674 8.8664 4.66674H9.68306ZM4.66703 6.53339C4.40929 6.53339 4.20036 6.74233 4.20036 7.00006C4.20036 7.25779 4.40929 7.46673 4.66703 7.46673H9.33371C9.5914 7.46673 9.80038 7.25779 9.80038 7.00006C9.80038 6.74233 9.5914 6.53339 9.33371 6.53339H4.66703Z" fill="#070F21"/>
</g>
</svg>
