<svg width="14" height="14" viewBox="0 0 14 14" fill="none" xmlns="http://www.w3.org/2000/svg">
<g opacity="0.6">
<path fill-rule="evenodd" clip-rule="evenodd" d="M6.58575 1.27295C4.94373 1.27295 3.61108 2.60602 3.61108 4.24761C3.61108 5.8892 4.94373 7.22227 6.58575 7.22227C8.22733 7.22227 9.56041 5.8892 9.56041 4.24761C9.56041 2.60602 8.22733 1.27295 6.58575 1.27295ZM6.58575 2.12285C7.75819 2.12285 8.71051 3.07474 8.71051 4.24761C8.71051 5.42048 7.75819 6.37237 6.58575 6.37237C5.41288 6.37237 4.46099 5.42048 4.46099 4.24761C4.46099 3.07474 5.41288 2.12285 6.58575 2.12285Z" fill="#070F21"/>
<path fill-rule="evenodd" clip-rule="evenodd" d="M1.48638 12.3218H6.74388C6.97845 12.3218 7.16883 12.5122 7.16883 12.7467C7.16883 12.9813 6.97845 13.1717 6.74388 13.1717H1.06143C0.826428 13.1717 0.636475 12.9813 0.636475 12.7467C0.636475 12.7467 0.636475 12.3961 0.636475 11.8968C0.636475 9.7844 2.3486 8.07227 4.46104 8.07227H6.746C6.98058 8.07227 7.17096 8.26264 7.17096 8.49722C7.17096 8.73179 6.98058 8.92217 6.746 8.92217H4.46104C2.81818 8.92217 1.48638 10.254 1.48638 11.8968V12.3218Z" fill="#070F21"/>
<path fill-rule="evenodd" clip-rule="evenodd" d="M9.25826 8.96817L9.9913 7.55223C10.0644 7.41114 10.2102 7.32275 10.3687 7.32275C10.5276 7.32275 10.6734 7.41114 10.746 7.55223L11.4795 8.96817L13.0527 9.22824C13.2095 9.25416 13.3386 9.36507 13.3875 9.51593C13.4368 9.66721 13.3977 9.83294 13.286 9.94598L12.1658 11.081L12.405 12.6576C12.4288 12.8144 12.363 12.9716 12.2346 13.0651C12.1063 13.1582 11.9363 13.1722 11.7944 13.1012L10.3687 12.3865L8.94337 13.1012C8.80144 13.1722 8.63146 13.1582 8.50312 13.0651C8.37479 12.9716 8.30892 12.8144 8.33272 12.6576L8.57154 11.081L7.45179 9.94598C7.34003 9.83294 7.30093 9.66721 7.3498 9.51593C7.3991 9.36507 7.52828 9.25416 7.68509 9.22824L9.25826 8.96817ZM10.3687 8.67155L9.91481 9.54823C9.85319 9.66721 9.73888 9.75008 9.60672 9.77218L8.63316 9.93281L9.32625 10.6357C9.42059 10.7309 9.46394 10.8652 9.44397 10.9977L9.29608 11.9734L10.1783 11.5315C10.2981 11.4711 10.4396 11.4711 10.5595 11.5315L11.4417 11.9734L11.2938 10.9977C11.2738 10.8652 11.3172 10.7309 11.4115 10.6357L12.1046 9.93281L11.131 9.77218C10.9984 9.75008 10.8846 9.66721 10.8229 9.54823L10.3687 8.67155Z" fill="#070F21"/>
</g>
</svg>
