<svg width="14" height="15" viewBox="0 0 14 15" fill="none" xmlns="http://www.w3.org/2000/svg">
<g opacity="0.5">
<path d="M3.41139 10.6957L4.2379 9.8674L4.23802 9.86728C4.33854 9.76688 4.47482 9.71052 4.61689 9.7106C4.75897 9.71068 4.89519 9.7672 4.99559 9.86772C5.09599 9.96824 5.15235 10.1045 5.15226 10.2466C5.15218 10.3887 5.09566 10.5249 4.99514 10.6253M3.41139 10.6957L4.92447 10.5545M3.41139 10.6957V3.28333C3.41139 3.14139 3.355 3.00526 3.25463 2.9049C3.15427 2.80453 3.01814 2.74814 2.8762 2.74814C2.73426 2.74814 2.59814 2.80453 2.49777 2.9049C2.3974 3.00526 2.34102 3.14139 2.34102 3.28333V10.6952L1.51446 9.86807L1.51443 9.86804C1.46466 9.81828 1.40558 9.7788 1.34056 9.75187C1.27554 9.72493 1.20584 9.71107 1.13546 9.71107C1.06508 9.71107 0.995391 9.72493 0.930368 9.75187C0.865345 9.7788 0.806263 9.81828 0.756497 9.86804C0.70673 9.91781 0.667253 9.97689 0.64032 10.0419C0.613386 10.1069 0.599524 10.1766 0.599524 10.247C0.599524 10.3174 0.613386 10.3871 0.64032 10.4521C0.667253 10.5171 0.70673 10.5762 0.756497 10.626L0.756526 10.626L2.49727 12.3653L2.49714 12.3654L2.50151 12.3693L2.50637 12.3736L3.41139 10.6957ZM4.99514 10.6253L4.92447 10.5545M4.99514 10.6253L4.99518 10.6253L4.92447 10.5545M4.99514 10.6253L3.25479 12.3656L3.18373 12.2953M4.92447 10.5545L3.18373 12.2953M3.18373 12.2953L3.25444 12.366L3.25451 12.3659L3.18373 12.2953ZM6.58806 12.4815L6.62633 12.3891L6.58806 12.4815C6.65299 12.5084 6.72258 12.5222 6.79286 12.5222H7.66323C7.73351 12.5222 7.80311 12.5084 7.86804 12.4815L7.82977 12.3891L7.86804 12.4815C7.93297 12.4546 7.99197 12.4152 8.04167 12.3655C8.09136 12.3158 8.13078 12.2568 8.15768 12.1918C8.18458 12.1269 8.19842 12.0573 8.19842 11.987C8.19842 11.9167 8.18458 11.8471 8.15768 11.7822C8.13078 11.7173 8.09136 11.6583 8.04167 11.6086C7.99197 11.5589 7.93297 11.5195 7.86804 11.4926L7.82977 11.585L7.86804 11.4926C7.80311 11.4657 7.73351 11.4518 7.66323 11.4518H6.79286C6.72258 11.4518 6.65299 11.4657 6.58806 11.4926L6.62633 11.585L6.58806 11.4926C6.52313 11.5195 6.46413 11.5589 6.41443 11.6086C6.36474 11.6583 6.32531 11.7173 6.29842 11.7822C6.27152 11.8471 6.25768 11.9167 6.25768 11.987C6.25768 12.0573 6.27152 12.1269 6.29842 12.1918C6.32531 12.2568 6.36474 12.3158 6.41443 12.3655C6.46413 12.4152 6.52313 12.4546 6.58806 12.4815ZM6.41443 3.77527C6.31407 3.87563 6.25768 4.01176 6.25768 4.1537C6.25768 4.29564 6.31407 4.43176 6.41443 4.53213C6.5148 4.6325 6.65092 4.68888 6.79286 4.68888H12.8855C13.0274 4.68888 13.1635 4.6325 13.2639 4.53213C13.3642 4.43176 13.4206 4.29564 13.4206 4.1537C13.4206 4.01176 13.3642 3.87563 13.2639 3.77527C13.1635 3.6749 13.0274 3.61851 12.8855 3.61851H6.79286C6.65092 3.61851 6.5148 3.6749 6.41443 3.77527ZM6.79286 6.22962C6.65092 6.22962 6.5148 6.28601 6.41443 6.38637C6.31407 6.48674 6.25768 6.62287 6.25768 6.76481C6.25768 6.90675 6.31407 7.04287 6.41443 7.14324C6.5148 7.24361 6.65092 7.29999 6.79286 7.29999H11.1447C11.2867 7.29999 11.4228 7.24361 11.5231 7.14324C11.6235 7.04287 11.6799 6.90675 11.6799 6.76481C11.6799 6.62287 11.6235 6.48674 11.5231 6.38637C11.4228 6.28601 11.2867 6.22962 11.1447 6.22962H6.79286ZM6.79286 8.84073C6.65092 8.84073 6.5148 8.89712 6.41443 8.99748C6.31407 9.09785 6.25768 9.23398 6.25768 9.37592C6.25768 9.51786 6.31407 9.65398 6.41443 9.75435C6.5148 9.85471 6.65092 9.9111 6.79286 9.9111H9.40397C9.54591 9.9111 9.68204 9.85471 9.78241 9.75435C9.88277 9.65398 9.93916 9.51785 9.93916 9.37592C9.93916 9.23398 9.88277 9.09785 9.7824 8.99748C9.68204 8.89712 9.54591 8.84073 9.40397 8.84073H6.79286Z" fill="#070F21" stroke="#070F21" stroke-width="0.2"/>
</g>
</svg>
