<svg width="14" height="14" viewBox="0 0 14 14" fill="none" xmlns="http://www.w3.org/2000/svg">
<g opacity="0.5">
<path d="M3.41142 10.0401L4.23793 9.21176L4.23805 9.21164C4.33857 9.11124 4.47485 9.05488 4.61692 9.05496C4.759 9.05504 4.89522 9.11156 4.99562 9.21208C5.09602 9.3126 5.15238 9.44889 5.15229 9.59096C5.15221 9.73303 5.09569 9.86925 4.99517 9.96965M3.41142 10.0401L4.9245 9.8989M3.41142 10.0401V2.62769C3.41142 2.48575 3.35503 2.34962 3.25467 2.24926C3.1543 2.14889 3.01817 2.0925 2.87623 2.0925C2.73429 2.0925 2.59817 2.14889 2.4978 2.24926C2.39743 2.34962 2.34105 2.48575 2.34105 2.62769V10.0396L1.51449 9.21243L1.51446 9.2124C1.46469 9.16264 1.40561 9.12316 1.34059 9.09623C1.27557 9.06929 1.20587 9.05543 1.13549 9.05543C1.06511 9.05543 0.995422 9.06929 0.930399 9.09623C0.865375 9.12316 0.806294 9.16264 0.756528 9.2124C0.706761 9.26217 0.667284 9.32125 0.64035 9.38628C0.613417 9.4513 0.599554 9.52099 0.599554 9.59137C0.599554 9.66175 0.613417 9.73144 0.64035 9.79646C0.667284 9.86149 0.706761 9.92057 0.756527 9.97034L0.756557 9.97037L2.4973 11.7097L2.49717 11.7098L2.50154 11.7137L2.5064 11.718L3.41142 10.0401ZM4.99517 9.96965L4.9245 9.8989M4.99517 9.96965L4.99521 9.96961L4.9245 9.8989M4.99517 9.96965L3.25482 11.71L3.18376 11.6396M4.9245 9.8989L3.18376 11.6396M3.18376 11.6396L3.25447 11.7104L3.25454 11.7103L3.18376 11.6396ZM6.58809 11.8258L6.62636 11.7334L6.58809 11.8258C6.65302 11.8527 6.72261 11.8666 6.7929 11.8666H7.66326C7.73355 11.8666 7.80314 11.8527 7.86807 11.8258L7.8298 11.7334L7.86807 11.8258C7.933 11.7989 7.992 11.7595 8.0417 11.7098C8.09139 11.6601 8.13082 11.6011 8.15771 11.5362C8.18461 11.4713 8.19845 11.4017 8.19845 11.3314C8.19845 11.2611 8.18461 11.1915 8.15771 11.1266C8.13082 11.0616 8.09139 11.0026 8.0417 10.953C7.992 10.9033 7.933 10.8638 7.86807 10.8369L7.8298 10.9293L7.86807 10.8369C7.80314 10.81 7.73355 10.7962 7.66326 10.7962H6.7929C6.72261 10.7962 6.65302 10.81 6.58809 10.8369L6.62636 10.9293L6.58809 10.8369C6.52316 10.8638 6.46416 10.9033 6.41446 10.953C6.36477 11.0026 6.32534 11.0616 6.29845 11.1266C6.27155 11.1915 6.25771 11.2611 6.25771 11.3314C6.25771 11.4017 6.27155 11.4713 6.29845 11.5362C6.32534 11.6011 6.36477 11.6601 6.41446 11.7098C6.46416 11.7595 6.52316 11.7989 6.58809 11.8258ZM6.41446 3.11963C6.3141 3.21999 6.25771 3.35612 6.25771 3.49806C6.25771 3.64 6.3141 3.77613 6.41446 3.87649C6.51483 3.97686 6.65096 4.03324 6.7929 4.03324H12.8855C13.0274 4.03324 13.1635 3.97686 13.2639 3.87649C13.3643 3.77612 13.4207 3.64 13.4207 3.49806C13.4207 3.35612 13.3643 3.21999 13.2639 3.11963C13.1635 3.01926 13.0274 2.96287 12.8855 2.96287H6.7929C6.65096 2.96287 6.51483 3.01926 6.41446 3.11963ZM6.7929 5.57398C6.65096 5.57398 6.51483 5.63037 6.41446 5.73073C6.3141 5.8311 6.25771 5.96723 6.25771 6.10917C6.25771 6.25111 6.3141 6.38723 6.41446 6.4876C6.51483 6.58797 6.65096 6.64435 6.7929 6.64435H11.1447C11.2867 6.64435 11.4228 6.58797 11.5232 6.4876C11.6235 6.38723 11.6799 6.25111 11.6799 6.10917C11.6799 5.96723 11.6235 5.8311 11.5232 5.73074C11.4228 5.63037 11.2867 5.57398 11.1447 5.57398H6.7929ZM6.7929 8.18509C6.65096 8.18509 6.51483 8.24148 6.41446 8.34184C6.3141 8.44221 6.25771 8.57834 6.25771 8.72028C6.25771 8.86222 6.3141 8.99834 6.41446 9.09871C6.51483 9.19907 6.65095 9.25546 6.7929 9.25546H9.404C9.54594 9.25546 9.68207 9.19907 9.78244 9.09871C9.8828 8.99834 9.93919 8.86222 9.93919 8.72028C9.93919 8.57834 9.8828 8.44221 9.78244 8.34184C9.68207 8.24148 9.54594 8.18509 9.404 8.18509H6.7929Z" fill="#070F21" stroke="#070F21" stroke-width="0.2"/>
</g>
</svg>
