<svg width="14" height="15" viewBox="0 0 14 15" fill="none" xmlns="http://www.w3.org/2000/svg">
<g opacity="0.6">
<path fill-rule="evenodd" clip-rule="evenodd" d="M4.31645 4.60206H4.25981C3.77197 4.60198 3.4598 4.60193 3.19038 4.65338C2.08876 4.86374 1.21195 5.69454 0.987664 6.77704C0.932959 7.04104 0.933021 7.34603 0.933113 7.80981L0.93312 7.86872L0.933113 7.92763C0.933021 8.39142 0.932959 8.6964 0.987664 8.96041C1.21195 10.0429 2.08876 10.8737 3.19038 11.084C3.45981 11.1355 3.77198 11.1355 4.25982 11.1354H4.31645H5.13312C5.39085 11.1354 5.59979 10.9265 5.59979 10.6687C5.59979 10.411 5.39085 10.202 5.13312 10.202H4.31645C3.75284 10.202 3.53652 10.2 3.36544 10.1673C2.61584 10.0242 2.04552 9.46572 1.90158 8.77104C1.8689 8.61331 1.86645 8.41239 1.86645 7.86872C1.86645 7.32507 1.8689 7.12415 1.90158 6.9664C2.04552 6.27173 2.61584 5.71329 3.36544 5.57015C3.53652 5.53748 3.75284 5.53539 4.31645 5.53539H5.13312C5.39085 5.53539 5.59979 5.32645 5.59979 5.06872C5.59979 4.81099 5.39085 4.60206 5.13312 4.60206H4.31645ZM9.68311 5.53539C10.2468 5.53539 10.4631 5.53748 10.6342 5.57015C11.3837 5.71329 11.9541 6.27173 12.098 6.9664C12.1307 7.12415 12.1331 7.32507 12.1331 7.86872C12.1331 8.41239 12.1307 8.61331 12.098 8.77104C11.9541 9.46572 11.3837 10.0242 10.6342 10.1673C10.4631 10.2 10.2468 10.202 9.68311 10.202H8.86645C8.60872 10.202 8.39979 10.411 8.39979 10.6687C8.39979 10.9265 8.60872 11.1354 8.86645 11.1354H9.68311H9.73976C10.2276 11.1355 10.5397 11.1355 10.8092 11.084C11.9108 10.8737 12.7877 10.0429 13.0119 8.96041C13.0666 8.6964 13.0665 8.39143 13.0664 7.92764V7.86872V7.8098C13.0665 7.34603 13.0666 7.04104 13.0119 6.77704C12.7877 5.69454 11.9108 4.86374 10.8092 4.65338C10.5397 4.60193 10.2276 4.60198 9.73976 4.60206H9.68311H8.86645C8.60872 4.60206 8.39979 4.81099 8.39979 5.06872C8.39979 5.32645 8.60872 5.53539 8.86645 5.53539H9.68311ZM4.66708 7.40205C4.40935 7.40205 4.20041 7.61098 4.20041 7.86871C4.20041 8.12644 4.40935 8.33538 4.66708 8.33538H9.33376C9.59146 8.33538 9.80043 8.12644 9.80043 7.86871C9.80043 7.61098 9.59146 7.40205 9.33376 7.40205H4.66708Z" fill="#070F21"/>
</g>
</svg>
