<svg width="14" height="14" viewBox="0 0 14 14" fill="none" xmlns="http://www.w3.org/2000/svg">
<g opacity="0.6">
<path fill-rule="evenodd" clip-rule="evenodd" d="M4.31645 3.73334H4.25981C3.77197 3.73327 3.4598 3.73322 3.19038 3.78467C2.08876 3.99503 1.21195 4.82583 0.987664 5.90833C0.932959 6.17233 0.933021 6.47732 0.933113 6.9411L0.93312 7.00001L0.933113 7.05892C0.933021 7.5227 0.932959 7.82769 0.987664 8.09169C1.21195 9.1742 2.08876 10.005 3.19038 10.2153C3.45981 10.2668 3.77198 10.2668 4.25982 10.2667H4.31645H5.13312C5.39085 10.2667 5.59979 10.0578 5.59979 9.8C5.59979 9.54231 5.39085 9.33333 5.13312 9.33333H4.31645C3.75284 9.33333 3.53652 9.33125 3.36544 9.29859C2.61584 9.15544 2.04552 8.59701 1.90158 7.90233C1.8689 7.7446 1.86645 7.54368 1.86645 7.00001C1.86645 6.45635 1.8689 6.25543 1.90158 6.09769C2.04552 5.40302 2.61584 4.84458 3.36544 4.70143C3.53652 4.66877 3.75284 4.66668 4.31645 4.66668H5.13312C5.39085 4.66668 5.59979 4.45774 5.59979 4.20001C5.59979 3.94228 5.39085 3.73334 5.13312 3.73334H4.31645ZM9.68311 4.66668C10.2468 4.66668 10.4631 4.66877 10.6342 4.70143C11.3837 4.84458 11.9541 5.40302 12.098 6.09769C12.1307 6.25543 12.1331 6.45635 12.1331 7.00001C12.1331 7.54368 12.1307 7.7446 12.098 7.90233C11.9541 8.59701 11.3837 9.15544 10.6342 9.29859C10.4631 9.33125 10.2468 9.33333 9.68311 9.33333H8.86645C8.60872 9.33333 8.39979 9.54231 8.39979 9.8C8.39979 10.0578 8.60872 10.2667 8.86645 10.2667H9.68311H9.73976C10.2276 10.2668 10.5397 10.2668 10.8092 10.2153C11.9108 10.005 12.7877 9.1742 13.0119 8.09169C13.0666 7.82769 13.0665 7.52271 13.0664 7.05893V7.00001V6.94109C13.0665 6.47732 13.0666 6.17233 13.0119 5.90833C12.7877 4.82583 11.9108 3.99503 10.8092 3.78467C10.5397 3.73322 10.2276 3.73327 9.73976 3.73334H9.68311H8.86645C8.60872 3.73334 8.39979 3.94228 8.39979 4.20001C8.39979 4.45774 8.60872 4.66668 8.86645 4.66668H9.68311ZM4.66708 6.53333C4.40935 6.53333 4.20041 6.74227 4.20041 7C4.20041 7.25773 4.40935 7.46667 4.66708 7.46667H9.33376C9.59146 7.46667 9.80043 7.25773 9.80043 7C9.80043 6.74227 9.59146 6.53333 9.33376 6.53333H4.66708Z" fill="#070F21"/>
</g>
</svg>
