<svg width="20" height="20" viewBox="0 0 20 20" fill="none" xmlns="http://www.w3.org/2000/svg">
<path d="M8.16928 1.66675C8.01126 1.66662 7.85964 1.7292 7.7477 1.84075L1.84163 7.74681C1.78616 7.80222 1.74216 7.86801 1.71213 7.94044C1.68211 8.01286 1.66666 8.09049 1.66666 8.16889C1.66666 8.24729 1.68211 8.32492 1.71213 8.39734C1.74216 8.46976 1.78616 8.53556 1.84163 8.59096C2.41434 9.16367 3.12028 9.29194 3.63433 9.29194C3.84611 9.29194 4.03403 9.27106 4.18318 9.2462L7.9217 12.9847C7.82426 13.3824 7.76063 13.7861 7.73179 14.1938C7.67711 15.031 7.76958 16.2062 8.59086 17.0275C8.70272 17.1392 8.85435 17.202 9.01244 17.202C9.17053 17.202 9.32216 17.1392 9.43402 17.0275L12.8096 13.6519L16.6068 17.4501C16.8395 17.6827 18.0605 18.5259 18.2931 18.2932C18.5258 18.0606 17.6826 16.8376 17.45 16.6059L13.6538 12.8097L17.0274 9.43412C17.1391 9.32226 17.2019 9.17063 17.2019 9.01254C17.2019 8.85445 17.1391 8.70282 17.0274 8.59096C16.2071 7.76968 15.0319 7.67622 14.1937 7.7319C13.786 7.75974 13.3813 7.82437 12.9856 7.9228L9.2461 4.18428C9.27728 4.00265 9.29324 3.81873 9.29382 3.63444C9.29382 3.12139 9.16456 2.41445 8.59086 1.84075C8.47892 1.7292 8.32731 1.66662 8.16928 1.66675ZM8.02412 4.18627V4.18428V4.18627ZM8.02412 4.18428V4.18627C7.98961 4.2912 7.98491 4.40364 8.01054 4.51108C8.03617 4.61851 8.09113 4.71673 8.16928 4.79478L12.3871 9.01155C12.4655 9.08973 12.5641 9.14453 12.672 9.16981C12.7798 9.1951 12.8925 9.18988 12.9975 9.15472H12.9995L13.0164 9.15075C13.4258 9.02903 13.8472 8.95235 14.2732 8.92206C14.7763 8.88826 15.2705 8.93101 15.6752 9.10103L9.09994 15.6733C8.9319 15.2676 8.88915 14.7744 8.92295 14.2713C8.95329 13.845 9.02997 13.4233 9.15164 13.0136L9.15661 12.9986V12.9966C9.19188 12.8916 9.19716 12.7789 9.17187 12.671C9.14658 12.5632 9.09171 12.4645 9.01343 12.3862L4.79467 8.16839C4.71337 8.08654 4.61008 8.03001 4.49732 8.00566C4.38455 7.9813 4.26714 7.99017 4.15931 8.03118L4.04497 8.05703C3.94157 8.07692 3.7964 8.0978 3.63433 8.0978C3.49811 8.0978 3.35991 8.08487 3.22568 8.05007L8.05196 3.2248C8.08495 3.35881 8.10098 3.49643 8.09968 3.63444C8.09869 3.81938 8.07383 4.00432 8.02511 4.18329L8.02412 4.18428Z" fill="#FF9900"/>
</svg>
