<svg width="16" height="16" viewBox="0 0 16 16" fill="none" xmlns="http://www.w3.org/2000/svg">
<g opacity="0.7" clip-path="url(#clip0_2_2919)">
<path d="M12.7059 0.666504H2.38525C1.43754 0.666504 0.666504 1.43754 0.666504 2.38525V13.6144C0.666504 14.5621 1.43754 15.3332 2.38525 15.3332H13.6144C14.5621 15.3332 15.3332 14.5621 15.3332 13.6144V3.29379L12.7059 0.666504ZM5.1639 1.81234H8.57275V3.98942H9.71859V1.81234H10.8644V4.56234C10.8644 4.87824 10.6074 5.13525 10.2915 5.13525H5.73682C5.42091 5.13525 5.1639 4.87824 5.1639 4.56234V1.81234ZM12.0103 14.1873H4.01807V9.81234C4.01807 9.49643 4.27508 9.23942 4.59098 9.23942H11.4373C11.7532 9.23942 12.0103 9.49643 12.0103 9.81234V14.1873ZM14.1873 13.6144C14.1873 13.9303 13.9303 14.1873 13.6144 14.1873H13.1561V9.81234C13.1561 8.86462 12.3851 8.09359 11.4373 8.09359H4.59098C3.64326 8.09359 2.87223 8.86462 2.87223 9.81234V14.1873H2.38525C2.06935 14.1873 1.81234 13.9303 1.81234 13.6144V2.38525C1.81234 2.06935 2.06935 1.81234 2.38525 1.81234H4.01807V4.56234C4.01807 5.51006 4.7891 6.28109 5.73682 6.28109H10.2915C11.2392 6.28109 12.0103 5.51006 12.0103 4.56234V1.81234H12.2313L14.1873 3.76839V13.6144Z" fill="#070F21"/>
</g>
<defs>
<clipPath id="clip0_2_2919">
<rect width="16" height="16" fill="white"/>
</clipPath>
</defs>
</svg>
