<svg width="14" height="15" viewBox="0 0 14 15" fill="none" xmlns="http://www.w3.org/2000/svg">
<g opacity="0.6">
<path d="M4.08337 4.9519H9.91671" stroke="#070F21" stroke-linecap="round" stroke-linejoin="round"/>
<path d="M4.08337 7.2854H6.41671" stroke="#070F21" stroke-linecap="round" stroke-linejoin="round"/>
<path d="M1.75 3.78532V12.9979C1.75001 13.0556 1.76715 13.112 1.79923 13.16C1.83132 13.208 1.87691 13.2453 1.93025 13.2674C1.98359 13.2894 2.04226 13.2952 2.09885 13.2838C2.15545 13.2725 2.20741 13.2447 2.24817 13.2038L4.49575 10.9562C4.60512 10.8468 4.75347 10.7854 4.90817 10.7853H11.0833C11.3928 10.7853 11.6895 10.6624 11.9083 10.4436C12.1271 10.2248 12.25 9.92807 12.25 9.61865V3.78532C12.25 3.4759 12.1271 3.17915 11.9083 2.96036C11.6895 2.74157 11.3928 2.61865 11.0833 2.61865H2.91667C2.60725 2.61865 2.3105 2.74157 2.09171 2.96036C1.87292 3.17915 1.75 3.4759 1.75 3.78532V3.78532Z" stroke="#070F21" stroke-linecap="round" stroke-linejoin="round"/>
</g>
</svg>
