<svg width="14" height="14" viewBox="0 0 14 14" fill="none" xmlns="http://www.w3.org/2000/svg">
<g opacity="0.5">
<path d="M3.41133 10.0401L4.23784 9.21176L4.23796 9.21164C4.33847 9.11124 4.47476 9.05488 4.61683 9.05496C4.7589 9.05504 4.89512 9.11156 4.99553 9.21208C5.09593 9.3126 5.15228 9.44889 5.1522 9.59096C5.15212 9.73303 5.0956 9.86925 4.99508 9.96965M3.41133 10.0401L4.92441 9.8989M3.41133 10.0401V2.62769C3.41133 2.48575 3.35494 2.34962 3.25457 2.24926C3.15421 2.14889 3.01808 2.0925 2.87614 2.0925C2.7342 2.0925 2.59808 2.14889 2.49771 2.24926C2.39734 2.34962 2.34096 2.48575 2.34096 2.62769V10.0396L1.51439 9.21243L1.51437 9.2124C1.4646 9.16264 1.40552 9.12316 1.3405 9.09623C1.27547 9.06929 1.20578 9.05543 1.1354 9.05543C1.06502 9.05543 0.99533 9.06929 0.930307 9.09623C0.865284 9.12316 0.806202 9.16264 0.756436 9.2124C0.706669 9.26217 0.667192 9.32125 0.640259 9.38628C0.613325 9.4513 0.599463 9.52099 0.599463 9.59137C0.599463 9.66175 0.613325 9.73144 0.640259 9.79646C0.667192 9.86149 0.706669 9.92057 0.756436 9.97034L0.756465 9.97037L2.4972 11.7097L2.49708 11.7098L2.50145 11.7137L2.50631 11.718L3.41133 10.0401ZM4.99508 9.96965L4.92441 9.8989M4.99508 9.96965L4.99512 9.96961L4.92441 9.8989M4.99508 9.96965L3.25473 11.71L3.18367 11.6396M4.92441 9.8989L3.18367 11.6396M3.18367 11.6396L3.25438 11.7104L3.25445 11.7103L3.18367 11.6396ZM6.588 11.8258L6.62627 11.7334L6.588 11.8258C6.65293 11.8527 6.72252 11.8666 6.7928 11.8666H7.66317C7.73345 11.8666 7.80305 11.8527 7.86798 11.8258L7.82971 11.7334L7.86798 11.8258C7.93291 11.7989 7.99191 11.7595 8.04161 11.7098C8.0913 11.6601 8.13072 11.6011 8.15762 11.5362C8.18451 11.4713 8.19836 11.4017 8.19836 11.3314C8.19836 11.2611 8.18451 11.1915 8.15762 11.1266C8.13072 11.0616 8.0913 11.0026 8.04161 10.953C7.99191 10.9033 7.93291 10.8638 7.86798 10.8369L7.82971 10.9293L7.86798 10.8369C7.80305 10.81 7.73345 10.7962 7.66317 10.7962H6.7928C6.72252 10.7962 6.65293 10.81 6.588 10.8369L6.62627 10.9293L6.588 10.8369C6.52306 10.8638 6.46407 10.9033 6.41437 10.953C6.36467 11.0026 6.32525 11.0616 6.29836 11.1266C6.27146 11.1915 6.25762 11.2611 6.25762 11.3314C6.25762 11.4017 6.27146 11.4713 6.29836 11.5362C6.32525 11.6011 6.36467 11.6601 6.41437 11.7098C6.46407 11.7595 6.52307 11.7989 6.588 11.8258ZM6.41437 3.11963C6.314 3.21999 6.25762 3.35612 6.25762 3.49806C6.25762 3.64 6.314 3.77613 6.41437 3.87649C6.51474 3.97686 6.65086 4.03324 6.7928 4.03324H12.8854C13.0273 4.03324 13.1635 3.97686 13.2638 3.87649C13.3642 3.77612 13.4206 3.64 13.4206 3.49806C13.4206 3.35612 13.3642 3.21999 13.2638 3.11963C13.1635 3.01926 13.0273 2.96287 12.8854 2.96287H6.7928C6.65086 2.96287 6.51474 3.01926 6.41437 3.11963ZM6.7928 5.57398C6.65086 5.57398 6.51474 5.63037 6.41437 5.73073C6.314 5.8311 6.25762 5.96723 6.25762 6.10917C6.25762 6.25111 6.314 6.38723 6.41437 6.4876C6.51474 6.58797 6.65086 6.64435 6.7928 6.64435H11.1446C11.2866 6.64435 11.4227 6.58797 11.5231 6.4876C11.6234 6.38723 11.6798 6.25111 11.6798 6.10917C11.6798 5.96723 11.6234 5.8311 11.5231 5.73074C11.4227 5.63037 11.2866 5.57398 11.1446 5.57398H6.7928ZM6.7928 8.18509C6.65086 8.18509 6.51474 8.24148 6.41437 8.34184C6.314 8.44221 6.25762 8.57834 6.25762 8.72028C6.25762 8.86222 6.314 8.99834 6.41437 9.09871C6.51474 9.19907 6.65086 9.25546 6.7928 9.25546H9.40391C9.54585 9.25546 9.68198 9.19907 9.78234 9.09871C9.88271 8.99834 9.9391 8.86222 9.9391 8.72028C9.9391 8.57834 9.88271 8.44221 9.78234 8.34184C9.68198 8.24148 9.54585 8.18509 9.40391 8.18509H6.7928Z" fill="#070F21" stroke="#070F21" stroke-width="0.2"/>
</g>
</svg>
