<svg width="14" height="14" viewBox="0 0 14 14" fill="none" xmlns="http://www.w3.org/2000/svg">
<g opacity="0.5">
<path d="M3.41145 10.0402L4.23796 9.21188L4.23808 9.21176C4.3386 9.11136 4.47488 9.055 4.61695 9.05508C4.75903 9.05517 4.89525 9.11169 4.99565 9.2122C5.09605 9.31272 5.15241 9.44901 5.15232 9.59108C5.15224 9.73315 5.09572 9.86937 4.9952 9.96978M3.41145 10.0402L4.92453 9.89902M3.41145 10.0402V2.62781C3.41145 2.48587 3.35506 2.34975 3.2547 2.24938C3.15433 2.14901 3.0182 2.09263 2.87626 2.09263C2.73432 2.09263 2.5982 2.14901 2.49783 2.24938C2.39746 2.34975 2.34108 2.48587 2.34108 2.62781V10.0397L1.51452 9.21255L1.51449 9.21253C1.46472 9.16276 1.40564 9.12328 1.34062 9.09635C1.2756 9.06942 1.20591 9.05555 1.13552 9.05555C1.06514 9.05555 0.995452 9.06942 0.93043 9.09635C0.865406 9.12328 0.806324 9.16276 0.756558 9.21253C0.706791 9.26229 0.667314 9.32137 0.640381 9.3864C0.613447 9.45142 0.599585 9.52111 0.599585 9.59149C0.599585 9.66187 0.613447 9.73156 0.640381 9.79659C0.667314 9.86161 0.706791 9.92069 0.756558 9.97046L0.756587 9.97049L2.49733 11.7098L2.49721 11.7099L2.50157 11.7138L2.50643 11.7181L3.41145 10.0402ZM4.9952 9.96978L4.92453 9.89902M4.9952 9.96978L4.99524 9.96973L4.92453 9.89902M4.9952 9.96978L3.25485 11.7101L3.18379 11.6398M4.92453 9.89902L3.18379 11.6398M3.18379 11.6398L3.2545 11.7105L3.25457 11.7104L3.18379 11.6398ZM6.58812 11.826L6.62639 11.7336L6.58812 11.826C6.65305 11.8528 6.72264 11.8667 6.79293 11.8667H7.66329C7.73358 11.8667 7.80317 11.8528 7.8681 11.826L7.82983 11.7336L7.8681 11.826C7.93303 11.7991 7.99203 11.7596 8.04173 11.7099C8.09142 11.6602 8.13085 11.6012 8.15774 11.5363C8.18464 11.4714 8.19848 11.4018 8.19848 11.3315C8.19848 11.2612 8.18464 11.1916 8.15774 11.1267C8.13085 11.0618 8.09142 11.0028 8.04173 10.9531C7.99203 10.9034 7.93303 10.864 7.8681 10.8371L7.82983 10.9294L7.8681 10.8371C7.80317 10.8102 7.73358 10.7963 7.66329 10.7963H6.79293C6.72264 10.7963 6.65305 10.8102 6.58812 10.8371L6.62639 10.9294L6.58812 10.8371C6.52319 10.864 6.46419 10.9034 6.41449 10.9531C6.3648 11.0028 6.32538 11.0618 6.29848 11.1267C6.27158 11.1916 6.25774 11.2612 6.25774 11.3315C6.25774 11.4018 6.27158 11.4714 6.29848 11.5363C6.32538 11.6012 6.3648 11.6602 6.41449 11.7099C6.46419 11.7596 6.52319 11.7991 6.58812 11.826ZM6.41449 3.11975C6.31413 3.22011 6.25774 3.35624 6.25774 3.49818C6.25774 3.64012 6.31413 3.77625 6.41449 3.87661C6.51486 3.97698 6.65099 4.03337 6.79293 4.03337H12.8855C13.0275 4.03337 13.1636 3.97698 13.2639 3.87661C13.3643 3.77625 13.4207 3.64012 13.4207 3.49818C13.4207 3.35624 13.3643 3.22011 13.2639 3.11975C13.1636 3.01938 13.0275 2.963 12.8855 2.963H6.79293C6.65099 2.963 6.51486 3.01938 6.41449 3.11975ZM6.79293 5.5741C6.65099 5.5741 6.51486 5.63049 6.41449 5.73086C6.31413 5.83122 6.25774 5.96735 6.25774 6.10929C6.25774 6.25123 6.31413 6.38736 6.41449 6.48772C6.51486 6.58809 6.65099 6.64447 6.79293 6.64447H11.1448C11.2867 6.64447 11.4228 6.58809 11.5232 6.48772C11.6236 6.38736 11.68 6.25123 11.68 6.10929C11.68 5.96735 11.6236 5.83122 11.5232 5.73086C11.4228 5.63049 11.2867 5.5741 11.1448 5.5741H6.79293ZM6.79293 8.18521C6.65099 8.18521 6.51486 8.2416 6.41449 8.34196C6.31413 8.44233 6.25774 8.57846 6.25774 8.7204C6.25774 8.86234 6.31413 8.99846 6.41449 9.09883C6.51486 9.1992 6.65099 9.25558 6.79293 9.25558H9.40403C9.54597 9.25558 9.6821 9.1992 9.78247 9.09883C9.88283 8.99846 9.93922 8.86234 9.93922 8.7204C9.93922 8.57846 9.88283 8.44233 9.78247 8.34196C9.6821 8.2416 9.54597 8.18521 9.40403 8.18521H6.79293Z" fill="#070F21" stroke="#070F21" stroke-width="0.2"/>
</g>
</svg>
