<svg width="20" height="20" viewBox="0 0 20 20" fill="none" xmlns="http://www.w3.org/2000/svg">
<g opacity="0.6" clip-path="url(#clip0_2_2310)">
<path d="M15.8825 0.833374H2.98175C1.7971 0.833374 0.833313 1.79716 0.833313 2.98181V17.0183C0.833313 18.2029 1.7971 19.1667 2.98175 19.1667H17.0182C18.2029 19.1667 19.1666 18.2029 19.1666 17.0183V4.11748L15.8825 0.833374ZM6.45506 2.26567H10.7161V4.98702H12.1484V2.26567H13.5807V5.70317C13.5807 6.09805 13.2594 6.41931 12.8646 6.41931H7.1712C6.77632 6.41931 6.45506 6.09805 6.45506 5.70317V2.26567ZM15.013 17.7344H5.02277V12.2657C5.02277 11.8708 5.34403 11.5495 5.73891 11.5495H14.2969C14.6917 11.5495 15.013 11.8708 15.013 12.2657V17.7344ZM17.7344 17.0183C17.7344 17.4132 17.4131 17.7344 17.0182 17.7344H16.4453V12.2657C16.4453 11.081 15.4815 10.1172 14.2969 10.1172H5.73891C4.55426 10.1172 3.59047 11.081 3.59047 12.2657V17.7344H2.98175C2.58687 17.7344 2.2656 17.4132 2.2656 17.0183V2.98181C2.2656 2.58693 2.58687 2.26567 2.98175 2.26567H5.02277V5.70317C5.02277 6.88781 5.98655 7.8516 7.1712 7.8516H12.8646C14.0492 7.8516 15.013 6.88781 15.013 5.70317V2.26567H15.2893L17.7344 4.71073V17.0183Z" fill="#070F21"/>
</g>
<defs>
<clipPath id="clip0_2_2310">
<rect width="20" height="20" fill="white"/>
</clipPath>
</defs>
</svg>
