<svg width="14" height="14" viewBox="0 0 14 14" fill="none" xmlns="http://www.w3.org/2000/svg">
<g opacity="0.6" clip-path="url(#clip0_539_14863)">
<path d="M13.8794 2.83831L11.1344 0.0931538C11.0572 0.0159067 10.9524 -0.0274658 10.8432 -0.0274658H4.52941C3.84827 -0.0274658 3.29412 0.526687 3.29412 1.20783V6.63868C1.44376 6.84417 0 8.41731 0 10.3216C0 12.365 1.66246 14.0274 3.70588 14.0274H12.7647C13.4458 14.0274 14 13.4733 14 12.7921V3.12948C14 3.02025 13.9566 2.91555 13.8794 2.83831ZM11.2549 1.37838L12.1495 2.27304L12.5941 2.71763H11.2549V1.37838ZM0.823529 10.3216C0.823529 8.73222 2.11655 7.4392 3.70588 7.4392C5.29521 7.4392 6.58824 8.73222 6.58824 10.3216C6.58824 11.9109 5.29521 13.2039 3.70588 13.2039C2.11655 13.2039 0.823529 11.9109 0.823529 10.3216ZM12.7647 13.2039H6.03233C6.77249 12.6053 7.2783 11.7282 7.38879 10.7333H11.6667C11.8941 10.7333 12.0784 10.549 12.0784 10.3216C12.0784 10.0941 11.8941 9.90979 11.6667 9.90979H7.38876C7.32162 9.30532 7.10865 8.74425 6.78572 8.26273H11.6667C11.8941 8.26273 12.0784 8.07837 12.0784 7.85097C12.0784 7.62356 11.8941 7.4392 11.6667 7.4392H6.03233C5.49645 7.00586 4.83791 6.71867 4.11765 6.63868V1.20783C4.11765 0.980781 4.30236 0.796064 4.52941 0.796064H10.4314V3.1294C10.4314 3.3568 10.6157 3.54116 10.8431 3.54116H13.1765V12.7921C13.1765 13.0192 12.9918 13.2039 12.7647 13.2039Z" fill="#070F21"/>
<path d="M11.6667 4.96863H5.62746C5.40006 4.96863 5.2157 5.15299 5.2157 5.38039C5.2157 5.6078 5.40006 5.79216 5.62746 5.79216H11.6667C11.8941 5.79216 12.0784 5.6078 12.0784 5.38039C12.0784 5.15299 11.8941 4.96863 11.6667 4.96863Z" fill="#070F21"/>
<path d="M5.34213 9.28929C5.18135 9.12851 4.92062 9.12851 4.75981 9.28929L3.12941 10.9197L2.59703 10.3873C2.43625 10.2265 2.17552 10.2265 2.01471 10.3873C1.8539 10.5481 1.8539 10.8088 2.01471 10.9696L2.83824 11.7931C2.91864 11.8735 3.02403 11.9138 3.12941 11.9138C3.2348 11.9138 3.34018 11.8735 3.42056 11.7931L5.34213 9.87158C5.50293 9.7108 5.50293 9.45007 5.34213 9.28929Z" fill="#070F21"/>
</g>
<defs>
<clipPath id="clip0_539_14863">
<rect width="14" height="14" fill="white"/>
</clipPath>
</defs>
</svg>
