<svg width="14" height="15" viewBox="0 0 14 15" fill="none" xmlns="http://www.w3.org/2000/svg">
<g opacity="0.6">
<path fill-rule="evenodd" clip-rule="evenodd" d="M6.58562 1.92871C4.94361 1.92871 3.61096 3.26178 3.61096 4.90337C3.61096 6.54496 4.94361 7.87804 6.58562 7.87804C8.22721 7.87804 9.56029 6.54496 9.56029 4.90337C9.56029 3.26178 8.22721 1.92871 6.58562 1.92871ZM6.58562 2.77861C7.75807 2.77861 8.71038 3.73051 8.71038 4.90337C8.71038 6.07624 7.75807 7.02813 6.58562 7.02813C5.41276 7.02813 4.46087 6.07624 4.46087 4.90337C4.46087 3.73051 5.41276 2.77861 6.58562 2.77861Z" fill="#070F21"/>
<path fill-rule="evenodd" clip-rule="evenodd" d="M1.48626 12.9775H6.74376C6.97833 12.9775 7.16871 13.1679 7.16871 13.4025C7.16871 13.6371 6.97833 13.8274 6.74376 13.8274H1.0613C0.826306 13.8274 0.636353 13.6371 0.636353 13.4025C0.636353 13.4025 0.636353 13.0519 0.636353 12.5526C0.636353 10.4402 2.34848 8.72803 4.46092 8.72803H6.74588C6.98046 8.72803 7.17083 8.91841 7.17083 9.15298C7.17083 9.38755 6.98046 9.57793 6.74588 9.57793H4.46092C2.81805 9.57793 1.48626 10.9097 1.48626 12.5526V12.9775Z" fill="#070F21"/>
<path fill-rule="evenodd" clip-rule="evenodd" d="M9.25826 9.62393L9.9913 8.20799C10.0644 8.06691 10.2102 7.97852 10.3687 7.97852C10.5276 7.97852 10.6734 8.06691 10.746 8.20799L11.4795 9.62393L13.0527 9.884C13.2095 9.90992 13.3386 10.0208 13.3875 10.1717C13.4368 10.323 13.3977 10.4887 13.286 10.6017L12.1658 11.7368L12.405 13.3134C12.4288 13.4702 12.363 13.6274 12.2346 13.7209C12.1063 13.814 11.9363 13.828 11.7944 13.757L10.3687 13.0422L8.94337 13.757C8.80144 13.828 8.63146 13.814 8.50312 13.7209C8.37479 13.6274 8.30892 13.4702 8.33272 13.3134L8.57154 11.7368L7.45179 10.6017C7.34003 10.4887 7.30093 10.323 7.3498 10.1717C7.3991 10.0208 7.52828 9.90992 7.68509 9.884L9.25826 9.62393ZM10.3687 9.32731L9.91481 10.204C9.85319 10.323 9.73888 10.4058 9.60672 10.4279L8.63316 10.5886L9.32625 11.2914C9.42059 11.3866 9.46394 11.5209 9.44397 11.6535L9.29608 12.6292L10.1783 12.1872C10.2981 12.1269 10.4396 12.1269 10.5595 12.1872L11.4417 12.6292L11.2938 11.6535C11.2738 11.5209 11.3172 11.3866 11.4115 11.2914L12.1046 10.5886L11.131 10.4279C10.9984 10.4058 10.8846 10.323 10.8229 10.204L10.3687 9.32731Z" fill="#070F21"/>
</g>
</svg>
