<svg width="14" height="14" viewBox="0 0 14 14" fill="none" xmlns="http://www.w3.org/2000/svg">
<g opacity="0.5">
<path d="M3.41142 10.0402L4.23793 9.21188L4.23805 9.21176C4.33857 9.11136 4.47485 9.055 4.61692 9.05508C4.759 9.05517 4.89522 9.11169 4.99562 9.2122C5.09602 9.31272 5.15238 9.44901 5.15229 9.59108C5.15221 9.73315 5.09569 9.86937 4.99517 9.96978M3.41142 10.0402L4.9245 9.89902M3.41142 10.0402V2.62781C3.41142 2.48587 3.35503 2.34975 3.25467 2.24938C3.1543 2.14901 3.01817 2.09263 2.87623 2.09263C2.73429 2.09263 2.59817 2.14901 2.4978 2.24938C2.39743 2.34975 2.34105 2.48587 2.34105 2.62781V10.0397L1.51449 9.21255L1.51446 9.21253C1.46469 9.16276 1.40561 9.12328 1.34059 9.09635C1.27557 9.06942 1.20587 9.05555 1.13549 9.05555C1.06511 9.05555 0.995422 9.06942 0.930399 9.09635C0.865375 9.12328 0.806294 9.16276 0.756528 9.21253C0.706761 9.26229 0.667284 9.32137 0.64035 9.3864C0.613417 9.45142 0.599554 9.52111 0.599554 9.59149C0.599554 9.66187 0.613417 9.73156 0.64035 9.79659C0.667284 9.86161 0.706761 9.92069 0.756527 9.97046L0.756557 9.97049L2.4973 11.7098L2.49717 11.7099L2.50154 11.7138L2.5064 11.7181L3.41142 10.0402ZM4.99517 9.96978L4.9245 9.89902M4.99517 9.96978L4.99521 9.96973L4.9245 9.89902M4.99517 9.96978L3.25482 11.7101L3.18376 11.6398M4.9245 9.89902L3.18376 11.6398M3.18376 11.6398L3.25447 11.7105L3.25454 11.7104L3.18376 11.6398ZM6.58809 11.826L6.62636 11.7336L6.58809 11.826C6.65302 11.8528 6.72261 11.8667 6.7929 11.8667H7.66326C7.73355 11.8667 7.80314 11.8528 7.86807 11.826L7.8298 11.7336L7.86807 11.826C7.933 11.7991 7.992 11.7596 8.0417 11.7099C8.09139 11.6602 8.13082 11.6012 8.15771 11.5363C8.18461 11.4714 8.19845 11.4018 8.19845 11.3315C8.19845 11.2612 8.18461 11.1916 8.15771 11.1267C8.13082 11.0618 8.09139 11.0028 8.0417 10.9531C7.992 10.9034 7.933 10.864 7.86807 10.8371L7.8298 10.9294L7.86807 10.8371C7.80314 10.8102 7.73355 10.7963 7.66326 10.7963H6.7929C6.72261 10.7963 6.65302 10.8102 6.58809 10.8371L6.62636 10.9294L6.58809 10.8371C6.52316 10.864 6.46416 10.9034 6.41446 10.9531C6.36477 11.0028 6.32534 11.0618 6.29845 11.1267C6.27155 11.1916 6.25771 11.2612 6.25771 11.3315C6.25771 11.4018 6.27155 11.4714 6.29845 11.5363C6.32534 11.6012 6.36477 11.6602 6.41446 11.7099C6.46416 11.7596 6.52316 11.7991 6.58809 11.826ZM6.41446 3.11975C6.3141 3.22011 6.25771 3.35624 6.25771 3.49818C6.25771 3.64012 6.3141 3.77625 6.41446 3.87661C6.51483 3.97698 6.65096 4.03337 6.7929 4.03337H12.8855C13.0274 4.03337 13.1635 3.97698 13.2639 3.87661C13.3643 3.77625 13.4207 3.64012 13.4207 3.49818C13.4207 3.35624 13.3643 3.22011 13.2639 3.11975C13.1635 3.01938 13.0274 2.963 12.8855 2.963H6.7929C6.65096 2.963 6.51483 3.01938 6.41446 3.11975ZM6.7929 5.5741C6.65096 5.5741 6.51483 5.63049 6.41446 5.73086C6.3141 5.83122 6.25771 5.96735 6.25771 6.10929C6.25771 6.25123 6.3141 6.38736 6.41446 6.48772C6.51483 6.58809 6.65096 6.64447 6.7929 6.64447H11.1447C11.2867 6.64447 11.4228 6.58809 11.5232 6.48772C11.6235 6.38736 11.6799 6.25123 11.6799 6.10929C11.6799 5.96735 11.6235 5.83122 11.5232 5.73086C11.4228 5.63049 11.2867 5.5741 11.1447 5.5741H6.7929ZM6.7929 8.18521C6.65096 8.18521 6.51483 8.2416 6.41446 8.34196C6.3141 8.44233 6.25771 8.57846 6.25771 8.7204C6.25771 8.86234 6.3141 8.99846 6.41446 9.09883C6.51483 9.1992 6.65095 9.25558 6.7929 9.25558H9.404C9.54594 9.25558 9.68207 9.1992 9.78244 9.09883C9.8828 8.99846 9.93919 8.86234 9.93919 8.7204C9.93919 8.57846 9.8828 8.44233 9.78244 8.34196C9.68207 8.2416 9.54594 8.18521 9.404 8.18521H6.7929Z" fill="#070F21" stroke="#070F21" stroke-width="0.2"/>
</g>
</svg>
