<svg width="22" height="22" viewBox="0 0 22 22" fill="none" xmlns="http://www.w3.org/2000/svg">
<path d="M9.83539 18.6353C11.3236 18.6353 12.6825 18.3117 13.9766 17.6L17.4707 21.0941C18.4413 22.0647 20.0589 22.0647 21.0942 21.0941C22.1295 20.1235 22.1295 18.4412 21.0942 17.4706L17.6001 13.9764C18.2472 12.747 18.6354 11.3235 18.6354 9.83527C18.6354 5.04703 14.6883 1.09998 9.83539 1.09998C5.04716 1.09998 1.1001 5.04703 1.1001 9.83527C1.1001 14.6882 5.04716 18.6353 9.83539 18.6353ZM20.1236 18.3764C20.6413 18.8941 20.6413 19.6706 20.1236 20.1882C19.606 20.7059 18.8295 20.7059 18.3119 20.1882L15.0119 16.8882C15.7883 16.3059 16.2413 15.8529 16.8236 15.0764L20.1236 18.3764ZM9.83539 2.39409C13.9766 2.39409 17.2766 5.7588 17.2766 9.83527C17.2766 13.9764 13.9119 17.2764 9.83539 17.2764C5.75892 17.3412 2.39422 13.9764 2.39422 9.83527C2.39422 5.7588 5.75892 2.39409 9.83539 2.39409Z" fill="#070F21"/>
<path d="M5.95304 14.0412H13.7177C14.106 14.0412 14.3648 13.7823 14.3648 13.3941V12.4235C14.3648 11.1294 13.3295 9.83527 12.4883 9.12351C12.6825 8.73527 12.7472 8.34703 12.7472 7.89409C12.7472 6.27645 11.453 4.98233 9.83539 4.98233C8.21774 4.98233 6.92363 6.27645 6.92363 7.89409C6.92363 8.34703 7.05304 8.73527 7.18245 9.12351C6.21186 9.83527 5.30598 11 5.30598 12.4235V13.3941C5.30598 13.7823 5.62951 14.0412 5.95304 14.0412ZM9.83539 6.27645C10.7413 6.27645 11.453 6.98821 11.453 7.89409C11.453 8.79998 10.7413 9.51174 9.83539 9.51174C8.92951 9.51174 8.21774 8.79998 8.21774 7.89409C8.21774 6.98821 8.99422 6.27645 9.83539 6.27645ZM6.6001 12.4235C6.6001 11.5176 7.24716 10.6764 8.02363 10.1588C8.54127 10.547 9.12363 10.8059 9.83539 10.8059C10.5472 10.8059 11.1295 10.547 11.6472 10.1588C12.2295 10.6117 13.0707 11.647 13.0707 12.4235V12.747H6.6001V12.4235Z" fill="#070F21"/>
</svg>
