<svg width="20" height="20" viewBox="0 0 20 20" fill="none" xmlns="http://www.w3.org/2000/svg">
<path d="M8.16928 1.6665C8.01126 1.66638 7.85964 1.72896 7.7477 1.8405L1.84163 7.74657C1.78616 7.80198 1.74216 7.86777 1.71213 7.94019C1.68211 8.01262 1.66666 8.09025 1.66666 8.16864C1.66666 8.24704 1.68211 8.32467 1.71213 8.3971C1.74216 8.46952 1.78616 8.53531 1.84163 8.59072C2.41434 9.16343 3.12028 9.29169 3.63433 9.29169C3.84611 9.29169 4.03403 9.27081 4.18318 9.24595L7.9217 12.9845C7.82426 13.3822 7.76063 13.7859 7.73179 14.1935C7.67711 15.0307 7.76958 16.206 8.59086 17.0272C8.70272 17.139 8.85435 17.2017 9.01244 17.2017C9.17053 17.2017 9.32216 17.139 9.43402 17.0272L12.8096 13.6516L16.6068 17.4498C16.8395 17.6825 18.0605 18.5256 18.2931 18.293C18.5258 18.0603 17.6826 16.8373 17.45 16.6057L13.6538 12.8095L17.0274 9.43387C17.1391 9.32202 17.2019 9.17039 17.2019 9.0123C17.2019 8.8542 17.1391 8.70258 17.0274 8.59072C16.2071 7.76944 15.0319 7.67597 14.1937 7.73166C13.786 7.75949 13.3813 7.82412 12.9856 7.92256L9.2461 4.18404C9.27728 4.00241 9.29324 3.81849 9.29382 3.6342C9.29382 3.12115 9.16456 2.41421 8.59086 1.8405C8.47892 1.72896 8.32731 1.66638 8.16928 1.6665ZM8.02412 4.18603V4.18404V4.18603ZM8.02412 4.18404V4.18603C7.98961 4.29095 7.98491 4.4034 8.01054 4.51083C8.03617 4.61827 8.09113 4.71648 8.16928 4.79453L12.3871 9.0113C12.4655 9.08948 12.5641 9.14428 12.672 9.16957C12.7798 9.19486 12.8925 9.18963 12.9975 9.15448H12.9995L13.0164 9.1505C13.4258 9.02878 13.8472 8.9521 14.2732 8.92182C14.7763 8.88801 15.2705 8.93077 15.6752 9.10079L9.09994 15.673C8.9319 15.2674 8.88915 14.7742 8.92295 14.2711C8.95329 13.8448 9.02997 13.423 9.15164 13.0133L9.15661 12.9984V12.9964C9.19188 12.8914 9.19716 12.7786 9.17187 12.6708C9.14658 12.5629 9.09171 12.4643 9.01343 12.3859L4.79467 8.16815C4.71337 8.08629 4.61008 8.02977 4.49732 8.00541C4.38455 7.98106 4.26714 7.98993 4.15931 8.03094L4.04497 8.05679C3.94157 8.07667 3.7964 8.09755 3.63433 8.09755C3.49811 8.09755 3.35991 8.08463 3.22568 8.04983L8.05196 3.22455C8.08495 3.35856 8.10098 3.49619 8.09968 3.6342C8.09869 3.81914 8.07383 4.00407 8.02511 4.18304L8.02412 4.18404Z" fill="#FF9900"/>
</svg>
