<svg width="22" height="22" viewBox="0 0 22 22" fill="none" xmlns="http://www.w3.org/2000/svg">
<path d="M3.66675 3.66683V18.3335C3.66675 18.8197 3.8599 19.286 4.20372 19.6299C4.54754 19.9737 5.01385 20.1668 5.50008 20.1668H16.5001C16.9863 20.1668 17.4526 19.9737 17.7964 19.6299C18.1403 19.286 18.3334 18.8197 18.3334 18.3335V7.647C18.3334 7.40276 18.2846 7.16099 18.1898 6.93589C18.095 6.71078 17.9562 6.50688 17.7816 6.33616L13.7116 2.356C13.3691 2.0211 12.9091 1.83356 12.4301 1.8335H5.50008C5.01385 1.8335 4.54754 2.02665 4.20372 2.37047C3.8599 2.71428 3.66675 3.1806 3.66675 3.66683V3.66683Z" stroke="#070F21" stroke-width="1.5" stroke-linecap="round" stroke-linejoin="round"/>
<path d="M8.25 11.9165H13.75" stroke="#070F21" stroke-width="1.5" stroke-linecap="round" stroke-linejoin="round"/>
<path d="M8.25 15.5835H11" stroke="#070F21" stroke-width="1.5" stroke-linecap="round" stroke-linejoin="round"/>
<path d="M12.8333 1.8335V5.50016C12.8333 5.98639 13.0264 6.45271 13.3702 6.79653C13.714 7.14034 14.1804 7.3335 14.6666 7.3335H18.3333" stroke="#070F21" stroke-width="1.5" stroke-linecap="round" stroke-linejoin="round"/>
</svg>
