<svg width="14" height="15" viewBox="0 0 14 15" fill="none" xmlns="http://www.w3.org/2000/svg">
<g opacity="0.6" clip-path="url(#clip0_539_6611)">
<path d="M13.8794 2.96953L11.1344 0.224379C11.0572 0.147132 10.9524 0.10376 10.8432 0.10376H4.52941C3.84827 0.10376 3.29412 0.657913 3.29412 1.33905V6.7699C1.44376 6.9754 0 8.54853 0 10.4528C0 12.4962 1.66246 14.1587 3.70588 14.1587H12.7647C13.4458 14.1587 14 13.6045 14 12.9234V3.2607C14 3.15148 13.9566 3.04678 13.8794 2.96953V2.96953ZM11.2549 1.50961L12.1495 2.40426L12.5941 2.84886H11.2549V1.50961ZM0.823529 10.4528C0.823529 8.86345 2.11655 7.57043 3.70588 7.57043C5.29521 7.57043 6.58824 8.86345 6.58824 10.4528C6.58824 12.0421 5.29521 13.3351 3.70588 13.3351C2.11655 13.3351 0.823529 12.0421 0.823529 10.4528ZM12.7647 13.3351H6.03233C6.77249 12.7366 7.2783 11.8594 7.38879 10.8645H11.6667C11.8941 10.8645 12.0784 10.6802 12.0784 10.4528C12.0784 10.2254 11.8941 10.041 11.6667 10.041H7.38876C7.32162 9.43654 7.10865 8.87547 6.78572 8.39396H11.6667C11.8941 8.39396 12.0784 8.2096 12.0784 7.98219C12.0784 7.75479 11.8941 7.57043 11.6667 7.57043H6.03233C5.49645 7.13709 4.83791 6.84989 4.11765 6.7699V1.33905C4.11765 1.11201 4.30236 0.927289 4.52941 0.927289H10.4314V3.26062C10.4314 3.48803 10.6157 3.67239 10.8431 3.67239H13.1765V12.9234C13.1765 13.1504 12.9918 13.3351 12.7647 13.3351V13.3351Z" fill="#070F21"/>
<path d="M11.6667 5.09961H5.62746C5.40006 5.09961 5.2157 5.28397 5.2157 5.51137C5.2157 5.73878 5.40006 5.92314 5.62746 5.92314H11.6667C11.8941 5.92314 12.0784 5.73878 12.0784 5.51137C12.0784 5.28397 11.8941 5.09961 11.6667 5.09961Z" fill="#070F21"/>
<path d="M5.34219 9.42039C5.18141 9.25961 4.92068 9.25961 4.75987 9.42039L3.12947 11.0508L2.59709 10.5184C2.43631 10.3576 2.17558 10.3576 2.01477 10.5184C1.85396 10.6792 1.85396 10.9399 2.01477 11.1007L2.8383 11.9242C2.9187 12.0047 3.02409 12.0449 3.12947 12.0449C3.23486 12.0449 3.34024 12.0047 3.42062 11.9242L5.34219 10.0027C5.50299 9.8419 5.50299 9.58117 5.34219 9.42039V9.42039Z" fill="#070F21"/>
</g>
<defs>
<clipPath id="clip0_539_6611">
<rect width="14" height="14" fill="white" transform="translate(0 0.131104)"/>
</clipPath>
</defs>
</svg>
