<svg width="22" height="22" viewBox="0 0 22 22" fill="none" xmlns="http://www.w3.org/2000/svg">
<g clip-path="url(#clip0_539_4635)">
<path d="M21.8105 4.46014L17.4969 0.146332C17.3756 0.024944 17.211 -0.0432129 17.0394 -0.0432129H7.11765C6.04728 -0.0432129 5.17647 0.827599 5.17647 1.89796V10.4322C2.26876 10.7551 0 13.2271 0 16.2195C0 19.4306 2.61244 22.0431 5.82353 22.0431H20.0588C21.1292 22.0431 22 21.1723 22 20.1019V4.9177C22 4.74606 21.9318 4.58153 21.8105 4.46014ZM17.6863 2.16598L19.0921 3.57186L19.7908 4.27051H17.6863V2.16598ZM1.29412 16.2195C1.29412 13.722 3.32601 11.6901 5.82353 11.6901C8.32105 11.6901 10.3529 13.722 10.3529 16.2195C10.3529 18.7171 8.32105 20.7489 5.82353 20.7489C3.32601 20.7489 1.29412 18.7171 1.29412 16.2195ZM20.0588 20.7489H9.47937C10.6425 19.8083 11.4373 18.4299 11.611 16.8666H18.3333C18.6907 16.8666 18.9804 16.5769 18.9804 16.2195C18.9804 15.8622 18.6907 15.5725 18.3333 15.5725H11.6109C11.5054 14.6226 11.1707 13.7409 10.6633 12.9842H18.3333C18.6907 12.9842 18.9804 12.6945 18.9804 12.3372C18.9804 11.9798 18.6907 11.6901 18.3333 11.6901H9.47937C8.63729 11.0092 7.60242 10.5579 6.47059 10.4322V1.89796C6.47059 1.54118 6.76086 1.2509 7.11765 1.2509H16.3922V4.91757C16.3922 5.27492 16.6819 5.56463 17.0392 5.56463H20.7059V20.1019C20.7059 20.4587 20.4156 20.7489 20.0588 20.7489Z" fill="#070F21"/>
<path d="M18.3334 7.80786H8.84316C8.48582 7.80786 8.19611 8.09757 8.19611 8.45492C8.19611 8.81227 8.48582 9.10198 8.84316 9.10198H18.3334C18.6907 9.10198 18.9804 8.81227 18.9804 8.45492C18.9804 8.09757 18.6907 7.80786 18.3334 7.80786Z" fill="#070F21"/>
<path d="M8.39476 14.5975C8.14211 14.3448 7.73239 14.3448 7.47969 14.5975L4.91764 17.1595L4.08103 16.3229C3.82838 16.0702 3.41866 16.0702 3.16596 16.3229C2.91327 16.5756 2.91327 16.9853 3.16596 17.238L4.46008 18.5321C4.58643 18.6584 4.75203 18.7216 4.91764 18.7216C5.08324 18.7216 5.24885 18.6584 5.37515 18.5321L8.39476 15.5125C8.64746 15.2598 8.64746 14.8501 8.39476 14.5975Z" fill="#070F21"/>
</g>
<defs>
<clipPath id="clip0_539_4635">
<rect width="22" height="22" fill="white"/>
</clipPath>
</defs>
</svg>
