<svg width="22" height="22" viewBox="0 0 22 22" fill="none" xmlns="http://www.w3.org/2000/svg">
<path d="M3.66669 3.66659V18.3333C3.66669 18.8195 3.85984 19.2858 4.20366 19.6296C4.54747 19.9734 5.01379 20.1666 5.50002 20.1666H16.5C16.9863 20.1666 17.4526 19.9734 17.7964 19.6296C18.1402 19.2858 18.3334 18.8195 18.3334 18.3333V7.64675C18.3333 7.40251 18.2845 7.16075 18.1897 6.93564C18.095 6.71054 17.9562 6.50664 17.7815 6.33592L13.7115 2.35575C13.369 2.02085 12.909 1.83331 12.43 1.83325H5.50002C5.01379 1.83325 4.54747 2.02641 4.20366 2.37022C3.85984 2.71404 3.66669 3.18035 3.66669 3.66659V3.66659Z" stroke="#070F21" stroke-width="1.5" stroke-linecap="round" stroke-linejoin="round"/>
<path d="M8.25 11.9167H13.75" stroke="#070F21" stroke-width="1.5" stroke-linecap="round" stroke-linejoin="round"/>
<path d="M8.25 15.5833H11" stroke="#070F21" stroke-width="1.5" stroke-linecap="round" stroke-linejoin="round"/>
<path d="M12.8333 1.83325V5.49992C12.8333 5.98615 13.0265 6.45246 13.3703 6.79628C13.7141 7.1401 14.1804 7.33325 14.6666 7.33325H18.3333" stroke="#070F21" stroke-width="1.5" stroke-linecap="round" stroke-linejoin="round"/>
</svg>
